<svg viewBox="-5221.6 -11205.4 8916.15 20852" xmlns="http://www.w3.org/2000/svg">
<style>svg { background-color: black; }</style>
<line x1="-2386.53" y1="6165.07" x2="-2391.6" y2="5168.69" stroke="#dfdfdf" stroke-width="20" />
<line x1="-2386.53" y1="6165.07" x2="-3465.13" y2="6158.26" stroke="#dfdfdf" stroke-width="20" />
<line x1="-2386.53" y1="6165.07" x2="-3179.12" y2="5426.81" stroke="#dfdfdf" stroke-width="20" />
<line x1="-2376.84" y1="7152.57" x2="-2386.53" y2="6165.07" stroke="#dfdfdf" stroke-width="20" />
<line x1="-2386.53" y1="6165.07" x2="-3283.79" y2="6987.31" stroke="#dfdfdf" stroke-width="20" />
<line x1="-1232.41" y1="6410.56" x2="-2386.53" y2="6165.07" stroke="#dfdfdf" stroke-width="20" />
<line x1="1866.65" y1="3708.91" x2="1033.66" y2="2929" stroke="#dfdfdf" stroke-width="20" />
<line x1="1034.1" y1="4118.24" x2="1033.66" y2="2929" stroke="#dfdfdf" stroke-width="20" />
<line x1="1033.66" y1="2929" x2="-22.6179" y2="2926.38" stroke="#dfdfdf" stroke-width="20" />
<line x1="1034.4" y1="1718.23" x2="1033.66" y2="2929" stroke="#dfdfdf" stroke-width="20" />
<line x1="-2376.63" y1="-306.756" x2="-3682.01" y2="256.919" stroke="#dfdfdf" stroke-width="20" />
<line x1="-2376.63" y1="-306.756" x2="-3180.35" y2="-1057.53" stroke="#dfdfdf" stroke-width="20" />
<line x1="-2376.63" y1="-306.756" x2="-3695.51" y2="-531.867" stroke="#dfdfdf" stroke-width="20" />
<line x1="-2376.63" y1="-306.756" x2="-3182.5" y2="816.748" stroke="#dfdfdf" stroke-width="20" />
<line x1="1045.43" y1="-2462.06" x2="1042.35" y2="-3565.97" stroke="#dfdfdf" stroke-width="20" />
<line x1="2188.87" y1="-3119.34" x2="1042.35" y2="-3565.97" stroke="#dfdfdf" stroke-width="20" />
<line x1="1757.27" y1="-2572.43" x2="1042.35" y2="-3565.97" stroke="#dfdfdf" stroke-width="20" />
<line x1="1051.7" y1="-4656.59" x2="1042.35" y2="-3565.97" stroke="#dfdfdf" stroke-width="20" />
<line x1="2185.4" y1="-3946.86" x2="1042.35" y2="-3565.97" stroke="#dfdfdf" stroke-width="20" />
<line x1="-2375.36" y1="-6789.32" x2="-3212.84" y2="-7711.08" stroke="#dfdfdf" stroke-width="20" />
<line x1="-2375.36" y1="-6789.32" x2="-3544.44" y2="-6252.75" stroke="#dfdfdf" stroke-width="20" />
<line x1="-2375.36" y1="-6789.32" x2="-2919.01" y2="-5694.63" stroke="#dfdfdf" stroke-width="20" />
<line x1="-2375.36" y1="-6789.32" x2="-3545.1" y2="-7131.54" stroke="#dfdfdf" stroke-width="20" />
<line x1="-1339.69" y1="-6787.02" x2="-2375.36" y2="-6789.32" stroke="#dfdfdf" stroke-width="20" />
<line x1="-2375.36" y1="-6789.32" x2="-2376.88" y2="-7938.74" stroke="#dfdfdf" stroke-width="20" />
<line x1="16.2266" y1="-8953.25" x2="-394.741" y2="-9840.34" stroke="#dfdfdf" stroke-width="20" />
<line x1="16.2266" y1="-8953.25" x2="-1099.25" y2="-9295.15" stroke="#dfdfdf" stroke-width="20" />
<line x1="438.05" y1="-9845.37" x2="16.2266" y2="-8953.25" stroke="#dfdfdf" stroke-width="20" />
<line x1="1139.7" y1="-9289.62" x2="16.2266" y2="-8953.25" stroke="#dfdfdf" stroke-width="20" />
<line x1="2033.73" y1="-1980.68" x2="1757.27" y2="-2572.43" stroke="#dfdfdf" stroke-width="20" />
<line x1="-3695.51" y1="-531.867" x2="-4244.28" y2="-826.425" stroke="#dfdfdf" stroke-width="20" />
<line x1="-2033.19" y1="1399.59" x2="-2377.4" y2="810.304" stroke="#dfdfdf" stroke-width="20" />
<line x1="-2377.4" y1="810.304" x2="-2717.5" y2="1397.82" stroke="#dfdfdf" stroke-width="20" />
<line x1="1345.7" y1="4648.46" x2="1034.1" y2="4118.24" stroke="#dfdfdf" stroke-width="20" />
<line x1="-3283.79" y1="6987.31" x2="-3291.78" y2="7653" stroke="#dfdfdf" stroke-width="20" />
<line x1="1034.1" y1="4118.24" x2="715.987" y2="4646.08" stroke="#dfdfdf" stroke-width="20" />
<line x1="3.45104" y1="8337.78" x2="-1330.69" y2="8337.9" stroke="#dfdfdf" stroke-width="20" />
<line x1="1336.18" y1="8337.9" x2="3.45104" y2="8337.78" stroke="#dfdfdf" stroke-width="20" />
<line x1="834.735" y1="9323.09" x2="3.45104" y2="8337.78" stroke="#dfdfdf" stroke-width="20" />
<line x1="3.45104" y1="8337.78" x2="-847.814" y2="9346.61" stroke="#dfdfdf" stroke-width="20" />
<line x1="-3695.51" y1="-531.867" x2="-4262.33" y2="-228.05" stroke="#dfdfdf" stroke-width="20" />
<line x1="-3283.79" y1="6987.31" x2="-3931.32" y2="6994.99" stroke="#dfdfdf" stroke-width="20" />
<line x1="-671.365" y1="6137.26" x2="-1232.41" y2="6410.56" stroke="#dfdfdf" stroke-width="20" />
<line x1="-663.406" y1="6759.68" x2="-1232.41" y2="6410.56" stroke="#dfdfdf" stroke-width="20" />
<line x1="2746.23" y1="2930.42" x2="1995" y2="2930.61" stroke="#dfdfdf" stroke-width="20" />
<line x1="-4213.1" y1="6157.05" x2="-4823.03" y2="6155.52" stroke="#dfdfdf" stroke-width="20" />
<line x1="-2374.13" y1="3874.42" x2="-2382.43" y2="4452.8" stroke="#dfdfdf" stroke-width="20" />
<line x1="-3465.13" y1="6158.26" x2="-4213.1" y2="6157.05" stroke="#dfdfdf" stroke-width="20" />
<line x1="-2378.86" y1="8465.74" x2="-2380.56" y2="7853.99" stroke="#dfdfdf" stroke-width="20" />
<line x1="-2382.43" y1="4452.8" x2="-2391.6" y2="5168.69" stroke="#dfdfdf" stroke-width="20" />
<line x1="-2376.84" y1="7152.57" x2="-2380.56" y2="7853.99" stroke="#dfdfdf" stroke-width="20" />
<line x1="-394.741" y1="-9840.34" x2="-537.404" y2="-10505.7" stroke="#dfdfdf" stroke-width="20" />
<line x1="-537.404" y1="-10505.7" x2="-831.501" y2="-10889.1" stroke="#dfdfdf" stroke-width="20" />
<line x1="-304.194" y1="-10902.5" x2="-537.404" y2="-10505.7" stroke="#dfdfdf" stroke-width="20" />
<line x1="1458.73" y1="-9900.71" x2="1139.7" y2="-9289.62" stroke="#dfdfdf" stroke-width="20" />
<line x1="1458.73" y1="-9900.71" x2="1293.83" y2="-10337" stroke="#dfdfdf" stroke-width="20" />
<line x1="1908.86" y1="-10101.4" x2="1458.73" y2="-9900.71" stroke="#dfdfdf" stroke-width="20" />
<line x1="-1099.25" y1="-9295.15" x2="-1358.55" y2="-9903.84" stroke="#dfdfdf" stroke-width="20" />
<line x1="-1245.61" y1="-10348.2" x2="-1358.55" y2="-9903.84" stroke="#dfdfdf" stroke-width="20" />
<line x1="-1358.55" y1="-9903.84" x2="-1830.34" y2="-10159.2" stroke="#dfdfdf" stroke-width="20" />
<line x1="587.226" y1="-10525.7" x2="438.05" y2="-9845.37" stroke="#dfdfdf" stroke-width="20" />
<line x1="887.153" y1="-10903" x2="587.226" y2="-10525.7" stroke="#dfdfdf" stroke-width="20" />
<line x1="587.226" y1="-10525.7" x2="306.719" y2="-10905.4" stroke="#dfdfdf" stroke-width="20" />
<line x1="-3212.84" y1="-7711.08" x2="-3685.35" y2="-8258.93" stroke="#dfdfdf" stroke-width="20" />
<line x1="-3685.35" y1="-8258.93" x2="-4211.42" y2="-8320.66" stroke="#dfdfdf" stroke-width="20" />
<line x1="-3685.35" y1="-8258.93" x2="-3697.9" y2="-8757.33" stroke="#dfdfdf" stroke-width="20" />
<line x1="-568.809" y1="-6785.3" x2="-1339.69" y2="-6787.02" stroke="#dfdfdf" stroke-width="20" />
<line x1="-144.204" y1="-7105.62" x2="-568.809" y2="-6785.3" stroke="#dfdfdf" stroke-width="20" />
<line x1="-148.668" y1="-6492.46" x2="-568.809" y2="-6785.3" stroke="#dfdfdf" stroke-width="20" />
<line x1="-2373.61" y1="-8686.72" x2="-2376.88" y2="-7938.74" stroke="#dfdfdf" stroke-width="20" />
<line x1="-2059.38" y1="-9058.45" x2="-2373.61" y2="-8686.72" stroke="#dfdfdf" stroke-width="20" />
<line x1="-2373.61" y1="-8686.72" x2="-2683.55" y2="-9052.39" stroke="#dfdfdf" stroke-width="20" />
<line x1="-2919.01" y1="-5694.63" x2="-3291.7" y2="-5028.16" stroke="#dfdfdf" stroke-width="20" />
<line x1="-3291.7" y1="-5028.16" x2="-3802.93" y2="-4849.78" stroke="#dfdfdf" stroke-width="20" />
<line x1="-3212.5" y1="-4516.66" x2="-3291.7" y2="-5028.16" stroke="#dfdfdf" stroke-width="20" />
<line x1="-3544.44" y1="-6252.75" x2="-4181.91" y2="-5963.72" stroke="#dfdfdf" stroke-width="20" />
<line x1="-4181.91" y1="-5963.72" x2="-4713.8" y2="-6022.28" stroke="#dfdfdf" stroke-width="20" />
<line x1="-4181.91" y1="-5963.72" x2="-4418.73" y2="-5482.68" stroke="#dfdfdf" stroke-width="20" />
<line x1="1051.7" y1="-4656.59" x2="1037.88" y2="-5408.84" stroke="#dfdfdf" stroke-width="20" />
<line x1="1037.88" y1="-5408.84" x2="725.574" y2="-5854.2" stroke="#dfdfdf" stroke-width="20" />
<line x1="1338.32" y1="-5857.28" x2="1037.88" y2="-5408.84" stroke="#dfdfdf" stroke-width="20" />
<line x1="1046.02" y1="-1731.46" x2="1045.43" y2="-2462.06" stroke="#dfdfdf" stroke-width="20" />
<line x1="1399.77" y1="-1328.31" x2="1046.02" y2="-1731.46" stroke="#dfdfdf" stroke-width="20" />
<line x1="1046.02" y1="-1731.46" x2="704.113" y2="-1320.47" stroke="#dfdfdf" stroke-width="20" />
<line x1="2879.47" y1="-2777" x2="2188.87" y2="-3119.34" stroke="#dfdfdf" stroke-width="20" />
<line x1="3168.63" y1="-2364.57" x2="2879.47" y2="-2777" stroke="#dfdfdf" stroke-width="20" />
<line x1="3394.55" y1="-2937.32" x2="2879.47" y2="-2777" stroke="#dfdfdf" stroke-width="20" />
<line x1="2859.98" y1="-4232.27" x2="2185.4" y2="-3946.86" stroke="#dfdfdf" stroke-width="20" />
<line x1="3380.82" y1="-4111.79" x2="2859.98" y2="-4232.27" stroke="#dfdfdf" stroke-width="20" />
<line x1="3131.85" y1="-4638.33" x2="2859.98" y2="-4232.27" stroke="#dfdfdf" stroke-width="20" />
<line x1="-3180.35" y1="-1057.53" x2="-3773.63" y2="-1520.85" stroke="#dfdfdf" stroke-width="20" />
<line x1="-3773.63" y1="-1520.85" x2="-4320.79" y2="-1513.88" stroke="#dfdfdf" stroke-width="20" />
<line x1="-3773.63" y1="-1520.85" x2="-3913.66" y2="-2035.43" stroke="#dfdfdf" stroke-width="20" />
<line x1="2379.13" y1="1581" x2="1850.54" y2="2138.45" stroke="#dfdfdf" stroke-width="20" />
<line x1="2959.18" y1="1512.45" x2="2379.13" y2="1581" stroke="#dfdfdf" stroke-width="20" />
<line x1="2382.32" y1="1077.09" x2="2379.13" y2="1581" stroke="#dfdfdf" stroke-width="20" />
<line x1="-3182.5" y1="816.748" x2="-3623.82" y2="1388.87" stroke="#dfdfdf" stroke-width="20" />
<line x1="-3623.48" y1="1921.32" x2="-3623.82" y2="1388.87" stroke="#dfdfdf" stroke-width="20" />
<line x1="-3623.82" y1="1388.87" x2="-4163.94" y2="1490.85" stroke="#dfdfdf" stroke-width="20" />
<line x1="-3682.01" y1="256.919" x2="-4401.31" y2="530.711" stroke="#dfdfdf" stroke-width="20" />
<line x1="-4401.31" y1="530.711" x2="-4921.6" y2="437.98" stroke="#dfdfdf" stroke-width="20" />
<line x1="-4401.31" y1="530.711" x2="-4669.87" y2="990.388" stroke="#dfdfdf" stroke-width="20" />
<line x1="-22.6179" y1="2926.38" x2="-812.446" y2="2926.95" stroke="#dfdfdf" stroke-width="20" />
<line x1="-812.446" y1="2926.95" x2="-1232.7" y2="3281.92" stroke="#dfdfdf" stroke-width="20" />
<line x1="-812.446" y1="2926.95" x2="-1232.08" y2="2592.91" stroke="#dfdfdf" stroke-width="20" />
<line x1="2405.91" y1="4181.17" x2="1866.65" y2="3708.91" stroke="#dfdfdf" stroke-width="20" />
<line x1="2540.34" y1="4690.81" x2="2405.91" y2="4181.17" stroke="#dfdfdf" stroke-width="20" />
<line x1="2925.57" y1="4201.55" x2="2405.91" y2="4181.17" stroke="#dfdfdf" stroke-width="20" />
<line x1="-2382.7" y1="-2026.51" x2="-2383.03" y2="-1293.83" stroke="#dfdfdf" stroke-width="20" />
<line x1="-2382.7" y1="-2026.51" x2="-2726.19" y2="-2447.48" stroke="#dfdfdf" stroke-width="20" />
<line x1="-2030.71" y1="-2436.3" x2="-2382.7" y2="-2026.51" stroke="#dfdfdf" stroke-width="20" />
<line x1="-2376.63" y1="-306.756" x2="-2383.03" y2="-1293.83" stroke="#dfdfdf" stroke-width="20" />
<line x1="-2376.63" y1="-306.756" x2="-2377.4" y2="810.304" stroke="#dfdfdf" stroke-width="20" />
<line x1="1850.54" y1="2138.45" x2="1033.66" y2="2929" stroke="#dfdfdf" stroke-width="20" />
<line x1="1995" y1="2930.61" x2="1033.66" y2="2929" stroke="#dfdfdf" stroke-width="20" />
<line x1="1766.63" y1="-4533.51" x2="1042.35" y2="-3565.97" stroke="#dfdfdf" stroke-width="20" />
<line x1="2034.05" y1="-5131.56" x2="1766.63" y2="-4533.51" stroke="#dfdfdf" stroke-width="20" />
<line x1="1440.88" y1="1244.23" x2="1034.4" y2="1718.23" stroke="#dfdfdf" stroke-width="20" />
<line x1="1033.49" y1="814.496" x2="643.982" y2="1259.44" stroke="#dfdfdf" stroke-width="20" />
<line x1="1034.4" y1="1718.23" x2="643.982" y2="1259.44" stroke="#dfdfdf" stroke-width="20" />
<line x1="1440.88" y1="1244.23" x2="1033.49" y2="814.496" stroke="#dfdfdf" stroke-width="20" />
<line x1="-1220.74" y1="5875.43" x2="-2386.53" y2="6165.07" stroke="#dfdfdf" stroke-width="20" />
<line x1="-671.365" y1="6137.26" x2="-1220.74" y2="5875.43" stroke="#dfdfdf" stroke-width="20" />
<line x1="-2021.68" y1="-5667.36" x2="-2375.36" y2="-6789.32" stroke="#dfdfdf" stroke-width="20" />
<line x1="-1316.1" y1="-305.497" x2="-2376.63" y2="-306.756" stroke="#dfdfdf" stroke-width="20" />
<line x1="-551.473" y1="-301.193" x2="-1316.1" y2="-305.497" stroke="#dfdfdf" stroke-width="20" />
<circle cx="-2386.53" cy="6165.07" r="125" fill="#ff5f5f"><title>dwID: 380
gbidReward: ffffffff
bRootNode: true</title></circle>
<circle cx="1033.66" cy="2929" r="125" fill="#ff5f5f"><title>dwID: 381
gbidReward: ffffffff
bRootNode: true</title></circle>
<circle cx="-2376.63" cy="-306.756" r="125" fill="#ff5f5f"><title>dwID: 382
gbidReward: ffffffff
bRootNode: true</title></circle>
<circle cx="1042.35" cy="-3565.97" r="125" fill="#ff5f5f"><title>dwID: 383
gbidReward: ffffffff
bRootNode: true</title></circle>
<circle cx="-2375.36" cy="-6789.32" r="125" fill="#ff5f5f"><title>dwID: 384
gbidReward: ffffffff
bRootNode: true</title></circle>
<circle cx="16.2266" cy="-8953.24" r="125" fill="#ff5f5f"><title>dwID: 385
gbidReward: ffffffff
bRootNode: true</title></circle>
<circle cx="2033.73" cy="-1980.68" r="125" fill="#009aff"><title>dwID: 386
gbidReward: 73eb61a6
bRootNode: false</title></circle>
<circle cx="-4244.28" cy="-826.425" r="125" fill="#009aff"><title>dwID: 387
gbidReward: de81c131
bRootNode: false</title></circle>
<circle cx="1757.27" cy="-2572.43" r="125" fill="#009aff"><title>dwID: 388
gbidReward: de81c12f
bRootNode: false</title></circle>
<circle cx="-2377.4" cy="810.304" r="125" fill="#009aff"><title>dwID: 389
gbidReward: de81c129
bRootNode: false</title></circle>
<circle cx="-551.473" cy="-301.193" r="125" fill="#009aff"><title>dwID: 390
gbidReward: 511f1fb2
bRootNode: false</title></circle>
<circle cx="-3545.1" cy="-7131.54" r="125" fill="#009aff"><title>dwID: 391
gbidReward: de81c130
bRootNode: false</title></circle>
<circle cx="1345.7" cy="4648.46" r="125" fill="#009aff"><title>dwID: 392
gbidReward: de81c12b
bRootNode: false</title></circle>
<circle cx="-3291.78" cy="7653" r="125" fill="#009aff"><title>dwID: 393
gbidReward: 73ec7a69
bRootNode: false</title></circle>
<circle cx="715.987" cy="4646.08" r="125" fill="#009aff"><title>dwID: 394
gbidReward: de81c12c
bRootNode: false</title></circle>
<circle cx="-2033.19" cy="1399.59" r="125" fill="#009aff"><title>dwID: 395
gbidReward: 511fac14
bRootNode: false</title></circle>
<circle cx="-2376.88" cy="-7938.74" r="125" fill="#009aff"><title>dwID: 396
gbidReward: dd82fc19
bRootNode: false</title></circle>
<circle cx="-2059.38" cy="-9058.45" r="125" fill="#009aff"><title>dwID: 397
gbidReward: 8db046f6
bRootNode: false</title></circle>
<circle cx="-2683.55" cy="-9052.39" r="125" fill="#009aff"><title>dwID: 398
gbidReward: 8db046f5
bRootNode: false</title></circle>
<circle cx="-4320.79" cy="-1513.88" r="125" fill="#009aff"><title>dwID: 399
gbidReward: 1fe027d5
bRootNode: false</title></circle>
<circle cx="-3913.66" cy="-2035.43" r="125" fill="#009aff"><title>dwID: 400
gbidReward: 1fe027d6
bRootNode: false</title></circle>
<circle cx="-4418.73" cy="-5482.68" r="125" fill="#009aff"><title>dwID: 401
gbidReward: f23582d4
bRootNode: false</title></circle>
<circle cx="-4713.8" cy="-6022.28" r="125" fill="#009aff"><title>dwID: 402
gbidReward: f23582d3
bRootNode: false</title></circle>
<circle cx="2959.18" cy="1512.45" r="125" fill="#009aff"><title>dwID: 403
gbidReward: abbc7ed4
bRootNode: false</title></circle>
<circle cx="2382.32" cy="1077.09" r="125" fill="#009aff"><title>dwID: 404
gbidReward: abbc7ed5
bRootNode: false</title></circle>
<circle cx="-144.204" cy="-7105.62" r="125" fill="#009aff"><title>dwID: 405
gbidReward: 8e4579e6
bRootNode: false</title></circle>
<circle cx="-148.668" cy="-6492.46" r="125" fill="#009aff"><title>dwID: 406
gbidReward: 8e4579e7
bRootNode: false</title></circle>
<circle cx="3131.85" cy="-4638.33" r="125" fill="#009aff"><title>dwID: 407
gbidReward: 582f408d
bRootNode: false</title></circle>
<circle cx="3380.82" cy="-4111.79" r="125" fill="#009aff"><title>dwID: 408
gbidReward: 582f408e
bRootNode: false</title></circle>
<circle cx="2925.57" cy="4201.55" r="125" fill="#009aff"><title>dwID: 409
gbidReward: 5469df80
bRootNode: false</title></circle>
<circle cx="2540.34" cy="4690.81" r="125" fill="#009aff"><title>dwID: 410
gbidReward: 5469df81
bRootNode: false</title></circle>
<circle cx="-4163.94" cy="1490.85" r="125" fill="#009aff"><title>dwID: 411
gbidReward: 1cd4da1f
bRootNode: false</title></circle>
<circle cx="-3623.48" cy="1921.32" r="125" fill="#009aff"><title>dwID: 412
gbidReward: 1cd4da20
bRootNode: false</title></circle>
<circle cx="1338.32" cy="-5857.28" r="125" fill="#009aff"><title>dwID: 413
gbidReward: 4a8cf780
bRootNode: false</title></circle>
<circle cx="725.574" cy="-5854.2" r="125" fill="#009aff"><title>dwID: 414
gbidReward: 4a8cf77f
bRootNode: false</title></circle>
<circle cx="-4211.42" cy="-8320.66" r="125" fill="#009aff"><title>dwID: 415
gbidReward: e0e0d922
bRootNode: false</title></circle>
<circle cx="-3697.9" cy="-8757.33" r="125" fill="#009aff"><title>dwID: 416
gbidReward: e0e0d923
bRootNode: false</title></circle>
<circle cx="-1830.34" cy="-10159.2" r="125" fill="#009aff"><title>dwID: 417
gbidReward: bce37343
bRootNode: false</title></circle>
<circle cx="-1245.61" cy="-10348.2" r="125" fill="#009aff"><title>dwID: 418
gbidReward: bce37344
bRootNode: false</title></circle>
<circle cx="-2030.71" cy="-2436.3" r="125" fill="#009aff"><title>dwID: 419
gbidReward: 87c7daff
bRootNode: false</title></circle>
<circle cx="-2726.19" cy="-2447.48" r="125" fill="#009aff"><title>dwID: 420
gbidReward: 87c7db00
bRootNode: false</title></circle>
<circle cx="3168.63" cy="-2364.57" r="125" fill="#009aff"><title>dwID: 421
gbidReward: 61d3b1aa
bRootNode: false</title></circle>
<circle cx="3394.55" cy="-2937.32" r="125" fill="#009aff"><title>dwID: 422
gbidReward: 61d3b1ab
bRootNode: false</title></circle>
<circle cx="887.153" cy="-10903" r="125" fill="#009aff"><title>dwID: 423
gbidReward: 74ece35b
bRootNode: false</title></circle>
<circle cx="306.719" cy="-10905.4" r="125" fill="#009aff"><title>dwID: 424
gbidReward: 74ece35c
bRootNode: false</title></circle>
<circle cx="-3212.5" cy="-4516.66" r="125" fill="#009aff"><title>dwID: 425
gbidReward: 3624e9a0
bRootNode: false</title></circle>
<circle cx="-3802.93" cy="-4849.78" r="125" fill="#009aff"><title>dwID: 426
gbidReward: 3624e9a1
bRootNode: false</title></circle>
<circle cx="-4921.6" cy="437.98" r="125" fill="#009aff"><title>dwID: 427
gbidReward: 8a30dee7
bRootNode: false</title></circle>
<circle cx="-4669.87" cy="990.388" r="125" fill="#009aff"><title>dwID: 428
gbidReward: 8a30dee8
bRootNode: false</title></circle>
<circle cx="1293.83" cy="-10337" r="125" fill="#009aff"><title>dwID: 429
gbidReward: bba148e9
bRootNode: false</title></circle>
<circle cx="1908.86" cy="-10101.4" r="125" fill="#009aff"><title>dwID: 430
gbidReward: bba148ea
bRootNode: false</title></circle>
<circle cx="-1232.08" cy="2592.91" r="125" fill="#009aff"><title>dwID: 431
gbidReward: 396a9b7
bRootNode: false</title></circle>
<circle cx="-1232.7" cy="3281.92" r="125" fill="#009aff"><title>dwID: 432
gbidReward: 396a9b8
bRootNode: false</title></circle>
<circle cx="704.113" cy="-1320.47" r="125" fill="#009aff"><title>dwID: 433
gbidReward: b81211cc
bRootNode: false</title></circle>
<circle cx="1399.77" cy="-1328.31" r="125" fill="#009aff"><title>dwID: 434
gbidReward: b81211cd
bRootNode: false</title></circle>
<circle cx="-304.194" cy="-10902.5" r="125" fill="#009aff"><title>dwID: 435
gbidReward: 7f813b1c
bRootNode: false</title></circle>
<circle cx="-831.501" cy="-10889.1" r="125" fill="#009aff"><title>dwID: 436
gbidReward: 7f813b1b
bRootNode: false</title></circle>
<circle cx="3.45104" cy="8337.78" r="125" fill="#ff5f5f"><title>dwID: 437
gbidReward: ffffffff
bRootNode: true</title></circle>
<circle cx="-1220.74" cy="5875.43" r="125" fill="#009aff"><title>dwID: 438
gbidReward: 511e9353
bRootNode: false</title></circle>
<circle cx="834.735" cy="9323.09" r="125" fill="#009aff"><title>dwID: 439
gbidReward: 73ed932a
bRootNode: false</title></circle>
<circle cx="-847.814" cy="9346.61" r="125" fill="#009aff"><title>dwID: 440
gbidReward: 73ed9329
bRootNode: false</title></circle>
<circle cx="-3179.12" cy="5426.81" r="125" fill="#009aff"><title>dwID: 441
gbidReward: 511e9352
bRootNode: false</title></circle>
<circle cx="1766.63" cy="-4533.51" r="125" fill="#009aff"><title>dwID: 442
gbidReward: de81c12e
bRootNode: false</title></circle>
<circle cx="-2021.68" cy="-5667.36" r="125" fill="#009aff"><title>dwID: 443
gbidReward: 511e06f0
bRootNode: false</title></circle>
<circle cx="1033.49" cy="814.496" r="125" fill="#009aff"><title>dwID: 444
gbidReward: 511e9351
bRootNode: false</title></circle>
<circle cx="-4262.33" cy="-228.05" r="125" fill="#009aff"><title>dwID: 445
gbidReward: 73ec7a67
bRootNode: false</title></circle>
<circle cx="-3283.79" cy="6987.31" r="125" fill="#009aff"><title>dwID: 446
gbidReward: de81c12d
bRootNode: false</title></circle>
<circle cx="-671.365" cy="6137.26" r="125" fill="#009aff"><title>dwID: 447
gbidReward: 73ebee07
bRootNode: false</title></circle>
<circle cx="-3695.51" cy="-531.867" r="125" fill="#009aff"><title>dwID: 448
gbidReward: 73ebee06
bRootNode: false</title></circle>
<circle cx="-1232.41" cy="6410.56" r="125" fill="#009aff"><title>dwID: 449
gbidReward: de81c149
bRootNode: false</title></circle>
<circle cx="2034.05" cy="-5131.56" r="125" fill="#009aff"><title>dwID: 450
gbidReward: 73eb61a5
bRootNode: false</title></circle>
<circle cx="-1330.69" cy="8337.9" r="125" fill="#009aff"><title>dwID: 451
gbidReward: 51203874
bRootNode: false</title></circle>
<circle cx="1336.18" cy="8337.9" r="125" fill="#009aff"><title>dwID: 452
gbidReward: 51203873
bRootNode: false</title></circle>
<circle cx="643.982" cy="1259.44" r="125" fill="#009aff"><title>dwID: 453
gbidReward: 73ed06c9
bRootNode: false</title></circle>
<circle cx="-2717.5" cy="1397.82" r="125" fill="#009aff"><title>dwID: 454
gbidReward: 511fac13
bRootNode: false</title></circle>
<circle cx="2746.23" cy="2930.42" r="125" fill="#009aff"><title>dwID: 455
gbidReward: 511fac12
bRootNode: false</title></circle>
<circle cx="-3931.32" cy="6994.99" r="125" fill="#009aff"><title>dwID: 456
gbidReward: 73ec7a68
bRootNode: false</title></circle>
<circle cx="1034.4" cy="1718.23" r="125" fill="#009aff"><title>dwID: 457
gbidReward: 73ed06c8
bRootNode: false</title></circle>
<circle cx="1995" cy="2930.61" r="125" fill="#009aff"><title>dwID: 458
gbidReward: 511f1fb1
bRootNode: false</title></circle>
<circle cx="1034.1" cy="4118.24" r="125" fill="#009aff"><title>dwID: 459
gbidReward: 73ebee08
bRootNode: false</title></circle>
<circle cx="-1316.1" cy="-305.497" r="125" fill="#009aff"><title>dwID: 460
gbidReward: 511e06ef
bRootNode: false</title></circle>
<circle cx="-663.406" cy="6759.68" r="125" fill="#009aff"><title>dwID: 461
gbidReward: de81c12a
bRootNode: false</title></circle>
<circle cx="1440.88" cy="1244.23" r="125" fill="#009aff"><title>dwID: 462
gbidReward: 511f1fb3
bRootNode: false</title></circle>
<circle cx="-4823.03" cy="6155.52" r="125" fill="#009aff"><title>dwID: 463
gbidReward: 1994e04a
bRootNode: false</title></circle>
<circle cx="-2374.13" cy="3874.42" r="125" fill="#009aff"><title>dwID: 464
gbidReward: 52c01525
bRootNode: false</title></circle>
<circle cx="-4213.1" cy="6157.05" r="125" fill="#009aff"><title>dwID: 465
gbidReward: 1994e049
bRootNode: false</title></circle>
<circle cx="-2378.86" cy="8465.74" r="125" fill="#009aff"><title>dwID: 466
gbidReward: c3842cdc
bRootNode: false</title></circle>
<circle cx="-2382.43" cy="4452.8" r="125" fill="#009aff"><title>dwID: 467
gbidReward: 52c01524
bRootNode: false</title></circle>
<circle cx="-2380.56" cy="7853.99" r="125" fill="#009aff"><title>dwID: 468
gbidReward: c58e33e9
bRootNode: false</title></circle>
<circle cx="-2391.6" cy="5168.69" r="125" fill="#009aff"><title>dwID: 469
gbidReward: 22f9cd68
bRootNode: false</title></circle>
<circle cx="-3465.13" cy="6158.26" r="125" fill="#009aff"><title>dwID: 470
gbidReward: 32485ced
bRootNode: false</title></circle>
<circle cx="-2376.84" cy="7152.57" r="125" fill="#009aff"><title>dwID: 471
gbidReward: e5ba7742
bRootNode: false</title></circle>
<circle cx="-3682.01" cy="256.919" r="125" fill="#009aff"><title>dwID: 472
gbidReward: 5492db4b
bRootNode: false</title></circle>
<circle cx="-3182.5" cy="816.748" r="125" fill="#009aff"><title>dwID: 473
gbidReward: 83f9bc83
bRootNode: false</title></circle>
<circle cx="-3180.35" cy="-1057.53" r="125" fill="#009aff"><title>dwID: 474
gbidReward: 82c47079
bRootNode: false</title></circle>
<circle cx="1051.7" cy="-4656.59" r="125" fill="#009aff"><title>dwID: 475
gbidReward: adbd463
bRootNode: false</title></circle>
<circle cx="-22.6179" cy="2926.38" r="125" fill="#009aff"><title>dwID: 476
gbidReward: 1005ac9b
bRootNode: false</title></circle>
<circle cx="1850.54" cy="2138.45" r="125" fill="#009aff"><title>dwID: 477
gbidReward: 88fbaa18
bRootNode: false</title></circle>
<circle cx="-1339.69" cy="-6787.02" r="125" fill="#009aff"><title>dwID: 478
gbidReward: 83fd086a
bRootNode: false</title></circle>
<circle cx="1866.65" cy="3708.91" r="125" fill="#009aff"><title>dwID: 479
gbidReward: dc373444
bRootNode: false</title></circle>
<circle cx="-2383.03" cy="-1293.83" r="125" fill="#009aff"><title>dwID: 480
gbidReward: 83f94163
bRootNode: false</title></circle>
<circle cx="1139.7" cy="-9289.62" r="125" fill="#009aff"><title>dwID: 481
gbidReward: 83f6900d
bRootNode: false</title></circle>
<circle cx="1045.43" cy="-2462.06" r="125" fill="#009aff"><title>dwID: 482
gbidReward: ba91d790
bRootNode: false</title></circle>
<circle cx="438.05" cy="-9845.37" r="125" fill="#009aff"><title>dwID: 483
gbidReward: 5c496d3f
bRootNode: false</title></circle>
<circle cx="2185.4" cy="-3946.86" r="125" fill="#009aff"><title>dwID: 484
gbidReward: 2f66c5b1
bRootNode: false</title></circle>
<circle cx="2188.87" cy="-3119.34" r="125" fill="#009aff"><title>dwID: 485
gbidReward: 706ec9ae
bRootNode: false</title></circle>
<circle cx="-3544.44" cy="-6252.75" r="125" fill="#009aff"><title>dwID: 486
gbidReward: d88fa0b7
bRootNode: false</title></circle>
<circle cx="-1099.25" cy="-9295.15" r="125" fill="#009aff"><title>dwID: 487
gbidReward: e9585ea7
bRootNode: false</title></circle>
<circle cx="-3212.84" cy="-7711.08" r="125" fill="#009aff"><title>dwID: 488
gbidReward: cb1766a6
bRootNode: false</title></circle>
<circle cx="-394.741" cy="-9840.34" r="125" fill="#009aff"><title>dwID: 489
gbidReward: 83f431ff
bRootNode: false</title></circle>
<circle cx="-2919.01" cy="-5694.63" r="125" fill="#009aff"><title>dwID: 490
gbidReward: 9101564
bRootNode: false</title></circle>
<circle cx="-537.404" cy="-10505.7" r="125" fill="#009aff"><title>dwID: 491
gbidReward: 762ac5bd
bRootNode: false</title></circle>
<circle cx="1458.73" cy="-9900.71" r="125" fill="#009aff"><title>dwID: 492
gbidReward: 364c8d4b
bRootNode: false</title></circle>
<circle cx="-1358.55" cy="-9903.84" r="125" fill="#009aff"><title>dwID: 494
gbidReward: 5fd402e5
bRootNode: false</title></circle>
<circle cx="587.226" cy="-10525.7" r="125" fill="#009aff"><title>dwID: 495
gbidReward: 190b75fd
bRootNode: false</title></circle>
<circle cx="-3685.35" cy="-8258.93" r="125" fill="#009aff"><title>dwID: 496
gbidReward: 37e24a4
bRootNode: false</title></circle>
<circle cx="-568.809" cy="-6785.3" r="125" fill="#009aff"><title>dwID: 497
gbidReward: 5d76dde8
bRootNode: false</title></circle>
<circle cx="-2373.61" cy="-8686.72" r="125" fill="#009aff"><title>dwID: 498
gbidReward: 4a3b4cd7
bRootNode: false</title></circle>
<circle cx="-3291.7" cy="-5028.16" r="125" fill="#009aff"><title>dwID: 499
gbidReward: 14444e2
bRootNode: false</title></circle>
<circle cx="-4181.91" cy="-5963.72" r="125" fill="#009aff"><title>dwID: 500
gbidReward: 3f680475
bRootNode: false</title></circle>
<circle cx="1037.88" cy="-5408.84" r="125" fill="#009aff"><title>dwID: 501
gbidReward: a2ae0ea1
bRootNode: false</title></circle>
<circle cx="1046.02" cy="-1731.46" r="125" fill="#009aff"><title>dwID: 502
gbidReward: c0d6728e
bRootNode: false</title></circle>
<circle cx="2879.47" cy="-2777" r="125" fill="#009aff"><title>dwID: 503
gbidReward: a2cc0e2c
bRootNode: false</title></circle>
<circle cx="2859.98" cy="-4232.27" r="125" fill="#009aff"><title>dwID: 504
gbidReward: 6499796f
bRootNode: false</title></circle>
<circle cx="-3773.63" cy="-1520.85" r="125" fill="#009aff"><title>dwID: 505
gbidReward: 226749b7
bRootNode: false</title></circle>
<circle cx="2379.13" cy="1581" r="125" fill="#009aff"><title>dwID: 507
gbidReward: 29ce8096
bRootNode: false</title></circle>
<circle cx="-3623.82" cy="1388.87" r="125" fill="#009aff"><title>dwID: 508
gbidReward: bdf24541
bRootNode: false</title></circle>
<circle cx="-4401.31" cy="530.711" r="125" fill="#009aff"><title>dwID: 509
gbidReward: d6cee309
bRootNode: false</title></circle>
<circle cx="-812.446" cy="2926.95" r="125" fill="#009aff"><title>dwID: 510
gbidReward: 7cee07d9
bRootNode: false</title></circle>
<circle cx="2405.91" cy="4181.17" r="125" fill="#009aff"><title>dwID: 511
gbidReward: e827f6c2
bRootNode: false</title></circle>
<circle cx="-2382.7" cy="-2026.51" r="125" fill="#009aff"><title>dwID: 512
gbidReward: 87456221
bRootNode: false</title></circle>
</svg>