<svg viewBox="-5221.6 -11205.386666666665 8916.150000000001 20852" xmlns="http://www.w3.org/2000/svg">
<style>
  svg {
    background-color: black;
  }
</style>
<line x1="-2386.53" y1="6165.066666666667" x2="-2391.6" y2="5168.693333333333" stroke="#dfdfdf" stroke-width="20" /><line x1="-2386.53" y1="6165.066666666667" x2="-3465.13" y2="6158.257777777778" stroke="#dfdfdf" stroke-width="20" /><line x1="-2386.53" y1="6165.066666666667" x2="-3179.12" y2="5426.808888888889" stroke="#dfdfdf" stroke-width="20" /><line x1="-2386.53" y1="6165.066666666667" x2="-2376.84" y2="7152.568888888889" stroke="#dfdfdf" stroke-width="20" /><line x1="-2386.53" y1="6165.066666666667" x2="-3283.79" y2="6987.306666666666" stroke="#dfdfdf" stroke-width="20" /><line x1="-2386.53" y1="6165.066666666667" x2="-1232.41" y2="6410.5599999999995" stroke="#dfdfdf" stroke-width="20" /><line x1="-2386.53" y1="6165.066666666667" x2="-1220.74" y2="5875.43111111111" stroke="#dfdfdf" stroke-width="20" /><line x1="1033.66" y1="2928.9955555555553" x2="1866.65" y2="3708.9066666666668" stroke="#dfdfdf" stroke-width="20" /><line x1="1033.66" y1="2928.9955555555553" x2="1034.1" y2="4118.24" stroke="#dfdfdf" stroke-width="20" /><line x1="1033.66" y1="2928.9955555555553" x2="-22.6179" y2="2926.382222222222" stroke="#dfdfdf" stroke-width="20" /><line x1="1033.66" y1="2928.9955555555553" x2="1034.4" y2="1718.2275555555555" stroke="#dfdfdf" stroke-width="20" /><line x1="1033.66" y1="2928.9955555555553" x2="1850.54" y2="2138.4533333333334" stroke="#dfdfdf" stroke-width="20" /><line x1="1033.66" y1="2928.9955555555553" x2="1995" y2="2930.6133333333332" stroke="#dfdfdf" stroke-width="20" /><line x1="-2376.63" y1="-306.75555555555553" x2="-3682.01" y2="256.9191111111111" stroke="#dfdfdf" stroke-width="20" /><line x1="-2376.63" y1="-306.75555555555553" x2="-3180.35" y2="-1057.5324444444443" stroke="#dfdfdf" stroke-width="20" /><line x1="-2376.63" y1="-306.75555555555553" x2="-3695.51" y2="-531.8666666666667" stroke="#dfdfdf" stroke-width="20" /><line x1="-2376.63" y1="-306.75555555555553" x2="-3182.5" y2="816.7484444444444" stroke="#dfdfdf" stroke-width="20" /><line x1="-2376.63" y1="-306.75555555555553" x2="-2383.03" y2="-1293.8257777777778" stroke="#dfdfdf" stroke-width="20" /><line x1="-2376.63" y1="-306.75555555555553" x2="-2377.4" y2="810.304" stroke="#dfdfdf" stroke-width="20" /><line x1="-2376.63" y1="-306.75555555555553" x2="-1316.1" y2="-305.4968888888889" stroke="#dfdfdf" stroke-width="20" /><line x1="1042.35" y1="-3565.973333333333" x2="1045.43" y2="-2462.0622222222223" stroke="#dfdfdf" stroke-width="20" /><line x1="1042.35" y1="-3565.973333333333" x2="2188.87" y2="-3119.342222222222" stroke="#dfdfdf" stroke-width="20" /><line x1="1042.35" y1="-3565.973333333333" x2="1757.27" y2="-2572.4266666666667" stroke="#dfdfdf" stroke-width="20" /><line x1="1042.35" y1="-3565.973333333333" x2="1051.7" y2="-4656.586666666666" stroke="#dfdfdf" stroke-width="20" /><line x1="1042.35" y1="-3565.973333333333" x2="2185.4" y2="-3946.862222222222" stroke="#dfdfdf" stroke-width="20" /><line x1="1042.35" y1="-3565.973333333333" x2="1766.63" y2="-4533.511111111111" stroke="#dfdfdf" stroke-width="20" /><line x1="-2375.36" y1="-6789.315555555555" x2="-3212.84" y2="-7711.075555555554" stroke="#dfdfdf" stroke-width="20" /><line x1="-2375.36" y1="-6789.315555555555" x2="-3544.44" y2="-6252.746666666667" stroke="#dfdfdf" stroke-width="20" /><line x1="-2375.36" y1="-6789.315555555555" x2="-2919.01" y2="-5694.631111111111" stroke="#dfdfdf" stroke-width="20" /><line x1="-2375.36" y1="-6789.315555555555" x2="-3545.1" y2="-7131.537777777777" stroke="#dfdfdf" stroke-width="20" /><line x1="-2375.36" y1="-6789.315555555555" x2="-1339.69" y2="-6787.022222222222" stroke="#dfdfdf" stroke-width="20" /><line x1="-2375.36" y1="-6789.315555555555" x2="-2376.88" y2="-7938.737777777777" stroke="#dfdfdf" stroke-width="20" /><line x1="-2375.36" y1="-6789.315555555555" x2="-2021.68" y2="-5667.36" stroke="#dfdfdf" stroke-width="20" /><line x1="16.2266" y1="-8953.244444444445" x2="-394.741" y2="-9840.337777777777" stroke="#dfdfdf" stroke-width="20" /><line x1="16.2266" y1="-8953.244444444445" x2="-1099.25" y2="-9295.146666666667" stroke="#dfdfdf" stroke-width="20" /><line x1="16.2266" y1="-8953.244444444445" x2="438.05" y2="-9845.368888888888" stroke="#dfdfdf" stroke-width="20" /><line x1="16.2266" y1="-8953.244444444445" x2="1139.7" y2="-9289.617777777778" stroke="#dfdfdf" stroke-width="20" /><line x1="2033.73" y1="-1980.6755555555555" x2="1757.27" y2="-2572.4266666666667" stroke="#dfdfdf" stroke-width="20" /><line x1="-4244.28" y1="-826.4248888888887" x2="-3695.51" y2="-531.8666666666667" stroke="#dfdfdf" stroke-width="20" /><line x1="-2377.4" y1="810.304" x2="-2033.19" y2="1399.5928888888886" stroke="#dfdfdf" stroke-width="20" /><line x1="-2377.4" y1="810.304" x2="-2717.5" y2="1397.8186666666666" stroke="#dfdfdf" stroke-width="20" /><line x1="-551.473" y1="-301.19288888888883" x2="-1316.1" y2="-305.4968888888889" stroke="#dfdfdf" stroke-width="20" /><line x1="1345.7" y1="4648.462222222222" x2="1034.1" y2="4118.24" stroke="#dfdfdf" stroke-width="20" /><line x1="-3291.78" y1="7652.995555555556" x2="-3283.79" y2="6987.306666666666" stroke="#dfdfdf" stroke-width="20" /><line x1="715.987" y1="4646.08" x2="1034.1" y2="4118.24" stroke="#dfdfdf" stroke-width="20" /><line x1="-2376.88" y1="-7938.737777777777" x2="-2373.61" y2="-8686.72" stroke="#dfdfdf" stroke-width="20" /><line x1="-2059.38" y1="-9058.453333333333" x2="-2373.61" y2="-8686.72" stroke="#dfdfdf" stroke-width="20" /><line x1="-2683.55" y1="-9052.391111111112" x2="-2373.61" y2="-8686.72" stroke="#dfdfdf" stroke-width="20" /><line x1="-4320.79" y1="-1513.8791111111111" x2="-3773.63" y2="-1520.8515555555555" stroke="#dfdfdf" stroke-width="20" /><line x1="-3913.66" y1="-2035.431111111111" x2="-3773.63" y2="-1520.8515555555555" stroke="#dfdfdf" stroke-width="20" /><line x1="-4418.73" y1="-5482.684444444444" x2="-4181.91" y2="-5963.7155555555555" stroke="#dfdfdf" stroke-width="20" /><line x1="-4713.8" y1="-6022.275555555556" x2="-4181.91" y2="-5963.7155555555555" stroke="#dfdfdf" stroke-width="20" /><line x1="2959.18" y1="1512.4515555555556" x2="2379.13" y2="1580.9955555555555" stroke="#dfdfdf" stroke-width="20" /><line x1="2382.32" y1="1077.0933333333332" x2="2379.13" y2="1580.9955555555555" stroke="#dfdfdf" stroke-width="20" /><line x1="-144.204" y1="-7105.6177777777775" x2="-568.809" y2="-6785.297777777778" stroke="#dfdfdf" stroke-width="20" /><line x1="-148.668" y1="-6492.462222222222" x2="-568.809" y2="-6785.297777777778" stroke="#dfdfdf" stroke-width="20" /><line x1="3131.85" y1="-4638.328888888888" x2="2859.98" y2="-4232.266666666666" stroke="#dfdfdf" stroke-width="20" /><line x1="3380.82" y1="-4111.786666666667" x2="2859.98" y2="-4232.266666666666" stroke="#dfdfdf" stroke-width="20" /><line x1="2925.57" y1="4201.546666666666" x2="2405.91" y2="4181.173333333333" stroke="#dfdfdf" stroke-width="20" /><line x1="2540.34" y1="4690.808888888889" x2="2405.91" y2="4181.173333333333" stroke="#dfdfdf" stroke-width="20" /><line x1="-4163.94" y1="1490.8497777777777" x2="-3623.82" y2="1388.8728888888888" stroke="#dfdfdf" stroke-width="20" /><line x1="-3623.48" y1="1921.3155555555554" x2="-3623.82" y2="1388.8728888888888" stroke="#dfdfdf" stroke-width="20" /><line x1="1338.32" y1="-5857.28" x2="1037.88" y2="-5408.8355555555545" stroke="#dfdfdf" stroke-width="20" /><line x1="725.574" y1="-5854.204444444444" x2="1037.88" y2="-5408.8355555555545" stroke="#dfdfdf" stroke-width="20" /><line x1="-4211.42" y1="-8320.657777777777" x2="-3685.35" y2="-8258.933333333332" stroke="#dfdfdf" stroke-width="20" /><line x1="-3697.9" y1="-8757.333333333332" x2="-3685.35" y2="-8258.933333333332" stroke="#dfdfdf" stroke-width="20" /><line x1="-1830.34" y1="-10159.217777777778" x2="-1358.55" y2="-9903.839999999998" stroke="#dfdfdf" stroke-width="20" /><line x1="-1245.61" y1="-10348.16" x2="-1358.55" y2="-9903.839999999998" stroke="#dfdfdf" stroke-width="20" /><line x1="-2030.71" y1="-2436.302222222222" x2="-2382.7" y2="-2026.5066666666667" stroke="#dfdfdf" stroke-width="20" /><line x1="-2726.19" y1="-2447.4844444444443" x2="-2382.7" y2="-2026.5066666666667" stroke="#dfdfdf" stroke-width="20" /><line x1="3168.63" y1="-2364.5688888888885" x2="2879.47" y2="-2776.9955555555553" stroke="#dfdfdf" stroke-width="20" /><line x1="3394.55" y1="-2937.3155555555554" x2="2879.47" y2="-2776.9955555555553" stroke="#dfdfdf" stroke-width="20" /><line x1="887.153" y1="-10902.95111111111" x2="587.226" y2="-10525.653333333334" stroke="#dfdfdf" stroke-width="20" /><line x1="306.719" y1="-10905.386666666665" x2="587.226" y2="-10525.653333333334" stroke="#dfdfdf" stroke-width="20" /><line x1="-3212.5" y1="-4516.6577777777775" x2="-3291.7" y2="-5028.16" stroke="#dfdfdf" stroke-width="20" /><line x1="-3802.93" y1="-4849.777777777777" x2="-3291.7" y2="-5028.16" stroke="#dfdfdf" stroke-width="20" /><line x1="-4921.6" y1="437.9804444444444" x2="-4401.31" y2="530.711111111111" stroke="#dfdfdf" stroke-width="20" /><line x1="-4669.87" y1="990.3875555555554" x2="-4401.31" y2="530.711111111111" stroke="#dfdfdf" stroke-width="20" /><line x1="1293.83" y1="-10336.977777777778" x2="1458.73" y2="-9900.71111111111" stroke="#dfdfdf" stroke-width="20" /><line x1="1908.86" y1="-10101.422222222222" x2="1458.73" y2="-9900.71111111111" stroke="#dfdfdf" stroke-width="20" /><line x1="-1232.08" y1="2592.9066666666663" x2="-812.446" y2="2926.951111111111" stroke="#dfdfdf" stroke-width="20" /><line x1="-1232.7" y1="3281.9199999999996" x2="-812.446" y2="2926.951111111111" stroke="#dfdfdf" stroke-width="20" /><line x1="704.113" y1="-1320.471111111111" x2="1046.02" y2="-1731.4648888888887" stroke="#dfdfdf" stroke-width="20" /><line x1="1399.77" y1="-1328.3146666666667" x2="1046.02" y2="-1731.4648888888887" stroke="#dfdfdf" stroke-width="20" /><line x1="-304.194" y1="-10902.453333333333" x2="-537.404" y2="-10505.706666666667" stroke="#dfdfdf" stroke-width="20" /><line x1="-831.501" y1="-10889.084444444443" x2="-537.404" y2="-10505.706666666667" stroke="#dfdfdf" stroke-width="20" /><line x1="3.45104" y1="8337.777777777777" x2="-1330.69" y2="8337.902222222221" stroke="#dfdfdf" stroke-width="20" /><line x1="3.45104" y1="8337.777777777777" x2="1336.18" y2="8337.902222222221" stroke="#dfdfdf" stroke-width="20" /><line x1="3.45104" y1="8337.777777777777" x2="834.735" y2="9323.093333333332" stroke="#dfdfdf" stroke-width="20" /><line x1="3.45104" y1="8337.777777777777" x2="-847.814" y2="9346.613333333333" stroke="#dfdfdf" stroke-width="20" /><line x1="-1220.74" y1="5875.43111111111" x2="-671.365" y2="6137.262222222222" stroke="#dfdfdf" stroke-width="20" /><line x1="1766.63" y1="-4533.511111111111" x2="2034.05" y2="-5131.555555555556" stroke="#dfdfdf" stroke-width="20" /><line x1="1033.49" y1="814.496" x2="643.982" y2="1259.4399999999998" stroke="#dfdfdf" stroke-width="20" /><line x1="1033.49" y1="814.496" x2="1440.88" y2="1244.231111111111" stroke="#dfdfdf" stroke-width="20" /><line x1="-4262.33" y1="-228.04977777777776" x2="-3695.51" y2="-531.8666666666667" stroke="#dfdfdf" stroke-width="20" /><line x1="-3283.79" y1="6987.306666666666" x2="-3931.32" y2="6994.986666666666" stroke="#dfdfdf" stroke-width="20" /><line x1="-671.365" y1="6137.262222222222" x2="-1232.41" y2="6410.5599999999995" stroke="#dfdfdf" stroke-width="20" /><line x1="-1232.41" y1="6410.5599999999995" x2="-663.406" y2="6759.68" stroke="#dfdfdf" stroke-width="20" /><line x1="643.982" y1="1259.4399999999998" x2="1034.4" y2="1718.2275555555555" stroke="#dfdfdf" stroke-width="20" /><line x1="2746.23" y1="2930.4177777777772" x2="1995" y2="2930.6133333333332" stroke="#dfdfdf" stroke-width="20" /><line x1="1034.4" y1="1718.2275555555555" x2="1440.88" y2="1244.231111111111" stroke="#dfdfdf" stroke-width="20" /><line x1="-4823.03" y1="6155.5199999999995" x2="-4213.1" y2="6157.0488888888885" stroke="#dfdfdf" stroke-width="20" /><line x1="-2374.13" y1="3874.4177777777777" x2="-2382.43" y2="4452.799999999999" stroke="#dfdfdf" stroke-width="20" /><line x1="-4213.1" y1="6157.0488888888885" x2="-3465.13" y2="6158.257777777778" stroke="#dfdfdf" stroke-width="20" /><line x1="-2378.86" y1="8465.742222222221" x2="-2380.56" y2="7853.9911111111105" stroke="#dfdfdf" stroke-width="20" /><line x1="-2382.43" y1="4452.799999999999" x2="-2391.6" y2="5168.693333333333" stroke="#dfdfdf" stroke-width="20" /><line x1="-2380.56" y1="7853.9911111111105" x2="-2376.84" y2="7152.568888888889" stroke="#dfdfdf" stroke-width="20" /><line x1="-3682.01" y1="256.9191111111111" x2="-4401.31" y2="530.711111111111" stroke="#dfdfdf" stroke-width="20" /><line x1="-3182.5" y1="816.7484444444444" x2="-3623.82" y2="1388.8728888888888" stroke="#dfdfdf" stroke-width="20" /><line x1="-3180.35" y1="-1057.5324444444443" x2="-3773.63" y2="-1520.8515555555555" stroke="#dfdfdf" stroke-width="20" /><line x1="1051.7" y1="-4656.586666666666" x2="1037.88" y2="-5408.8355555555545" stroke="#dfdfdf" stroke-width="20" /><line x1="-22.6179" y1="2926.382222222222" x2="-812.446" y2="2926.951111111111" stroke="#dfdfdf" stroke-width="20" /><line x1="1850.54" y1="2138.4533333333334" x2="2379.13" y2="1580.9955555555555" stroke="#dfdfdf" stroke-width="20" /><line x1="-1339.69" y1="-6787.022222222222" x2="-568.809" y2="-6785.297777777778" stroke="#dfdfdf" stroke-width="20" /><line x1="1866.65" y1="3708.9066666666668" x2="2405.91" y2="4181.173333333333" stroke="#dfdfdf" stroke-width="20" /><line x1="-2383.03" y1="-1293.8257777777778" x2="-2382.7" y2="-2026.5066666666667" stroke="#dfdfdf" stroke-width="20" /><line x1="1139.7" y1="-9289.617777777778" x2="1458.73" y2="-9900.71111111111" stroke="#dfdfdf" stroke-width="20" /><line x1="1045.43" y1="-2462.0622222222223" x2="1046.02" y2="-1731.4648888888887" stroke="#dfdfdf" stroke-width="20" /><line x1="438.05" y1="-9845.368888888888" x2="587.226" y2="-10525.653333333334" stroke="#dfdfdf" stroke-width="20" /><line x1="2185.4" y1="-3946.862222222222" x2="2859.98" y2="-4232.266666666666" stroke="#dfdfdf" stroke-width="20" /><line x1="2188.87" y1="-3119.342222222222" x2="2879.47" y2="-2776.9955555555553" stroke="#dfdfdf" stroke-width="20" /><line x1="-3544.44" y1="-6252.746666666667" x2="-4181.91" y2="-5963.7155555555555" stroke="#dfdfdf" stroke-width="20" /><line x1="-1099.25" y1="-9295.146666666667" x2="-1358.55" y2="-9903.839999999998" stroke="#dfdfdf" stroke-width="20" /><line x1="-3212.84" y1="-7711.075555555554" x2="-3685.35" y2="-8258.933333333332" stroke="#dfdfdf" stroke-width="20" /><line x1="-394.741" y1="-9840.337777777777" x2="-537.404" y2="-10505.706666666667" stroke="#dfdfdf" stroke-width="20" /><line x1="-2919.01" y1="-5694.631111111111" x2="-3291.7" y2="-5028.16" stroke="#dfdfdf" stroke-width="20" /><circle cx="-2386.53" cy="6165.066666666667" r="125" fill="#ff5f5f" /><circle cx="1033.66" cy="2928.9955555555553" r="125" fill="#ff5f5f" /><circle cx="-2376.63" cy="-306.75555555555553" r="125" fill="#ff5f5f" /><circle cx="1042.35" cy="-3565.973333333333" r="125" fill="#ff5f5f" /><circle cx="-2375.36" cy="-6789.315555555555" r="125" fill="#ff5f5f" /><circle cx="16.2266" cy="-8953.244444444445" r="125" fill="#ff5f5f" /><circle cx="2033.73" cy="-1980.6755555555555" r="125" fill="#009aff" /><circle cx="-4244.28" cy="-826.4248888888887" r="125" fill="#009aff" /><circle cx="1757.27" cy="-2572.4266666666667" r="125" fill="#009aff" /><circle cx="-2377.4" cy="810.304" r="125" fill="#009aff" /><circle cx="-551.473" cy="-301.19288888888883" r="125" fill="#009aff" /><circle cx="-3545.1" cy="-7131.537777777777" r="125" fill="#009aff" /><circle cx="1345.7" cy="4648.462222222222" r="125" fill="#009aff" /><circle cx="-3291.78" cy="7652.995555555556" r="125" fill="#009aff" /><circle cx="715.987" cy="4646.08" r="125" fill="#009aff" /><circle cx="-2033.19" cy="1399.5928888888886" r="125" fill="#009aff" /><circle cx="-2376.88" cy="-7938.737777777777" r="125" fill="#009aff" /><circle cx="-2059.38" cy="-9058.453333333333" r="125" fill="#009aff" /><circle cx="-2683.55" cy="-9052.391111111112" r="125" fill="#009aff" /><circle cx="-4320.79" cy="-1513.8791111111111" r="125" fill="#009aff" /><circle cx="-3913.66" cy="-2035.431111111111" r="125" fill="#009aff" /><circle cx="-4418.73" cy="-5482.684444444444" r="125" fill="#009aff" /><circle cx="-4713.8" cy="-6022.275555555556" r="125" fill="#009aff" /><circle cx="2959.18" cy="1512.4515555555556" r="125" fill="#009aff" /><circle cx="2382.32" cy="1077.0933333333332" r="125" fill="#009aff" /><circle cx="-144.204" cy="-7105.6177777777775" r="125" fill="#009aff" /><circle cx="-148.668" cy="-6492.462222222222" r="125" fill="#009aff" /><circle cx="3131.85" cy="-4638.328888888888" r="125" fill="#009aff" /><circle cx="3380.82" cy="-4111.786666666667" r="125" fill="#009aff" /><circle cx="2925.57" cy="4201.546666666666" r="125" fill="#009aff" /><circle cx="2540.34" cy="4690.808888888889" r="125" fill="#009aff" /><circle cx="-4163.94" cy="1490.8497777777777" r="125" fill="#009aff" /><circle cx="-3623.48" cy="1921.3155555555554" r="125" fill="#009aff" /><circle cx="1338.32" cy="-5857.28" r="125" fill="#009aff" /><circle cx="725.574" cy="-5854.204444444444" r="125" fill="#009aff" /><circle cx="-4211.42" cy="-8320.657777777777" r="125" fill="#009aff" /><circle cx="-3697.9" cy="-8757.333333333332" r="125" fill="#009aff" /><circle cx="-1830.34" cy="-10159.217777777778" r="125" fill="#009aff" /><circle cx="-1245.61" cy="-10348.16" r="125" fill="#009aff" /><circle cx="-2030.71" cy="-2436.302222222222" r="125" fill="#009aff" /><circle cx="-2726.19" cy="-2447.4844444444443" r="125" fill="#009aff" /><circle cx="3168.63" cy="-2364.5688888888885" r="125" fill="#009aff" /><circle cx="3394.55" cy="-2937.3155555555554" r="125" fill="#009aff" /><circle cx="887.153" cy="-10902.95111111111" r="125" fill="#009aff" /><circle cx="306.719" cy="-10905.386666666665" r="125" fill="#009aff" /><circle cx="-3212.5" cy="-4516.6577777777775" r="125" fill="#009aff" /><circle cx="-3802.93" cy="-4849.777777777777" r="125" fill="#009aff" /><circle cx="-4921.6" cy="437.9804444444444" r="125" fill="#009aff" /><circle cx="-4669.87" cy="990.3875555555554" r="125" fill="#009aff" /><circle cx="1293.83" cy="-10336.977777777778" r="125" fill="#009aff" /><circle cx="1908.86" cy="-10101.422222222222" r="125" fill="#009aff" /><circle cx="-1232.08" cy="2592.9066666666663" r="125" fill="#009aff" /><circle cx="-1232.7" cy="3281.9199999999996" r="125" fill="#009aff" /><circle cx="704.113" cy="-1320.471111111111" r="125" fill="#009aff" /><circle cx="1399.77" cy="-1328.3146666666667" r="125" fill="#009aff" /><circle cx="-304.194" cy="-10902.453333333333" r="125" fill="#009aff" /><circle cx="-831.501" cy="-10889.084444444443" r="125" fill="#009aff" /><circle cx="3.45104" cy="8337.777777777777" r="125" fill="#ff5f5f" /><circle cx="-1220.74" cy="5875.43111111111" r="125" fill="#009aff" /><circle cx="834.735" cy="9323.093333333332" r="125" fill="#009aff" /><circle cx="-847.814" cy="9346.613333333333" r="125" fill="#009aff" /><circle cx="-3179.12" cy="5426.808888888889" r="125" fill="#009aff" /><circle cx="1766.63" cy="-4533.511111111111" r="125" fill="#009aff" /><circle cx="-2021.68" cy="-5667.36" r="125" fill="#009aff" /><circle cx="1033.49" cy="814.496" r="125" fill="#009aff" /><circle cx="-4262.33" cy="-228.04977777777776" r="125" fill="#009aff" /><circle cx="-3283.79" cy="6987.306666666666" r="125" fill="#009aff" /><circle cx="-671.365" cy="6137.262222222222" r="125" fill="#009aff" /><circle cx="-3695.51" cy="-531.8666666666667" r="125" fill="#009aff" /><circle cx="-1232.41" cy="6410.5599999999995" r="125" fill="#009aff" /><circle cx="2034.05" cy="-5131.555555555556" r="125" fill="#009aff" /><circle cx="-1330.69" cy="8337.902222222221" r="125" fill="#009aff" /><circle cx="1336.18" cy="8337.902222222221" r="125" fill="#009aff" /><circle cx="643.982" cy="1259.4399999999998" r="125" fill="#009aff" /><circle cx="-2717.5" cy="1397.8186666666666" r="125" fill="#009aff" /><circle cx="2746.23" cy="2930.4177777777772" r="125" fill="#009aff" /><circle cx="-3931.32" cy="6994.986666666666" r="125" fill="#009aff" /><circle cx="1034.4" cy="1718.2275555555555" r="125" fill="#009aff" /><circle cx="1995" cy="2930.6133333333332" r="125" fill="#009aff" /><circle cx="1034.1" cy="4118.24" r="125" fill="#009aff" /><circle cx="-1316.1" cy="-305.4968888888889" r="125" fill="#009aff" /><circle cx="-663.406" cy="6759.68" r="125" fill="#009aff" /><circle cx="1440.88" cy="1244.231111111111" r="125" fill="#009aff" /><circle cx="-4823.03" cy="6155.5199999999995" r="125" fill="#009aff" /><circle cx="-2374.13" cy="3874.4177777777777" r="125" fill="#009aff" /><circle cx="-4213.1" cy="6157.0488888888885" r="125" fill="#009aff" /><circle cx="-2378.86" cy="8465.742222222221" r="125" fill="#009aff" /><circle cx="-2382.43" cy="4452.799999999999" r="125" fill="#009aff" /><circle cx="-2380.56" cy="7853.9911111111105" r="125" fill="#009aff" /><circle cx="-2391.6" cy="5168.693333333333" r="125" fill="#009aff" /><circle cx="-3465.13" cy="6158.257777777778" r="125" fill="#009aff" /><circle cx="-2376.84" cy="7152.568888888889" r="125" fill="#009aff" /><circle cx="-3682.01" cy="256.9191111111111" r="125" fill="#009aff" /><circle cx="-3182.5" cy="816.7484444444444" r="125" fill="#009aff" /><circle cx="-3180.35" cy="-1057.5324444444443" r="125" fill="#009aff" /><circle cx="1051.7" cy="-4656.586666666666" r="125" fill="#009aff" /><circle cx="-22.6179" cy="2926.382222222222" r="125" fill="#009aff" /><circle cx="1850.54" cy="2138.4533333333334" r="125" fill="#009aff" /><circle cx="-1339.69" cy="-6787.022222222222" r="125" fill="#009aff" /><circle cx="1866.65" cy="3708.9066666666668" r="125" fill="#009aff" /><circle cx="-2383.03" cy="-1293.8257777777778" r="125" fill="#009aff" /><circle cx="1139.7" cy="-9289.617777777778" r="125" fill="#009aff" /><circle cx="1045.43" cy="-2462.0622222222223" r="125" fill="#009aff" /><circle cx="438.05" cy="-9845.368888888888" r="125" fill="#009aff" /><circle cx="2185.4" cy="-3946.862222222222" r="125" fill="#009aff" /><circle cx="2188.87" cy="-3119.342222222222" r="125" fill="#009aff" /><circle cx="-3544.44" cy="-6252.746666666667" r="125" fill="#009aff" /><circle cx="-1099.25" cy="-9295.146666666667" r="125" fill="#009aff" /><circle cx="-3212.84" cy="-7711.075555555554" r="125" fill="#009aff" /><circle cx="-394.741" cy="-9840.337777777777" r="125" fill="#009aff" /><circle cx="-2919.01" cy="-5694.631111111111" r="125" fill="#009aff" /><circle cx="-537.404" cy="-10505.706666666667" r="125" fill="#009aff" /><circle cx="1458.73" cy="-9900.71111111111" r="125" fill="#009aff" /><circle cx="-1358.55" cy="-9903.839999999998" r="125" fill="#009aff" /><circle cx="587.226" cy="-10525.653333333334" r="125" fill="#009aff" /><circle cx="-3685.35" cy="-8258.933333333332" r="125" fill="#009aff" /><circle cx="-568.809" cy="-6785.297777777778" r="125" fill="#009aff" /><circle cx="-2373.61" cy="-8686.72" r="125" fill="#009aff" /><circle cx="-3291.7" cy="-5028.16" r="125" fill="#009aff" /><circle cx="-4181.91" cy="-5963.7155555555555" r="125" fill="#009aff" /><circle cx="1037.88" cy="-5408.8355555555545" r="125" fill="#009aff" /><circle cx="1046.02" cy="-1731.4648888888887" r="125" fill="#009aff" /><circle cx="2879.47" cy="-2776.9955555555553" r="125" fill="#009aff" /><circle cx="2859.98" cy="-4232.266666666666" r="125" fill="#009aff" /><circle cx="-3773.63" cy="-1520.8515555555555" r="125" fill="#009aff" /><circle cx="2379.13" cy="1580.9955555555555" r="125" fill="#009aff" /><circle cx="-3623.82" cy="1388.8728888888888" r="125" fill="#009aff" /><circle cx="-4401.31" cy="530.711111111111" r="125" fill="#009aff" /><circle cx="-812.446" cy="2926.951111111111" r="125" fill="#009aff" /><circle cx="2405.91" cy="4181.173333333333" r="125" fill="#009aff" /><circle cx="-2382.7" cy="-2026.5066666666667" r="125" fill="#009aff" /></svg>