<svg viewBox="-5213.5 -11224.1 8683.21 20961" xmlns="http://www.w3.org/2000/svg">
<style>svg { background-color: black; }</style>
<line x1="672.061" y1="1694.84" x2="287.657" y2="1335.74" stroke="#dfdfdf" stroke-width="20" />
<line x1="1033.96" y1="2919.66" x2="672.061" y2="1694.84" stroke="#dfdfdf" stroke-width="20" />
<line x1="1038.67" y1="1331.23" x2="672.061" y2="1694.84" stroke="#dfdfdf" stroke-width="20" />
<line x1="23.1693" y1="-8958.74" x2="-796.105" y2="-9394.77" stroke="#dfdfdf" stroke-width="20" />
<line x1="776.315" y1="-8411.64" x2="23.1693" y2="-8958.74" stroke="#dfdfdf" stroke-width="20" />
<line x1="23.1693" y1="-8958.74" x2="-205.56" y2="-9811.79" stroke="#dfdfdf" stroke-width="20" />
<line x1="576.498" y1="-9724.44" x2="23.1693" y2="-8958.74" stroke="#dfdfdf" stroke-width="20" />
<line x1="1022.42" y1="-9105" x2="23.1693" y2="-8958.74" stroke="#dfdfdf" stroke-width="20" />
<line x1="-1315.07" y1="-6772.84" x2="-2370.06" y2="-6768.02" stroke="#dfdfdf" stroke-width="20" />
<line x1="-2370.06" y1="-6768.02" x2="-3694.24" y2="-6382.2" stroke="#dfdfdf" stroke-width="20" />
<line x1="-2370.06" y1="-6768.02" x2="-3686.38" y2="-7107.4" stroke="#dfdfdf" stroke-width="20" />
<line x1="-2370.06" y1="-6768.02" x2="-3263.72" y2="-5787.32" stroke="#dfdfdf" stroke-width="20" />
<line x1="-2370.06" y1="-6768.02" x2="-3274.62" y2="-7722.38" stroke="#dfdfdf" stroke-width="20" />
<line x1="1035.17" y1="-3572.46" x2="1031.1" y2="-4675.64" stroke="#dfdfdf" stroke-width="20" />
<line x1="1044.55" y1="-2453.08" x2="1035.17" y2="-3572.46" stroke="#dfdfdf" stroke-width="20" />
<line x1="1035.17" y1="-3572.46" x2="-69.2597" y2="-3568.82" stroke="#dfdfdf" stroke-width="20" />
<line x1="1926.68" y1="-2968.71" x2="1035.17" y2="-3572.46" stroke="#dfdfdf" stroke-width="20" />
<line x1="1867.15" y1="-4256.46" x2="1035.17" y2="-3572.46" stroke="#dfdfdf" stroke-width="20" />
<line x1="-2374.28" y1="773.94" x2="-2376.12" y2="-270.254" stroke="#dfdfdf" stroke-width="20" />
<line x1="-1275.68" y1="-268.962" x2="-2376.12" y2="-270.254" stroke="#dfdfdf" stroke-width="20" />
<line x1="-2376.12" y1="-270.254" x2="-3446.43" y2="-272.364" stroke="#dfdfdf" stroke-width="20" />
<line x1="-2360.74" y1="-1301.25" x2="-2376.12" y2="-270.254" stroke="#dfdfdf" stroke-width="20" />
<line x1="2090.15" y1="2165.21" x2="1033.96" y2="2919.66" stroke="#dfdfdf" stroke-width="20" />
<line x1="1033.96" y1="2919.66" x2="-42.5753" y2="3191.66" stroke="#dfdfdf" stroke-width="20" />
<line x1="2088.22" y1="2925.58" x2="1033.96" y2="2919.66" stroke="#dfdfdf" stroke-width="20" />
<line x1="1544.25" y1="1685.29" x2="1033.96" y2="2919.66" stroke="#dfdfdf" stroke-width="20" />
<line x1="2078.62" y1="3928.94" x2="1033.96" y2="2919.66" stroke="#dfdfdf" stroke-width="20" />
<line x1="-2377.16" y1="7215.36" x2="-2385.95" y2="6144.94" stroke="#dfdfdf" stroke-width="20" />
<line x1="-2378.16" y1="5152.44" x2="-2385.95" y2="6144.94" stroke="#dfdfdf" stroke-width="20" />
<line x1="-1366.61" y1="6149.23" x2="-2385.95" y2="6144.94" stroke="#dfdfdf" stroke-width="20" />
<line x1="-2385.95" y1="6144.94" x2="-3198.23" y2="7193.65" stroke="#dfdfdf" stroke-width="20" />
<line x1="-2385.95" y1="6144.94" x2="-3549.65" y2="6650.56" stroke="#dfdfdf" stroke-width="20" />
<line x1="-2385.95" y1="6144.94" x2="-3549.28" y2="5775.08" stroke="#dfdfdf" stroke-width="20" />
<line x1="-2385.95" y1="6144.94" x2="-3252.22" y2="5213.42" stroke="#dfdfdf" stroke-width="20" />
<line x1="-293.808" y1="6142.84" x2="-822.848" y2="5844.78" stroke="#dfdfdf" stroke-width="20" />
<line x1="-822.848" y1="5844.78" x2="-1366.61" y2="6149.23" stroke="#dfdfdf" stroke-width="20" />
<line x1="-293.808" y1="6142.84" x2="-821.299" y2="6469.07" stroke="#dfdfdf" stroke-width="20" />
<line x1="-821.299" y1="6469.07" x2="-1366.61" y2="6149.23" stroke="#dfdfdf" stroke-width="20" />
<line x1="2689.67" y1="2629.1" x2="2088.22" y2="2925.58" stroke="#dfdfdf" stroke-width="20" />
<line x1="2683.71" y1="3225.6" x2="2088.22" y2="2925.58" stroke="#dfdfdf" stroke-width="20" />
<line x1="1100.19" y1="7280.89" x2="-2.15405" y2="8336.02" stroke="#dfdfdf" stroke-width="20" />
<line x1="1101.84" y1="8121.23" x2="-2.15405" y2="8336.02" stroke="#dfdfdf" stroke-width="20" />
<line x1="-2.15405" y1="8336.02" x2="-176.501" y2="9436.98" stroke="#dfdfdf" stroke-width="20" />
<line x1="-2.15405" y1="8336.02" x2="-1160.51" y2="9434.06" stroke="#dfdfdf" stroke-width="20" />
<line x1="255.718" y1="7282.31" x2="-2.15405" y2="8336.02" stroke="#dfdfdf" stroke-width="20" />
<line x1="-2.15405" y1="8336.02" x2="-1165.96" y2="8486.77" stroke="#dfdfdf" stroke-width="20" />
<line x1="-3198.23" y1="7193.65" x2="-3516.29" y2="7643.52" stroke="#dfdfdf" stroke-width="20" />
<line x1="-2894.23" y1="7649.99" x2="-3198.23" y2="7193.65" stroke="#dfdfdf" stroke-width="20" />
<line x1="-3252.22" y1="5213.42" x2="-3592.2" y2="4702.49" stroke="#dfdfdf" stroke-width="20" />
<line x1="-2900.14" y1="4696.12" x2="-3252.22" y2="5213.42" stroke="#dfdfdf" stroke-width="20" />
<line x1="286.1" y1="791.46" x2="287.657" y2="1335.74" stroke="#dfdfdf" stroke-width="20" />
<line x1="1040.57" y1="793.732" x2="287.657" y2="1335.74" stroke="#dfdfdf" stroke-width="20" />
<line x1="-2900.14" y1="4696.12" x2="-3236.55" y2="4191.8" stroke="#dfdfdf" stroke-width="20" />
<line x1="1040.57" y1="793.732" x2="286.1" y2="791.46" stroke="#dfdfdf" stroke-width="20" />
<line x1="1038.67" y1="1331.23" x2="1040.57" y2="793.732" stroke="#dfdfdf" stroke-width="20" />
<line x1="-3236.55" y1="4191.8" x2="-3592.2" y2="4702.49" stroke="#dfdfdf" stroke-width="20" />
<line x1="-4292.4" y1="6664.92" x2="-4696.75" y2="7178.38" stroke="#dfdfdf" stroke-width="20" />
<line x1="-2089.01" y1="7912.59" x2="-2388.08" y2="8427.32" stroke="#dfdfdf" stroke-width="20" />
<line x1="-4288.23" y1="5748.68" x2="-4691.13" y2="5244.18" stroke="#dfdfdf" stroke-width="20" />
<line x1="-1998.38" y1="4485.74" x2="-2387.69" y2="3993.21" stroke="#dfdfdf" stroke-width="20" />
<line x1="-3549.65" y1="6650.56" x2="-4292.4" y2="6664.92" stroke="#dfdfdf" stroke-width="20" />
<line x1="-2089.01" y1="7912.59" x2="-2377.16" y2="7215.36" stroke="#dfdfdf" stroke-width="20" />
<line x1="-3549.28" y1="5775.08" x2="-4288.23" y2="5748.68" stroke="#dfdfdf" stroke-width="20" />
<line x1="-1998.38" y1="4485.74" x2="-2378.16" y2="5152.44" stroke="#dfdfdf" stroke-width="20" />
<line x1="1754.01" y1="-9209.07" x2="1022.42" y2="-9105" stroke="#dfdfdf" stroke-width="20" />
<line x1="2163.37" y1="-8966.03" x2="1754.01" y2="-9209.07" stroke="#dfdfdf" stroke-width="20" />
<line x1="2094" y1="-9542.19" x2="1754.01" y2="-9209.07" stroke="#dfdfdf" stroke-width="20" />
<line x1="1348.89" y1="-7977.74" x2="776.315" y2="-8411.64" stroke="#dfdfdf" stroke-width="20" />
<line x1="1409.56" y1="-7537.26" x2="1348.89" y2="-7977.74" stroke="#dfdfdf" stroke-width="20" />
<line x1="1828.21" y1="-7964.37" x2="1348.89" y2="-7977.74" stroke="#dfdfdf" stroke-width="20" />
<line x1="-796.105" y1="-9394.77" x2="-1413.33" y2="-9733.39" stroke="#dfdfdf" stroke-width="20" />
<line x1="-1413.33" y1="-9733.39" x2="-1460.27" y2="-10174.5" stroke="#dfdfdf" stroke-width="20" />
<line x1="-1413.33" y1="-9733.39" x2="-1874.76" y2="-9699.98" stroke="#dfdfdf" stroke-width="20" />
<line x1="-374.552" y1="-10473.9" x2="-205.56" y2="-9811.79" stroke="#dfdfdf" stroke-width="20" />
<line x1="-374.552" y1="-10473.9" x2="-770.417" y2="-10794" stroke="#dfdfdf" stroke-width="20" />
<line x1="-191.272" y1="-10924.1" x2="-374.552" y2="-10473.9" stroke="#dfdfdf" stroke-width="20" />
<line x1="986.826" y1="-10284.3" x2="576.498" y2="-9724.44" stroke="#dfdfdf" stroke-width="20" />
<line x1="986.826" y1="-10284.3" x2="966.786" y2="-10769.4" stroke="#dfdfdf" stroke-width="20" />
<line x1="1500.18" y1="-10316.4" x2="986.826" y2="-10284.3" stroke="#dfdfdf" stroke-width="20" />
<line x1="-3686.38" y1="-7107.4" x2="-4415.08" y2="-7287.18" stroke="#dfdfdf" stroke-width="20" />
<line x1="-4415.08" y1="-7287.18" x2="-4861.84" y2="-7070.6" stroke="#dfdfdf" stroke-width="20" />
<line x1="-4415.08" y1="-7287.18" x2="-4700.79" y2="-7706.36" stroke="#dfdfdf" stroke-width="20" />
<line x1="-3274.62" y1="-7722.38" x2="-3739.15" y2="-8318.01" stroke="#dfdfdf" stroke-width="20" />
<line x1="-3739.15" y1="-8318.01" x2="-4283.57" y2="-8344.46" stroke="#dfdfdf" stroke-width="20" />
<line x1="-3739.15" y1="-8318.01" x2="-3770.89" y2="-8802.67" stroke="#dfdfdf" stroke-width="20" />
<line x1="-3263.72" y1="-5787.32" x2="-3790.85" y2="-5243.63" stroke="#dfdfdf" stroke-width="20" />
<line x1="-3790.85" y1="-5243.63" x2="-4307.95" y2="-5165.9" stroke="#dfdfdf" stroke-width="20" />
<line x1="-3789.53" y1="-4752.5" x2="-3790.85" y2="-5243.63" stroke="#dfdfdf" stroke-width="20" />
<line x1="-3694.24" y1="-6382.2" x2="-4430.61" y2="-6166.6" stroke="#dfdfdf" stroke-width="20" />
<line x1="-4430.61" y1="-6166.6" x2="-4686.82" y2="-5722.42" stroke="#dfdfdf" stroke-width="20" />
<line x1="-4430.61" y1="-6166.6" x2="-4913.5" y2="-6321.67" stroke="#dfdfdf" stroke-width="20" />
<line x1="-518.903" y1="-6776.25" x2="-1315.07" y2="-6772.84" stroke="#dfdfdf" stroke-width="20" />
<line x1="-127.353" y1="-6463.88" x2="-518.903" y2="-6776.25" stroke="#dfdfdf" stroke-width="20" />
<line x1="-123.504" y1="-7045.62" x2="-518.903" y2="-6776.25" stroke="#dfdfdf" stroke-width="20" />
<line x1="2488.66" y1="-4734.84" x2="1867.15" y2="-4256.46" stroke="#dfdfdf" stroke-width="20" />
<line x1="2544.17" y1="-5230.44" x2="2488.66" y2="-4734.84" stroke="#dfdfdf" stroke-width="20" />
<line x1="3026.55" y1="-4749.76" x2="2488.66" y2="-4734.84" stroke="#dfdfdf" stroke-width="20" />
<line x1="1045.22" y1="-5453.44" x2="1031.1" y2="-4675.64" stroke="#dfdfdf" stroke-width="20" />
<line x1="1045.22" y1="-5453.44" x2="716.381" y2="-5835.4" stroke="#dfdfdf" stroke-width="20" />
<line x1="1355.52" y1="-5837.87" x2="1045.22" y2="-5453.44" stroke="#dfdfdf" stroke-width="20" />
<line x1="1044.55" y1="-2453.08" x2="1043.39" y2="-1739.07" stroke="#dfdfdf" stroke-width="20" />
<line x1="1351.19" y1="-1320.22" x2="1043.39" y2="-1739.07" stroke="#dfdfdf" stroke-width="20" />
<line x1="1043.39" y1="-1739.07" x2="733.434" y2="-1321.71" stroke="#dfdfdf" stroke-width="20" />
<line x1="2584.86" y1="-2544.85" x2="1926.68" y2="-2968.71" stroke="#dfdfdf" stroke-width="20" />
<line x1="2732.16" y1="-2097.62" x2="2584.86" y2="-2544.85" stroke="#dfdfdf" stroke-width="20" />
<line x1="3083.67" y1="-2575.41" x2="2584.86" y2="-2544.85" stroke="#dfdfdf" stroke-width="20" />
<line x1="-3446.43" y1="-272.364" x2="-4213.81" y2="-269.193" stroke="#dfdfdf" stroke-width="20" />
<line x1="-4213.81" y1="-269.193" x2="-4591.41" y2="44.3764" stroke="#dfdfdf" stroke-width="20" />
<line x1="-4213.81" y1="-269.193" x2="-4571.17" y2="-607.314" stroke="#dfdfdf" stroke-width="20" />
<line x1="-2360.74" y1="-1301.25" x2="-2362.07" y2="-2058.72" stroke="#dfdfdf" stroke-width="20" />
<line x1="-2362.07" y1="-2058.72" x2="-2699.34" y2="-2424.14" stroke="#dfdfdf" stroke-width="20" />
<line x1="-2035.77" y1="-2420.71" x2="-2362.07" y2="-2058.72" stroke="#dfdfdf" stroke-width="20" />
<line x1="-2372.31" y1="1480.98" x2="-2374.28" y2="773.94" stroke="#dfdfdf" stroke-width="20" />
<line x1="-2372.31" y1="1480.98" x2="-2672.82" y2="1906.26" stroke="#dfdfdf" stroke-width="20" />
<line x1="-2106.24" y1="1902.24" x2="-2372.31" y2="1480.98" stroke="#dfdfdf" stroke-width="20" />
<line x1="1823.05" y1="1000.63" x2="1544.25" y2="1685.29" stroke="#dfdfdf" stroke-width="20" />
<line x1="1823.05" y1="1000.63" x2="1668.31" y2="581.522" stroke="#dfdfdf" stroke-width="20" />
<line x1="2264.82" y1="818.219" x2="1823.05" y2="1000.63" stroke="#dfdfdf" stroke-width="20" />
<line x1="2687.1" y1="1752.7" x2="2090.15" y2="2165.21" stroke="#dfdfdf" stroke-width="20" />
<line x1="2819.05" y1="1304.93" x2="2687.1" y2="1752.7" stroke="#dfdfdf" stroke-width="20" />
<line x1="3169.71" y1="1777.05" x2="2687.1" y2="1752.7" stroke="#dfdfdf" stroke-width="20" />
<line x1="-42.5753" y1="3191.66" x2="-792.716" y2="3195.4" stroke="#dfdfdf" stroke-width="20" />
<line x1="-792.716" y1="3195.4" x2="-1175.01" y2="2937.28" stroke="#dfdfdf" stroke-width="20" />
<line x1="-792.716" y1="3195.4" x2="-1186.55" y2="3470.2" stroke="#dfdfdf" stroke-width="20" />
<line x1="2583.22" y1="4453.8" x2="2078.62" y2="3928.94" stroke="#dfdfdf" stroke-width="20" />
<line x1="2616.84" y1="4934.9" x2="2583.22" y2="4453.8" stroke="#dfdfdf" stroke-width="20" />
<line x1="3086.91" y1="4497.72" x2="2583.22" y2="4453.8" stroke="#dfdfdf" stroke-width="20" />
<line x1="-2376.12" y1="-270.254" x2="-3121.29" y2="-969.851" stroke="#dfdfdf" stroke-width="20" />
<line x1="-2376.12" y1="-270.254" x2="-3123.93" y2="540.734" stroke="#dfdfdf" stroke-width="20" />
<line x1="-69.2597" y1="-3568.82" x2="-812.64" y2="-3571.08" stroke="#dfdfdf" stroke-width="20" />
<line x1="1033.96" y1="2919.66" x2="-57.9715" y2="2640.66" stroke="#dfdfdf" stroke-width="20" />
<line x1="-57.9715" y1="2640.66" x2="-779.345" y2="2641.33" stroke="#dfdfdf" stroke-width="20" />
<line x1="1034.56" y1="3928.82" x2="1033.96" y2="2919.66" stroke="#dfdfdf" stroke-width="20" />
<line x1="1319.57" y1="4429.8" x2="1034.56" y2="3928.82" stroke="#dfdfdf" stroke-width="20" />
<line x1="-2370.06" y1="-6768.02" x2="-2375.02" y2="-7727.32" stroke="#dfdfdf" stroke-width="20" />
<line x1="-2089.05" y1="-8203.89" x2="-2375.02" y2="-7727.32" stroke="#dfdfdf" stroke-width="20" />
<line x1="-2375.02" y1="-7727.32" x2="-2673.99" y2="-8207.75" stroke="#dfdfdf" stroke-width="20" />
<line x1="-2370.06" y1="-6768.02" x2="-2378.5" y2="-5793.05" stroke="#dfdfdf" stroke-width="20" />
<line x1="-2116.59" y1="-5309.56" x2="-2378.5" y2="-5793.05" stroke="#dfdfdf" stroke-width="20" />
<line x1="-2378.5" y1="-5793.05" x2="-2660.98" y2="-5301.17" stroke="#dfdfdf" stroke-width="20" />
<line x1="1034.56" y1="3928.82" x2="732.291" y2="4430.36" stroke="#dfdfdf" stroke-width="20" />
<circle cx="-2660.98" cy="-5301.17" r="125" fill="#009aff"><title>dwID: 365
gbidReward: 4b2379af
bRootNode: false</title></circle>
<circle cx="672.061" cy="1694.84" r="125" fill="#009aff"><title>dwID: 366
gbidReward: aeda3c71
bRootNode: false</title></circle>
<circle cx="23.1693" cy="-8958.74" r="125" fill="#ff5f5f"><title>dwID: 367
gbidReward: ffffffff
bRootNode: true</title></circle>
<circle cx="-2370.06" cy="-6768.02" r="125" fill="#ff5f5f"><title>dwID: 368
gbidReward: ffffffff
bRootNode: true</title></circle>
<circle cx="1035.17" cy="-3572.46" r="125" fill="#ff5f5f"><title>dwID: 369
gbidReward: ffffffff
bRootNode: true</title></circle>
<circle cx="-2376.12" cy="-270.254" r="125" fill="#ff5f5f"><title>dwID: 370
gbidReward: ffffffff
bRootNode: true</title></circle>
<circle cx="1033.96" cy="2919.66" r="125" fill="#ff5f5f"><title>dwID: 371
gbidReward: ffffffff
bRootNode: true</title></circle>
<circle cx="-2385.95" cy="6144.94" r="125" fill="#ff5f5f"><title>dwID: 372
gbidReward: ffffffff
bRootNode: true</title></circle>
<circle cx="-57.9715" cy="2640.66" r="125" fill="#009aff"><title>dwID: 373
gbidReward: d76b1b20
bRootNode: false</title></circle>
<circle cx="-3121.29" cy="-969.851" r="125" fill="#009aff"><title>dwID: 374
gbidReward: d76b1b04
bRootNode: false</title></circle>
<circle cx="-2673.99" cy="-8207.75" r="125" fill="#009aff"><title>dwID: 375
gbidReward: aed9b011
bRootNode: false</title></circle>
<circle cx="-2116.59" cy="-5309.56" r="125" fill="#009aff"><title>dwID: 376
gbidReward: 4b2379ae
bRootNode: false</title></circle>
<circle cx="-3123.93" cy="540.734" r="125" fill="#009aff"><title>dwID: 377
gbidReward: d76b1b01
bRootNode: false</title></circle>
<circle cx="1319.57" cy="4429.8" r="125" fill="#009aff"><title>dwID: 378
gbidReward: 4b249272
bRootNode: false</title></circle>
<circle cx="-822.848" cy="5844.78" r="125" fill="#009aff"><title>dwID: 379
gbidReward: d76b1b05
bRootNode: false</title></circle>
<circle cx="-821.299" cy="6469.07" r="125" fill="#009aff"><title>dwID: 380
gbidReward: 4b240610
bRootNode: false</title></circle>
<circle cx="-2089.05" cy="-8203.89" r="125" fill="#009aff"><title>dwID: 381
gbidReward: d76b1b1f
bRootNode: false</title></circle>
<circle cx="-1366.61" cy="6149.23" r="125" fill="#009aff"><title>dwID: 382
gbidReward: d76b1b02
bRootNode: false</title></circle>
<circle cx="2689.67" cy="2629.1" r="125" fill="#009aff"><title>dwID: 383
gbidReward: d76b1b00
bRootNode: false</title></circle>
<circle cx="2683.71" cy="3225.6" r="125" fill="#009aff"><title>dwID: 384
gbidReward: d76b1aff
bRootNode: false</title></circle>
<circle cx="1100.19" cy="7280.89" r="125" fill="#009aff"><title>dwID: 385
gbidReward: 1c5d5ac7
bRootNode: false</title></circle>
<circle cx="2819.05" cy="1304.93" r="125" fill="#009aff"><title>dwID: 386
gbidReward: 9ba50024
bRootNode: false</title></circle>
<circle cx="3169.71" cy="1777.05" r="125" fill="#009aff"><title>dwID: 387
gbidReward: 9ba50023
bRootNode: false</title></circle>
<circle cx="-2699.34" cy="-2424.14" r="125" fill="#009aff"><title>dwID: 388
gbidReward: c701f137
bRootNode: false</title></circle>
<circle cx="-2035.77" cy="-2420.71" r="125" fill="#009aff"><title>dwID: 389
gbidReward: c701f136
bRootNode: false</title></circle>
<circle cx="-4571.17" cy="-607.314" r="125" fill="#009aff"><title>dwID: 390
gbidReward: ff3c27ef
bRootNode: false</title></circle>
<circle cx="-4591.41" cy="44.3764" r="125" fill="#009aff"><title>dwID: 391
gbidReward: ff3c27ee
bRootNode: false</title></circle>
<circle cx="-2672.82" cy="1906.26" r="125" fill="#009aff"><title>dwID: 392
gbidReward: 6fbba146
bRootNode: false</title></circle>
<circle cx="-2106.24" cy="1902.24" r="125" fill="#009aff"><title>dwID: 393
gbidReward: 6fbba145
bRootNode: false</title></circle>
<circle cx="3086.91" cy="4497.72" r="125" fill="#009aff"><title>dwID: 394
gbidReward: 74e0a82d
bRootNode: false</title></circle>
<circle cx="2264.82" cy="818.219" r="125" fill="#009aff"><title>dwID: 395
gbidReward: ea6b3d38
bRootNode: false</title></circle>
<circle cx="-1186.55" cy="3470.2" r="125" fill="#009aff"><title>dwID: 396
gbidReward: 362394cc
bRootNode: false</title></circle>
<circle cx="3083.67" cy="-2575.41" r="125" fill="#009aff"><title>dwID: 397
gbidReward: afc89aa1
bRootNode: false</title></circle>
<circle cx="3026.55" cy="-4749.76" r="125" fill="#009aff"><title>dwID: 398
gbidReward: 95a34ec5
bRootNode: false</title></circle>
<circle cx="733.434" cy="-1321.71" r="125" fill="#009aff"><title>dwID: 399
gbidReward: e100651b
bRootNode: false</title></circle>
<circle cx="1351.19" cy="-1320.22" r="125" fill="#009aff"><title>dwID: 400
gbidReward: e100651a
bRootNode: false</title></circle>
<circle cx="1355.52" cy="-5837.87" r="125" fill="#009aff"><title>dwID: 401
gbidReward: 7a978ef6
bRootNode: false</title></circle>
<circle cx="-3789.53" cy="-4752.5" r="125" fill="#009aff"><title>dwID: 402
gbidReward: 7d40d34d
bRootNode: false</title></circle>
<circle cx="-4283.57" cy="-8344.46" r="125" fill="#009aff"><title>dwID: 403
gbidReward: cff4b20d
bRootNode: false</title></circle>
<circle cx="-4861.84" cy="-7070.6" r="125" fill="#009aff"><title>dwID: 404
gbidReward: b27ef7ce
bRootNode: false</title></circle>
<circle cx="-4913.5" cy="-6321.67" r="125" fill="#009aff"><title>dwID: 405
gbidReward: 10dd2c5d
bRootNode: false</title></circle>
<circle cx="-127.353" cy="-6463.88" r="125" fill="#009aff"><title>dwID: 406
gbidReward: d554daa7
bRootNode: false</title></circle>
<circle cx="1409.56" cy="-7537.26" r="125" fill="#009aff"><title>dwID: 407
gbidReward: 4c9dd7a6
bRootNode: false</title></circle>
<circle cx="-191.272" cy="-10924.1" r="125" fill="#009aff"><title>dwID: 408
gbidReward: dd42c9bc
bRootNode: false</title></circle>
<circle cx="1500.18" cy="-10316.4" r="125" fill="#009aff"><title>dwID: 409
gbidReward: fac1763e
bRootNode: false</title></circle>
<circle cx="2094" cy="-9542.19" r="125" fill="#009aff"><title>dwID: 410
gbidReward: 9dec8e6a
bRootNode: false</title></circle>
<circle cx="-1460.27" cy="-10174.5" r="125" fill="#009aff"><title>dwID: 411
gbidReward: 45d8e4c7
bRootNode: false</title></circle>
<circle cx="-2.15405" cy="8336.02" r="125" fill="#ff5f5f"><title>dwID: 412
gbidReward: ffffffff
bRootNode: true</title></circle>
<circle cx="1044.55" cy="-2453.08" r="125" fill="#009aff"><title>dwID: 413
gbidReward: 5462ebe6
bRootNode: false</title></circle>
<circle cx="-3446.43" cy="-272.364" r="125" fill="#009aff"><title>dwID: 414
gbidReward: 5a0f67ba
bRootNode: false</title></circle>
<circle cx="-205.56" cy="-9811.79" r="125" fill="#009aff"><title>dwID: 415
gbidReward: 9e2141a7
bRootNode: false</title></circle>
<circle cx="-3274.62" cy="-7722.38" r="125" fill="#009aff"><title>dwID: 416
gbidReward: 7c87dc98
bRootNode: false</title></circle>
<circle cx="2088.22" cy="2925.58" r="125" fill="#009aff"><title>dwID: 417
gbidReward: aeda3c72
bRootNode: false</title></circle>
<circle cx="-1160.51" cy="9434.06" r="125" fill="#009aff"><title>dwID: 418
gbidReward: 1c5d5ac6
bRootNode: false</title></circle>
<circle cx="-176.501" cy="9436.98" r="125" fill="#009aff"><title>dwID: 419
gbidReward: 4b251ed2
bRootNode: false</title></circle>
<circle cx="-1165.96" cy="8486.77" r="125" fill="#009aff"><title>dwID: 420
gbidReward: 4b251ed1
bRootNode: false</title></circle>
<circle cx="1034.56" cy="3928.82" r="125" fill="#009aff"><title>dwID: 421
gbidReward: 4b24060f
bRootNode: false</title></circle>
<circle cx="-3198.23" cy="7193.65" r="125" fill="#009aff"><title>dwID: 422
gbidReward: 4b249270
bRootNode: false</title></circle>
<circle cx="-3516.29" cy="7643.52" r="125" fill="#009aff"><title>dwID: 423
gbidReward: 4b249271
bRootNode: false</title></circle>
<circle cx="-3252.22" cy="5213.42" r="125" fill="#009aff"><title>dwID: 424
gbidReward: aedb5534
bRootNode: false</title></circle>
<circle cx="-2375.02" cy="-7727.32" r="125" fill="#009aff"><title>dwID: 425
gbidReward: d76b1b03
bRootNode: false</title></circle>
<circle cx="-1275.68" cy="-268.962" r="125" fill="#009aff"><title>dwID: 426
gbidReward: 4b2379b0
bRootNode: false</title></circle>
<circle cx="287.657" cy="1335.74" r="125" fill="#009aff"><title>dwID: 427
gbidReward: d76b1b22
bRootNode: false</title></circle>
<circle cx="-779.345" cy="2641.33" r="125" fill="#009aff"><title>dwID: 428
gbidReward: d76b1b21
bRootNode: false</title></circle>
<circle cx="-812.64" cy="-3571.08" r="125" fill="#009aff"><title>dwID: 429
gbidReward: d76b1b07
bRootNode: false</title></circle>
<circle cx="-2894.23" cy="7649.99" r="125" fill="#009aff"><title>dwID: 430
gbidReward: 4b22ed4d
bRootNode: false</title></circle>
<circle cx="255.718" cy="7282.31" r="125" fill="#009aff"><title>dwID: 431
gbidReward: aedbe195
bRootNode: false</title></circle>
<circle cx="1101.84" cy="8121.23" r="125" fill="#009aff"><title>dwID: 432
gbidReward: aedbe194
bRootNode: false</title></circle>
<circle cx="-293.808" cy="6142.84" r="125" fill="#009aff"><title>dwID: 433
gbidReward: d76b1b06
bRootNode: false</title></circle>
<circle cx="-2900.14" cy="4696.12" r="125" fill="#009aff"><title>dwID: 434
gbidReward: aedb5535
bRootNode: false</title></circle>
<circle cx="286.1" cy="791.46" r="125" fill="#009aff"><title>dwID: 435
gbidReward: aedb5533
bRootNode: false</title></circle>
<circle cx="1038.67" cy="1331.23" r="125" fill="#009aff"><title>dwID: 436
gbidReward: aedac8d4
bRootNode: false</title></circle>
<circle cx="-3236.55" cy="4191.8" r="125" fill="#009aff"><title>dwID: 437
gbidReward: aedac8d3
bRootNode: false</title></circle>
<circle cx="-2378.5" cy="-5793.05" r="125" fill="#009aff"><title>dwID: 438
gbidReward: 4b22ed4e
bRootNode: false</title></circle>
<circle cx="1040.57" cy="793.732" r="125" fill="#009aff"><title>dwID: 439
gbidReward: d76b1b23
bRootNode: false</title></circle>
<circle cx="-69.2597" cy="-3568.82" r="125" fill="#009aff"><title>dwID: 440
gbidReward: aeda3c73
bRootNode: false</title></circle>
<circle cx="-3592.2" cy="4702.49" r="125" fill="#009aff"><title>dwID: 441
gbidReward: aed9b010
bRootNode: false</title></circle>
<circle cx="-4696.75" cy="7178.38" r="125" fill="#009aff"><title>dwID: 442
gbidReward: 93465858
bRootNode: false</title></circle>
<circle cx="-2388.08" cy="8427.32" r="125" fill="#009aff"><title>dwID: 443
gbidReward: 29abf271
bRootNode: false</title></circle>
<circle cx="-4691.13" cy="5244.18" r="125" fill="#009aff"><title>dwID: 444
gbidReward: 39d9b498
bRootNode: false</title></circle>
<circle cx="-2387.69" cy="3993.21" r="125" fill="#009aff"><title>dwID: 445
gbidReward: 34b7d7da
bRootNode: false</title></circle>
<circle cx="-4292.4" cy="6664.92" r="125" fill="#009aff"><title>dwID: 446
gbidReward: 93465857
bRootNode: false</title></circle>
<circle cx="-2089.01" cy="7912.59" r="125" fill="#009aff"><title>dwID: 447
gbidReward: 29abf270
bRootNode: false</title></circle>
<circle cx="-4288.23" cy="5748.68" r="125" fill="#009aff"><title>dwID: 448
gbidReward: 39d9b497
bRootNode: false</title></circle>
<circle cx="-1998.38" cy="4485.74" r="125" fill="#009aff"><title>dwID: 449
gbidReward: 34b7d7d9
bRootNode: false</title></circle>
<circle cx="-3549.65" cy="6650.56" r="125" fill="#009aff"><title>dwID: 450
gbidReward: ff761443
bRootNode: false</title></circle>
<circle cx="-2377.16" cy="7215.36" r="125" fill="#009aff"><title>dwID: 451
gbidReward: a6e5717c
bRootNode: false</title></circle>
<circle cx="-3549.28" cy="5775.08" r="125" fill="#009aff"><title>dwID: 452
gbidReward: e818ba03
bRootNode: false</title></circle>
<circle cx="-2378.16" cy="5152.44" r="125" fill="#009aff"><title>dwID: 453
gbidReward: 1f6c4185
bRootNode: false</title></circle>
<circle cx="2616.84" cy="4934.9" r="125" fill="#009aff"><title>dwID: 454
gbidReward: 74e0a82c
bRootNode: false</title></circle>
<circle cx="2078.62" cy="3928.94" r="125" fill="#009aff"><title>dwID: 455
gbidReward: bf7a3938
bRootNode: false</title></circle>
<circle cx="-1175.01" cy="2937.28" r="125" fill="#009aff"><title>dwID: 456
gbidReward: 362394cb
bRootNode: false</title></circle>
<circle cx="2544.17" cy="-5230.44" r="125" fill="#009aff"><title>dwID: 457
gbidReward: 95a34ec4
bRootNode: false</title></circle>
<circle cx="-42.5753" cy="3191.66" r="125" fill="#009aff"><title>dwID: 458
gbidReward: 704dd3b7
bRootNode: false</title></circle>
<circle cx="-2360.74" cy="-1301.25" r="125" fill="#009aff"><title>dwID: 459
gbidReward: cc270e82
bRootNode: false</title></circle>
<circle cx="1867.15" cy="-4256.46" r="125" fill="#009aff"><title>dwID: 460
gbidReward: 31907fd0
bRootNode: false</title></circle>
<circle cx="-2374.28" cy="773.94" r="125" fill="#009aff"><title>dwID: 461
gbidReward: bf8520f1
bRootNode: false</title></circle>
<circle cx="-4307.95" cy="-5165.9" r="125" fill="#009aff"><title>dwID: 462
gbidReward: 7d40d34c
bRootNode: false</title></circle>
<circle cx="1668.31" cy="581.522" r="125" fill="#009aff"><title>dwID: 463
gbidReward: ea6b3d37
bRootNode: false</title></circle>
<circle cx="-3263.72" cy="-5787.32" r="125" fill="#009aff"><title>dwID: 464
gbidReward: df19e6d8
bRootNode: false</title></circle>
<circle cx="1544.25" cy="1685.29" r="125" fill="#009aff"><title>dwID: 465
gbidReward: 31c606a3
bRootNode: false</title></circle>
<circle cx="-3770.89" cy="-8802.67" r="125" fill="#009aff"><title>dwID: 466
gbidReward: cff4b20c
bRootNode: false</title></circle>
<circle cx="1828.21" cy="-7964.37" r="125" fill="#009aff"><title>dwID: 467
gbidReward: 4c9dd7a5
bRootNode: false</title></circle>
<circle cx="-770.417" cy="-10794" r="125" fill="#009aff"><title>dwID: 468
gbidReward: dd42c9bb
bRootNode: false</title></circle>
<circle cx="2090.15" cy="2165.21" r="125" fill="#009aff"><title>dwID: 469
gbidReward: 11f3e0f
bRootNode: false</title></circle>
<circle cx="966.786" cy="-10769.4" r="125" fill="#009aff"><title>dwID: 470
gbidReward: fac1763d
bRootNode: false</title></circle>
<circle cx="776.315" cy="-8411.64" r="125" fill="#009aff"><title>dwID: 471
gbidReward: ef798051
bRootNode: false</title></circle>
<circle cx="576.498" cy="-9724.44" r="125" fill="#009aff"><title>dwID: 472
gbidReward: 6f73c069
bRootNode: false</title></circle>
<circle cx="2732.16" cy="-2097.62" r="125" fill="#009aff"><title>dwID: 473
gbidReward: afc89aa0
bRootNode: false</title></circle>
<circle cx="2163.37" cy="-8966.03" r="125" fill="#009aff"><title>dwID: 474
gbidReward: 9dec8e69
bRootNode: false</title></circle>
<circle cx="-123.504" cy="-7045.62" r="125" fill="#009aff"><title>dwID: 475
gbidReward: d554daa6
bRootNode: false</title></circle>
<circle cx="716.381" cy="-5835.4" r="125" fill="#009aff"><title>dwID: 476
gbidReward: 7a978ef5
bRootNode: false</title></circle>
<circle cx="1031.1" cy="-4675.64" r="125" fill="#009aff"><title>dwID: 477
gbidReward: 5401b8a1
bRootNode: false</title></circle>
<circle cx="1926.68" cy="-2968.71" r="125" fill="#009aff"><title>dwID: 478
gbidReward: 3a4534ac
bRootNode: false</title></circle>
<circle cx="-1315.07" cy="-6772.84" r="125" fill="#009aff"><title>dwID: 479
gbidReward: 3abc0272
bRootNode: false</title></circle>
<circle cx="-1874.76" cy="-9699.98" r="125" fill="#009aff"><title>dwID: 480
gbidReward: 45d8e4c6
bRootNode: false</title></circle>
<circle cx="1022.42" cy="-9105" r="125" fill="#009aff"><title>dwID: 481
gbidReward: 94b9515
bRootNode: false</title></circle>
<circle cx="-4686.82" cy="-5722.42" r="125" fill="#009aff"><title>dwID: 482
gbidReward: 10dd2c5c
bRootNode: false</title></circle>
<circle cx="-4700.79" cy="-7706.36" r="125" fill="#009aff"><title>dwID: 483
gbidReward: b27ef7cf
bRootNode: false</title></circle>
<circle cx="-3694.24" cy="-6382.2" r="125" fill="#009aff"><title>dwID: 484
gbidReward: 10e0bfe8
bRootNode: false</title></circle>
<circle cx="-796.105" cy="-9394.77" r="125" fill="#009aff"><title>dwID: 485
gbidReward: dd775212
bRootNode: false</title></circle>
<circle cx="-3686.38" cy="-7107.4" r="125" fill="#009aff"><title>dwID: 486
gbidReward: 6a8245f9
bRootNode: false</title></circle>
<circle cx="1754.01" cy="-9209.07" r="125" fill="#009aff"><title>dwID: 488
gbidReward: 9dec8e6b
bRootNode: false</title></circle>
<circle cx="1348.89" cy="-7977.74" r="125" fill="#009aff"><title>dwID: 493
gbidReward: 4c9dd7a7
bRootNode: false</title></circle>
<circle cx="-1413.33" cy="-9733.39" r="125" fill="#009aff"><title>dwID: 494
gbidReward: 45d8e4c8
bRootNode: false</title></circle>
<circle cx="-374.552" cy="-10473.9" r="125" fill="#009aff"><title>dwID: 496
gbidReward: dd42c9bd
bRootNode: false</title></circle>
<circle cx="986.826" cy="-10284.3" r="125" fill="#009aff"><title>dwID: 497
gbidReward: fac1763f
bRootNode: false</title></circle>
<circle cx="-4415.08" cy="-7287.18" r="125" fill="#009aff"><title>dwID: 498
gbidReward: b27ef7cd
bRootNode: false</title></circle>
<circle cx="-3739.15" cy="-8318.01" r="125" fill="#009aff"><title>dwID: 499
gbidReward: cff4b20e
bRootNode: false</title></circle>
<circle cx="-3790.85" cy="-5243.63" r="125" fill="#009aff"><title>dwID: 500
gbidReward: 7d40d34e
bRootNode: false</title></circle>
<circle cx="-4430.61" cy="-6166.6" r="125" fill="#009aff"><title>dwID: 501
gbidReward: 10dd2c5e
bRootNode: false</title></circle>
<circle cx="-518.903" cy="-6776.25" r="125" fill="#009aff"><title>dwID: 502
gbidReward: d554daa8
bRootNode: false</title></circle>
<circle cx="2488.66" cy="-4734.84" r="125" fill="#009aff"><title>dwID: 504
gbidReward: 95a34ec6
bRootNode: false</title></circle>
<circle cx="1045.22" cy="-5453.44" r="125" fill="#009aff"><title>dwID: 505
gbidReward: 7a978ef7
bRootNode: false</title></circle>
<circle cx="1043.39" cy="-1739.07" r="125" fill="#009aff"><title>dwID: 506
gbidReward: e100651c
bRootNode: false</title></circle>
<circle cx="2584.86" cy="-2544.85" r="125" fill="#009aff"><title>dwID: 507
gbidReward: afc89aa2
bRootNode: false</title></circle>
<circle cx="-4213.81" cy="-269.193" r="125" fill="#009aff"><title>dwID: 508
gbidReward: ff3c27f0
bRootNode: false</title></circle>
<circle cx="-2362.07" cy="-2058.72" r="125" fill="#009aff"><title>dwID: 509
gbidReward: c701f138
bRootNode: false</title></circle>
<circle cx="-2372.31" cy="1480.98" r="125" fill="#009aff"><title>dwID: 511
gbidReward: 6fbba147
bRootNode: false</title></circle>
<circle cx="1823.05" cy="1000.63" r="125" fill="#009aff"><title>dwID: 512
gbidReward: ea6b3d39
bRootNode: false</title></circle>
<circle cx="2687.1" cy="1752.7" r="125" fill="#009aff"><title>dwID: 513
gbidReward: 9ba50025
bRootNode: false</title></circle>
<circle cx="2583.22" cy="4453.8" r="125" fill="#009aff"><title>dwID: 514
gbidReward: 74e0a82e
bRootNode: false</title></circle>
<circle cx="-792.716" cy="3195.4" r="125" fill="#009aff"><title>dwID: 515
gbidReward: 362394cd
bRootNode: false</title></circle>
<circle cx="732.291" cy="4430.36" r="125" fill="#009aff"><title>dwID: 525
gbidReward: d76b1b24
bRootNode: false</title></circle>
</svg>