<svg viewBox="-5213.5 -11224.07111111111 8683.21 20961.048888888887" xmlns="http://www.w3.org/2000/svg">
<style>
  svg {
    background-color: black;
  }
</style>
<line x1="-2660.98" y1="-5301.173333333333" x2="-2378.5" y2="-5793.0488888888885" stroke="#dfdfdf" stroke-width="20" /><line x1="672.061" y1="1694.839111111111" x2="287.657" y2="1335.7422222222222" stroke="#dfdfdf" stroke-width="20" /><line x1="672.061" y1="1694.839111111111" x2="1033.96" y2="2919.6622222222218" stroke="#dfdfdf" stroke-width="20" /><line x1="672.061" y1="1694.839111111111" x2="1038.67" y2="1331.2337777777777" stroke="#dfdfdf" stroke-width="20" /><line x1="23.1693" y1="-8958.737777777777" x2="-796.105" y2="-9394.773333333333" stroke="#dfdfdf" stroke-width="20" /><line x1="23.1693" y1="-8958.737777777777" x2="776.315" y2="-8411.644444444444" stroke="#dfdfdf" stroke-width="20" /><line x1="23.1693" y1="-8958.737777777777" x2="-205.56" y2="-9811.786666666667" stroke="#dfdfdf" stroke-width="20" /><line x1="23.1693" y1="-8958.737777777777" x2="576.498" y2="-9724.444444444443" stroke="#dfdfdf" stroke-width="20" /><line x1="23.1693" y1="-8958.737777777777" x2="1022.42" y2="-9104.995555555555" stroke="#dfdfdf" stroke-width="20" /><line x1="-2370.06" y1="-6768.017777777778" x2="-1315.07" y2="-6772.8355555555545" stroke="#dfdfdf" stroke-width="20" /><line x1="-2370.06" y1="-6768.017777777778" x2="-3694.24" y2="-6382.204444444444" stroke="#dfdfdf" stroke-width="20" /><line x1="-2370.06" y1="-6768.017777777778" x2="-3686.38" y2="-7107.395555555555" stroke="#dfdfdf" stroke-width="20" /><line x1="-2370.06" y1="-6768.017777777778" x2="-3263.72" y2="-5787.3244444444435" stroke="#dfdfdf" stroke-width="20" /><line x1="-2370.06" y1="-6768.017777777778" x2="-3274.62" y2="-7722.3822222222225" stroke="#dfdfdf" stroke-width="20" /><line x1="-2370.06" y1="-6768.017777777778" x2="-2375.02" y2="-7727.3244444444435" stroke="#dfdfdf" stroke-width="20" /><line x1="-2370.06" y1="-6768.017777777778" x2="-2378.5" y2="-5793.0488888888885" stroke="#dfdfdf" stroke-width="20" /><line x1="1035.17" y1="-3572.462222222222" x2="1031.1" y2="-4675.644444444444" stroke="#dfdfdf" stroke-width="20" /><line x1="1035.17" y1="-3572.462222222222" x2="1044.55" y2="-2453.084444444444" stroke="#dfdfdf" stroke-width="20" /><line x1="1035.17" y1="-3572.462222222222" x2="-69.2597" y2="-3568.817777777778" stroke="#dfdfdf" stroke-width="20" /><line x1="1035.17" y1="-3572.462222222222" x2="1926.68" y2="-2968.711111111111" stroke="#dfdfdf" stroke-width="20" /><line x1="1035.17" y1="-3572.462222222222" x2="1867.15" y2="-4256.462222222222" stroke="#dfdfdf" stroke-width="20" /><line x1="-2376.12" y1="-270.2542222222222" x2="-2374.28" y2="773.9395555555556" stroke="#dfdfdf" stroke-width="20" /><line x1="-2376.12" y1="-270.2542222222222" x2="-1275.68" y2="-268.96177777777774" stroke="#dfdfdf" stroke-width="20" /><line x1="-2376.12" y1="-270.2542222222222" x2="-3446.43" y2="-272.3644444444445" stroke="#dfdfdf" stroke-width="20" /><line x1="-2376.12" y1="-270.2542222222222" x2="-2360.74" y2="-1301.2515555555553" stroke="#dfdfdf" stroke-width="20" /><line x1="-2376.12" y1="-270.2542222222222" x2="-3121.29" y2="-969.8506666666667" stroke="#dfdfdf" stroke-width="20" /><line x1="-2376.12" y1="-270.2542222222222" x2="-3123.93" y2="540.7342222222222" stroke="#dfdfdf" stroke-width="20" /><line x1="1033.96" y1="2919.6622222222218" x2="2090.15" y2="2165.208888888889" stroke="#dfdfdf" stroke-width="20" /><line x1="1033.96" y1="2919.6622222222218" x2="-42.5753" y2="3191.6622222222218" stroke="#dfdfdf" stroke-width="20" /><line x1="1033.96" y1="2919.6622222222218" x2="2088.22" y2="2925.5822222222223" stroke="#dfdfdf" stroke-width="20" /><line x1="1033.96" y1="2919.6622222222218" x2="1544.25" y2="1685.2853333333333" stroke="#dfdfdf" stroke-width="20" /><line x1="1033.96" y1="2919.6622222222218" x2="2078.62" y2="3928.9422222222224" stroke="#dfdfdf" stroke-width="20" /><line x1="1033.96" y1="2919.6622222222218" x2="-57.9715" y2="2640.6577777777775" stroke="#dfdfdf" stroke-width="20" /><line x1="1033.96" y1="2919.6622222222218" x2="1034.56" y2="3928.817777777778" stroke="#dfdfdf" stroke-width="20" /><line x1="-2385.95" y1="6144.942222222222" x2="-2377.16" y2="7215.36" stroke="#dfdfdf" stroke-width="20" /><line x1="-2385.95" y1="6144.942222222222" x2="-2378.16" y2="5152.444444444444" stroke="#dfdfdf" stroke-width="20" /><line x1="-2385.95" y1="6144.942222222222" x2="-1366.61" y2="6149.2266666666665" stroke="#dfdfdf" stroke-width="20" /><line x1="-2385.95" y1="6144.942222222222" x2="-3198.23" y2="7193.653333333333" stroke="#dfdfdf" stroke-width="20" /><line x1="-2385.95" y1="6144.942222222222" x2="-3549.65" y2="6650.5599999999995" stroke="#dfdfdf" stroke-width="20" /><line x1="-2385.95" y1="6144.942222222222" x2="-3549.28" y2="5775.075555555555" stroke="#dfdfdf" stroke-width="20" /><line x1="-2385.95" y1="6144.942222222222" x2="-3252.22" y2="5213.422222222222" stroke="#dfdfdf" stroke-width="20" /><line x1="-57.9715" y1="2640.6577777777775" x2="-779.345" y2="2641.333333333333" stroke="#dfdfdf" stroke-width="20" /><line x1="-2673.99" y1="-8207.75111111111" x2="-2375.02" y2="-7727.3244444444435" stroke="#dfdfdf" stroke-width="20" /><line x1="-2116.59" y1="-5309.564444444444" x2="-2378.5" y2="-5793.0488888888885" stroke="#dfdfdf" stroke-width="20" /><line x1="1319.57" y1="4429.795555555555" x2="1034.56" y2="3928.817777777778" stroke="#dfdfdf" stroke-width="20" /><line x1="-822.848" y1="5844.782222222222" x2="-293.808" y2="6142.844444444444" stroke="#dfdfdf" stroke-width="20" /><line x1="-822.848" y1="5844.782222222222" x2="-1366.61" y2="6149.2266666666665" stroke="#dfdfdf" stroke-width="20" /><line x1="-821.299" y1="6469.066666666666" x2="-293.808" y2="6142.844444444444" stroke="#dfdfdf" stroke-width="20" /><line x1="-821.299" y1="6469.066666666666" x2="-1366.61" y2="6149.2266666666665" stroke="#dfdfdf" stroke-width="20" /><line x1="-2089.05" y1="-8203.893333333332" x2="-2375.02" y2="-7727.3244444444435" stroke="#dfdfdf" stroke-width="20" /><line x1="2689.67" y1="2629.102222222222" x2="2088.22" y2="2925.5822222222223" stroke="#dfdfdf" stroke-width="20" /><line x1="2683.71" y1="3225.6" x2="2088.22" y2="2925.5822222222223" stroke="#dfdfdf" stroke-width="20" /><line x1="1100.19" y1="7280.888888888889" x2="-2.15405" y2="8336.017777777777" stroke="#dfdfdf" stroke-width="20" /><line x1="2819.05" y1="1304.9315555555554" x2="2687.1" y2="1752.695111111111" stroke="#dfdfdf" stroke-width="20" /><line x1="3169.71" y1="1777.0524444444443" x2="2687.1" y2="1752.695111111111" stroke="#dfdfdf" stroke-width="20" /><line x1="-2699.34" y1="-2424.142222222222" x2="-2362.07" y2="-2058.72" stroke="#dfdfdf" stroke-width="20" /><line x1="-2035.77" y1="-2420.711111111111" x2="-2362.07" y2="-2058.72" stroke="#dfdfdf" stroke-width="20" /><line x1="-4571.17" y1="-607.3137777777777" x2="-4213.81" y2="-269.1928888888889" stroke="#dfdfdf" stroke-width="20" /><line x1="-4591.41" y1="44.376355555555556" x2="-4213.81" y2="-269.1928888888889" stroke="#dfdfdf" stroke-width="20" /><line x1="-2672.82" y1="1906.2577777777776" x2="-2372.31" y2="1480.983111111111" stroke="#dfdfdf" stroke-width="20" /><line x1="-2106.24" y1="1902.2399999999998" x2="-2372.31" y2="1480.983111111111" stroke="#dfdfdf" stroke-width="20" /><line x1="3086.91" y1="4497.724444444444" x2="2583.22" y2="4453.795555555555" stroke="#dfdfdf" stroke-width="20" /><line x1="2264.82" y1="818.2186666666666" x2="1823.05" y2="1000.6275555555554" stroke="#dfdfdf" stroke-width="20" /><line x1="-1186.55" y1="3470.204444444444" x2="-792.716" y2="3195.3955555555553" stroke="#dfdfdf" stroke-width="20" /><line x1="3083.67" y1="-2575.4133333333334" x2="2584.86" y2="-2544.853333333333" stroke="#dfdfdf" stroke-width="20" /><line x1="3026.55" y1="-4749.759999999999" x2="2488.66" y2="-4734.844444444444" stroke="#dfdfdf" stroke-width="20" /><line x1="733.434" y1="-1321.7137777777778" x2="1043.39" y2="-1739.072" stroke="#dfdfdf" stroke-width="20" /><line x1="1351.19" y1="-1320.2168888888887" x2="1043.39" y2="-1739.072" stroke="#dfdfdf" stroke-width="20" /><line x1="1355.52" y1="-5837.866666666667" x2="1045.22" y2="-5453.44" stroke="#dfdfdf" stroke-width="20" /><line x1="-3789.53" y1="-4752.497777777778" x2="-3790.85" y2="-5243.626666666666" stroke="#dfdfdf" stroke-width="20" /><line x1="-4283.57" y1="-8344.462222222222" x2="-3739.15" y2="-8318.00888888889" stroke="#dfdfdf" stroke-width="20" /><line x1="-4861.84" y1="-7070.595555555556" x2="-4415.08" y2="-7287.182222222222" stroke="#dfdfdf" stroke-width="20" /><line x1="-4913.5" y1="-6321.671111111111" x2="-4430.61" y2="-6166.595555555556" stroke="#dfdfdf" stroke-width="20" /><line x1="-127.353" y1="-6463.8755555555545" x2="-518.903" y2="-6776.248888888888" stroke="#dfdfdf" stroke-width="20" /><line x1="1409.56" y1="-7537.262222222222" x2="1348.89" y2="-7977.742222222221" stroke="#dfdfdf" stroke-width="20" /><line x1="-191.272" y1="-10924.07111111111" x2="-374.552" y2="-10473.884444444444" stroke="#dfdfdf" stroke-width="20" /><line x1="1500.18" y1="-10316.444444444443" x2="986.826" y2="-10284.266666666665" stroke="#dfdfdf" stroke-width="20" /><line x1="2094" y1="-9542.186666666665" x2="1754.01" y2="-9209.066666666668" stroke="#dfdfdf" stroke-width="20" /><line x1="-1460.27" y1="-10174.488888888887" x2="-1413.33" y2="-9733.386666666665" stroke="#dfdfdf" stroke-width="20" /><line x1="-2.15405" y1="8336.017777777777" x2="1101.84" y2="8121.226666666666" stroke="#dfdfdf" stroke-width="20" /><line x1="-2.15405" y1="8336.017777777777" x2="-176.501" y2="9436.977777777778" stroke="#dfdfdf" stroke-width="20" /><line x1="-2.15405" y1="8336.017777777777" x2="-1160.51" y2="9434.062222222221" stroke="#dfdfdf" stroke-width="20" /><line x1="-2.15405" y1="8336.017777777777" x2="255.718" y2="7282.311111111111" stroke="#dfdfdf" stroke-width="20" /><line x1="-2.15405" y1="8336.017777777777" x2="-1165.96" y2="8486.773333333334" stroke="#dfdfdf" stroke-width="20" /><line x1="1044.55" y1="-2453.084444444444" x2="1043.39" y2="-1739.072" stroke="#dfdfdf" stroke-width="20" /><line x1="-3446.43" y1="-272.3644444444445" x2="-4213.81" y2="-269.1928888888889" stroke="#dfdfdf" stroke-width="20" /><line x1="-205.56" y1="-9811.786666666667" x2="-374.552" y2="-10473.884444444444" stroke="#dfdfdf" stroke-width="20" /><line x1="-3274.62" y1="-7722.3822222222225" x2="-3739.15" y2="-8318.00888888889" stroke="#dfdfdf" stroke-width="20" /><line x1="1034.56" y1="3928.817777777778" x2="732.291" y2="4430.364444444444" stroke="#dfdfdf" stroke-width="20" /><line x1="-3198.23" y1="7193.653333333333" x2="-3516.29" y2="7643.519999999999" stroke="#dfdfdf" stroke-width="20" /><line x1="-3198.23" y1="7193.653333333333" x2="-2894.23" y2="7649.9911111111105" stroke="#dfdfdf" stroke-width="20" /><line x1="-3252.22" y1="5213.422222222222" x2="-3592.2" y2="4702.488888888889" stroke="#dfdfdf" stroke-width="20" /><line x1="-3252.22" y1="5213.422222222222" x2="-2900.14" y2="4696.124444444445" stroke="#dfdfdf" stroke-width="20" /><line x1="287.657" y1="1335.7422222222222" x2="286.1" y2="791.4595555555555" stroke="#dfdfdf" stroke-width="20" /><line x1="287.657" y1="1335.7422222222222" x2="1040.57" y2="793.7315555555555" stroke="#dfdfdf" stroke-width="20" /><line x1="-812.64" y1="-3571.075555555555" x2="-69.2597" y2="-3568.817777777778" stroke="#dfdfdf" stroke-width="20" /><line x1="-2900.14" y1="4696.124444444445" x2="-3236.55" y2="4191.804444444444" stroke="#dfdfdf" stroke-width="20" /><line x1="286.1" y1="791.4595555555555" x2="1040.57" y2="793.7315555555555" stroke="#dfdfdf" stroke-width="20" /><line x1="1038.67" y1="1331.2337777777777" x2="1040.57" y2="793.7315555555555" stroke="#dfdfdf" stroke-width="20" /><line x1="-3236.55" y1="4191.804444444444" x2="-3592.2" y2="4702.488888888889" stroke="#dfdfdf" stroke-width="20" /><line x1="-4696.75" y1="7178.3822222222225" x2="-4292.4" y2="6664.924444444444" stroke="#dfdfdf" stroke-width="20" /><line x1="-2388.08" y1="8427.324444444444" x2="-2089.01" y2="7912.586666666666" stroke="#dfdfdf" stroke-width="20" /><line x1="-4691.13" y1="5244.177777777777" x2="-4288.23" y2="5748.675555555556" stroke="#dfdfdf" stroke-width="20" /><line x1="-2387.69" y1="3993.2088888888884" x2="-1998.38" y2="4485.742222222222" stroke="#dfdfdf" stroke-width="20" /><line x1="-4292.4" y1="6664.924444444444" x2="-3549.65" y2="6650.5599999999995" stroke="#dfdfdf" stroke-width="20" /><line x1="-2089.01" y1="7912.586666666666" x2="-2377.16" y2="7215.36" stroke="#dfdfdf" stroke-width="20" /><line x1="-4288.23" y1="5748.675555555556" x2="-3549.28" y2="5775.075555555555" stroke="#dfdfdf" stroke-width="20" /><line x1="-1998.38" y1="4485.742222222222" x2="-2378.16" y2="5152.444444444444" stroke="#dfdfdf" stroke-width="20" /><line x1="2616.84" y1="4934.897777777777" x2="2583.22" y2="4453.795555555555" stroke="#dfdfdf" stroke-width="20" /><line x1="2078.62" y1="3928.9422222222224" x2="2583.22" y2="4453.795555555555" stroke="#dfdfdf" stroke-width="20" /><line x1="-1175.01" y1="2937.2799999999997" x2="-792.716" y2="3195.3955555555553" stroke="#dfdfdf" stroke-width="20" /><line x1="2544.17" y1="-5230.435555555555" x2="2488.66" y2="-4734.844444444444" stroke="#dfdfdf" stroke-width="20" /><line x1="-42.5753" y1="3191.6622222222218" x2="-792.716" y2="3195.3955555555553" stroke="#dfdfdf" stroke-width="20" /><line x1="-2360.74" y1="-1301.2515555555553" x2="-2362.07" y2="-2058.72" stroke="#dfdfdf" stroke-width="20" /><line x1="1867.15" y1="-4256.462222222222" x2="2488.66" y2="-4734.844444444444" stroke="#dfdfdf" stroke-width="20" /><line x1="-2374.28" y1="773.9395555555556" x2="-2372.31" y2="1480.983111111111" stroke="#dfdfdf" stroke-width="20" /><line x1="-4307.95" y1="-5165.902222222222" x2="-3790.85" y2="-5243.626666666666" stroke="#dfdfdf" stroke-width="20" /><line x1="1668.31" y1="581.5217777777777" x2="1823.05" y2="1000.6275555555554" stroke="#dfdfdf" stroke-width="20" /><line x1="-3263.72" y1="-5787.3244444444435" x2="-3790.85" y2="-5243.626666666666" stroke="#dfdfdf" stroke-width="20" /><line x1="1544.25" y1="1685.2853333333333" x2="1823.05" y2="1000.6275555555554" stroke="#dfdfdf" stroke-width="20" /><line x1="-3770.89" y1="-8802.666666666666" x2="-3739.15" y2="-8318.00888888889" stroke="#dfdfdf" stroke-width="20" /><line x1="1828.21" y1="-7964.373333333333" x2="1348.89" y2="-7977.742222222221" stroke="#dfdfdf" stroke-width="20" /><line x1="-770.417" y1="-10793.973333333332" x2="-374.552" y2="-10473.884444444444" stroke="#dfdfdf" stroke-width="20" /><line x1="2090.15" y1="2165.208888888889" x2="2687.1" y2="1752.695111111111" stroke="#dfdfdf" stroke-width="20" /><line x1="966.786" y1="-10769.404444444444" x2="986.826" y2="-10284.266666666665" stroke="#dfdfdf" stroke-width="20" /><line x1="776.315" y1="-8411.644444444444" x2="1348.89" y2="-7977.742222222221" stroke="#dfdfdf" stroke-width="20" /><line x1="576.498" y1="-9724.444444444443" x2="986.826" y2="-10284.266666666665" stroke="#dfdfdf" stroke-width="20" /><line x1="2732.16" y1="-2097.617777777778" x2="2584.86" y2="-2544.853333333333" stroke="#dfdfdf" stroke-width="20" /><line x1="2163.37" y1="-8966.026666666667" x2="1754.01" y2="-9209.066666666668" stroke="#dfdfdf" stroke-width="20" /><line x1="-123.504" y1="-7045.6177777777775" x2="-518.903" y2="-6776.248888888888" stroke="#dfdfdf" stroke-width="20" /><line x1="716.381" y1="-5835.395555555555" x2="1045.22" y2="-5453.44" stroke="#dfdfdf" stroke-width="20" /><line x1="1031.1" y1="-4675.644444444444" x2="1045.22" y2="-5453.44" stroke="#dfdfdf" stroke-width="20" /><line x1="1926.68" y1="-2968.711111111111" x2="2584.86" y2="-2544.853333333333" stroke="#dfdfdf" stroke-width="20" /><line x1="-1315.07" y1="-6772.8355555555545" x2="-518.903" y2="-6776.248888888888" stroke="#dfdfdf" stroke-width="20" /><line x1="-1874.76" y1="-9699.982222222221" x2="-1413.33" y2="-9733.386666666665" stroke="#dfdfdf" stroke-width="20" /><line x1="1022.42" y1="-9104.995555555555" x2="1754.01" y2="-9209.066666666668" stroke="#dfdfdf" stroke-width="20" /><line x1="-4686.82" y1="-5722.417777777778" x2="-4430.61" y2="-6166.595555555556" stroke="#dfdfdf" stroke-width="20" /><line x1="-4700.79" y1="-7706.3644444444435" x2="-4415.08" y2="-7287.182222222222" stroke="#dfdfdf" stroke-width="20" /><line x1="-3694.24" y1="-6382.204444444444" x2="-4430.61" y2="-6166.595555555556" stroke="#dfdfdf" stroke-width="20" /><line x1="-796.105" y1="-9394.773333333333" x2="-1413.33" y2="-9733.386666666665" stroke="#dfdfdf" stroke-width="20" /><line x1="-3686.38" y1="-7107.395555555555" x2="-4415.08" y2="-7287.182222222222" stroke="#dfdfdf" stroke-width="20" /><circle cx="-2660.98" cy="-5301.173333333333" r="125" fill="#009aff" /><circle cx="672.061" cy="1694.839111111111" r="125" fill="#009aff" /><circle cx="23.1693" cy="-8958.737777777777" r="125" fill="#ff5f5f" /><circle cx="-2370.06" cy="-6768.017777777778" r="125" fill="#ff5f5f" /><circle cx="1035.17" cy="-3572.462222222222" r="125" fill="#ff5f5f" /><circle cx="-2376.12" cy="-270.2542222222222" r="125" fill="#ff5f5f" /><circle cx="1033.96" cy="2919.6622222222218" r="125" fill="#ff5f5f" /><circle cx="-2385.95" cy="6144.942222222222" r="125" fill="#ff5f5f" /><circle cx="-57.9715" cy="2640.6577777777775" r="125" fill="#009aff" /><circle cx="-3121.29" cy="-969.8506666666667" r="125" fill="#009aff" /><circle cx="-2673.99" cy="-8207.75111111111" r="125" fill="#009aff" /><circle cx="-2116.59" cy="-5309.564444444444" r="125" fill="#009aff" /><circle cx="-3123.93" cy="540.7342222222222" r="125" fill="#009aff" /><circle cx="1319.57" cy="4429.795555555555" r="125" fill="#009aff" /><circle cx="-822.848" cy="5844.782222222222" r="125" fill="#009aff" /><circle cx="-821.299" cy="6469.066666666666" r="125" fill="#009aff" /><circle cx="-2089.05" cy="-8203.893333333332" r="125" fill="#009aff" /><circle cx="-1366.61" cy="6149.2266666666665" r="125" fill="#009aff" /><circle cx="2689.67" cy="2629.102222222222" r="125" fill="#009aff" /><circle cx="2683.71" cy="3225.6" r="125" fill="#009aff" /><circle cx="1100.19" cy="7280.888888888889" r="125" fill="#009aff" /><circle cx="2819.05" cy="1304.9315555555554" r="125" fill="#009aff" /><circle cx="3169.71" cy="1777.0524444444443" r="125" fill="#009aff" /><circle cx="-2699.34" cy="-2424.142222222222" r="125" fill="#009aff" /><circle cx="-2035.77" cy="-2420.711111111111" r="125" fill="#009aff" /><circle cx="-4571.17" cy="-607.3137777777777" r="125" fill="#009aff" /><circle cx="-4591.41" cy="44.376355555555556" r="125" fill="#009aff" /><circle cx="-2672.82" cy="1906.2577777777776" r="125" fill="#009aff" /><circle cx="-2106.24" cy="1902.2399999999998" r="125" fill="#009aff" /><circle cx="3086.91" cy="4497.724444444444" r="125" fill="#009aff" /><circle cx="2264.82" cy="818.2186666666666" r="125" fill="#009aff" /><circle cx="-1186.55" cy="3470.204444444444" r="125" fill="#009aff" /><circle cx="3083.67" cy="-2575.4133333333334" r="125" fill="#009aff" /><circle cx="3026.55" cy="-4749.759999999999" r="125" fill="#009aff" /><circle cx="733.434" cy="-1321.7137777777778" r="125" fill="#009aff" /><circle cx="1351.19" cy="-1320.2168888888887" r="125" fill="#009aff" /><circle cx="1355.52" cy="-5837.866666666667" r="125" fill="#009aff" /><circle cx="-3789.53" cy="-4752.497777777778" r="125" fill="#009aff" /><circle cx="-4283.57" cy="-8344.462222222222" r="125" fill="#009aff" /><circle cx="-4861.84" cy="-7070.595555555556" r="125" fill="#009aff" /><circle cx="-4913.5" cy="-6321.671111111111" r="125" fill="#009aff" /><circle cx="-127.353" cy="-6463.8755555555545" r="125" fill="#009aff" /><circle cx="1409.56" cy="-7537.262222222222" r="125" fill="#009aff" /><circle cx="-191.272" cy="-10924.07111111111" r="125" fill="#009aff" /><circle cx="1500.18" cy="-10316.444444444443" r="125" fill="#009aff" /><circle cx="2094" cy="-9542.186666666665" r="125" fill="#009aff" /><circle cx="-1460.27" cy="-10174.488888888887" r="125" fill="#009aff" /><circle cx="-2.15405" cy="8336.017777777777" r="125" fill="#ff5f5f" /><circle cx="1044.55" cy="-2453.084444444444" r="125" fill="#009aff" /><circle cx="-3446.43" cy="-272.3644444444445" r="125" fill="#009aff" /><circle cx="-205.56" cy="-9811.786666666667" r="125" fill="#009aff" /><circle cx="-3274.62" cy="-7722.3822222222225" r="125" fill="#009aff" /><circle cx="2088.22" cy="2925.5822222222223" r="125" fill="#009aff" /><circle cx="-1160.51" cy="9434.062222222221" r="125" fill="#009aff" /><circle cx="-176.501" cy="9436.977777777778" r="125" fill="#009aff" /><circle cx="-1165.96" cy="8486.773333333334" r="125" fill="#009aff" /><circle cx="1034.56" cy="3928.817777777778" r="125" fill="#009aff" /><circle cx="-3198.23" cy="7193.653333333333" r="125" fill="#009aff" /><circle cx="-3516.29" cy="7643.519999999999" r="125" fill="#009aff" /><circle cx="-3252.22" cy="5213.422222222222" r="125" fill="#009aff" /><circle cx="-2375.02" cy="-7727.3244444444435" r="125" fill="#009aff" /><circle cx="-1275.68" cy="-268.96177777777774" r="125" fill="#009aff" /><circle cx="287.657" cy="1335.7422222222222" r="125" fill="#009aff" /><circle cx="-779.345" cy="2641.333333333333" r="125" fill="#009aff" /><circle cx="-812.64" cy="-3571.075555555555" r="125" fill="#009aff" /><circle cx="-2894.23" cy="7649.9911111111105" r="125" fill="#009aff" /><circle cx="255.718" cy="7282.311111111111" r="125" fill="#009aff" /><circle cx="1101.84" cy="8121.226666666666" r="125" fill="#009aff" /><circle cx="-293.808" cy="6142.844444444444" r="125" fill="#009aff" /><circle cx="-2900.14" cy="4696.124444444445" r="125" fill="#009aff" /><circle cx="286.1" cy="791.4595555555555" r="125" fill="#009aff" /><circle cx="1038.67" cy="1331.2337777777777" r="125" fill="#009aff" /><circle cx="-3236.55" cy="4191.804444444444" r="125" fill="#009aff" /><circle cx="-2378.5" cy="-5793.0488888888885" r="125" fill="#009aff" /><circle cx="1040.57" cy="793.7315555555555" r="125" fill="#009aff" /><circle cx="-69.2597" cy="-3568.817777777778" r="125" fill="#009aff" /><circle cx="-3592.2" cy="4702.488888888889" r="125" fill="#009aff" /><circle cx="-4696.75" cy="7178.3822222222225" r="125" fill="#009aff" /><circle cx="-2388.08" cy="8427.324444444444" r="125" fill="#009aff" /><circle cx="-4691.13" cy="5244.177777777777" r="125" fill="#009aff" /><circle cx="-2387.69" cy="3993.2088888888884" r="125" fill="#009aff" /><circle cx="-4292.4" cy="6664.924444444444" r="125" fill="#009aff" /><circle cx="-2089.01" cy="7912.586666666666" r="125" fill="#009aff" /><circle cx="-4288.23" cy="5748.675555555556" r="125" fill="#009aff" /><circle cx="-1998.38" cy="4485.742222222222" r="125" fill="#009aff" /><circle cx="-3549.65" cy="6650.5599999999995" r="125" fill="#009aff" /><circle cx="-2377.16" cy="7215.36" r="125" fill="#009aff" /><circle cx="-3549.28" cy="5775.075555555555" r="125" fill="#009aff" /><circle cx="-2378.16" cy="5152.444444444444" r="125" fill="#009aff" /><circle cx="2616.84" cy="4934.897777777777" r="125" fill="#009aff" /><circle cx="2078.62" cy="3928.9422222222224" r="125" fill="#009aff" /><circle cx="-1175.01" cy="2937.2799999999997" r="125" fill="#009aff" /><circle cx="2544.17" cy="-5230.435555555555" r="125" fill="#009aff" /><circle cx="-42.5753" cy="3191.6622222222218" r="125" fill="#009aff" /><circle cx="-2360.74" cy="-1301.2515555555553" r="125" fill="#009aff" /><circle cx="1867.15" cy="-4256.462222222222" r="125" fill="#009aff" /><circle cx="-2374.28" cy="773.9395555555556" r="125" fill="#009aff" /><circle cx="-4307.95" cy="-5165.902222222222" r="125" fill="#009aff" /><circle cx="1668.31" cy="581.5217777777777" r="125" fill="#009aff" /><circle cx="-3263.72" cy="-5787.3244444444435" r="125" fill="#009aff" /><circle cx="1544.25" cy="1685.2853333333333" r="125" fill="#009aff" /><circle cx="-3770.89" cy="-8802.666666666666" r="125" fill="#009aff" /><circle cx="1828.21" cy="-7964.373333333333" r="125" fill="#009aff" /><circle cx="-770.417" cy="-10793.973333333332" r="125" fill="#009aff" /><circle cx="2090.15" cy="2165.208888888889" r="125" fill="#009aff" /><circle cx="966.786" cy="-10769.404444444444" r="125" fill="#009aff" /><circle cx="776.315" cy="-8411.644444444444" r="125" fill="#009aff" /><circle cx="576.498" cy="-9724.444444444443" r="125" fill="#009aff" /><circle cx="2732.16" cy="-2097.617777777778" r="125" fill="#009aff" /><circle cx="2163.37" cy="-8966.026666666667" r="125" fill="#009aff" /><circle cx="-123.504" cy="-7045.6177777777775" r="125" fill="#009aff" /><circle cx="716.381" cy="-5835.395555555555" r="125" fill="#009aff" /><circle cx="1031.1" cy="-4675.644444444444" r="125" fill="#009aff" /><circle cx="1926.68" cy="-2968.711111111111" r="125" fill="#009aff" /><circle cx="-1315.07" cy="-6772.8355555555545" r="125" fill="#009aff" /><circle cx="-1874.76" cy="-9699.982222222221" r="125" fill="#009aff" /><circle cx="1022.42" cy="-9104.995555555555" r="125" fill="#009aff" /><circle cx="-4686.82" cy="-5722.417777777778" r="125" fill="#009aff" /><circle cx="-4700.79" cy="-7706.3644444444435" r="125" fill="#009aff" /><circle cx="-3694.24" cy="-6382.204444444444" r="125" fill="#009aff" /><circle cx="-796.105" cy="-9394.773333333333" r="125" fill="#009aff" /><circle cx="-3686.38" cy="-7107.395555555555" r="125" fill="#009aff" /><circle cx="1754.01" cy="-9209.066666666668" r="125" fill="#009aff" /><circle cx="1348.89" cy="-7977.742222222221" r="125" fill="#009aff" /><circle cx="-1413.33" cy="-9733.386666666665" r="125" fill="#009aff" /><circle cx="-374.552" cy="-10473.884444444444" r="125" fill="#009aff" /><circle cx="986.826" cy="-10284.266666666665" r="125" fill="#009aff" /><circle cx="-4415.08" cy="-7287.182222222222" r="125" fill="#009aff" /><circle cx="-3739.15" cy="-8318.00888888889" r="125" fill="#009aff" /><circle cx="-3790.85" cy="-5243.626666666666" r="125" fill="#009aff" /><circle cx="-4430.61" cy="-6166.595555555556" r="125" fill="#009aff" /><circle cx="-518.903" cy="-6776.248888888888" r="125" fill="#009aff" /><circle cx="2488.66" cy="-4734.844444444444" r="125" fill="#009aff" /><circle cx="1045.22" cy="-5453.44" r="125" fill="#009aff" /><circle cx="1043.39" cy="-1739.072" r="125" fill="#009aff" /><circle cx="2584.86" cy="-2544.853333333333" r="125" fill="#009aff" /><circle cx="-4213.81" cy="-269.1928888888889" r="125" fill="#009aff" /><circle cx="-2362.07" cy="-2058.72" r="125" fill="#009aff" /><circle cx="-2372.31" cy="1480.983111111111" r="125" fill="#009aff" /><circle cx="1823.05" cy="1000.6275555555554" r="125" fill="#009aff" /><circle cx="2687.1" cy="1752.695111111111" r="125" fill="#009aff" /><circle cx="2583.22" cy="4453.795555555555" r="125" fill="#009aff" /><circle cx="-792.716" cy="3195.3955555555553" r="125" fill="#009aff" /><circle cx="732.291" cy="4430.364444444444" r="125" fill="#009aff" /></svg>