<svg viewBox="-5044.88 -11278.5 8414.75 21152.5" xmlns="http://www.w3.org/2000/svg">
<style>svg { background-color: black; }</style>
<line x1="-2373.25" y1="7240.07" x2="-2388.76" y2="7947.56" stroke="#dfdfdf" stroke-width="20" />
<line x1="-3562.31" y1="5802.13" x2="-4045.78" y2="5264.36" stroke="#dfdfdf" stroke-width="20" />
<line x1="-2379.36" y1="5141.65" x2="-2386.43" y2="4341.16" stroke="#dfdfdf" stroke-width="20" />
<line x1="-4045.78" y1="5264.36" x2="-4719.52" y2="5268.89" stroke="#dfdfdf" stroke-width="20" />
<line x1="-2388.76" y1="7947.56" x2="-3136.39" y2="7949.53" stroke="#dfdfdf" stroke-width="20" />
<line x1="1.76319" y1="8349.12" x2="-7.16785" y2="7209.64" stroke="#dfdfdf" stroke-width="20" />
<line x1="1.76319" y1="8349.12" x2="-4.18351" y2="9574.03" stroke="#dfdfdf" stroke-width="20" />
<line x1="1320.76" y1="8346.44" x2="1.76319" y2="8349.12" stroke="#dfdfdf" stroke-width="20" />
<line x1="1.76319" y1="8349.12" x2="-1368.29" y2="8343.96" stroke="#dfdfdf" stroke-width="20" />
<line x1="-2386.43" y1="4341.16" x2="-3134.6" y2="4342.45" stroke="#dfdfdf" stroke-width="20" />
<line x1="1037.87" y1="-1687.38" x2="1031.94" y2="-2502.86" stroke="#dfdfdf" stroke-width="20" />
<line x1="-41.1166" y1="2935.75" x2="-586.453" y2="2591.13" stroke="#dfdfdf" stroke-width="20" />
<line x1="-41.1166" y1="2935.75" x2="-586.833" y2="3278.03" stroke="#dfdfdf" stroke-width="20" />
<line x1="-586.453" y1="2591.13" x2="-1107.67" y2="2939.63" stroke="#dfdfdf" stroke-width="20" />
<line x1="-586.833" y1="3278.03" x2="-1107.67" y2="2939.63" stroke="#dfdfdf" stroke-width="20" />
<line x1="657.102" y1="1314.13" x2="272.667" y2="765.456" stroke="#dfdfdf" stroke-width="20" />
<line x1="1419.92" y1="1307.7" x2="1044.88" y2="767.028" stroke="#dfdfdf" stroke-width="20" />
<line x1="1030.96" y1="3933.21" x2="663.676" y2="4416.55" stroke="#dfdfdf" stroke-width="20" />
<line x1="1404.24" y1="4415.29" x2="1030.96" y2="3933.21" stroke="#dfdfdf" stroke-width="20" />
<line x1="1404.24" y1="4415.29" x2="1030.69" y2="4920.8" stroke="#dfdfdf" stroke-width="20" />
<line x1="1030.69" y1="4920.8" x2="663.676" y2="4416.55" stroke="#dfdfdf" stroke-width="20" />
<line x1="-2967.6" y1="6886.7" x2="-3283.41" y2="7314.04" stroke="#dfdfdf" stroke-width="20" />
<line x1="-521.155" y1="6150.84" x2="-1312.13" y2="6147.82" stroke="#dfdfdf" stroke-width="20" />
<line x1="-3592.72" y1="6442.54" x2="-3992.05" y2="6885.69" stroke="#dfdfdf" stroke-width="20" />
<line x1="1044.88" y1="767.028" x2="657.102" y2="1314.13" stroke="#dfdfdf" stroke-width="20" />
<line x1="-412.104" y1="-9869.55" x2="-760.572" y2="-10483.8" stroke="#dfdfdf" stroke-width="20" />
<line x1="-760.572" y1="-10483.8" x2="-1241.42" y2="-10652" stroke="#dfdfdf" stroke-width="20" />
<line x1="-719.83" y1="-10977.8" x2="-760.572" y2="-10483.8" stroke="#dfdfdf" stroke-width="20" />
<line x1="-973.969" y1="-9307.61" x2="-1638.21" y2="-9527.82" stroke="#dfdfdf" stroke-width="20" />
<line x1="-1638.21" y1="-9527.82" x2="-1820.02" y2="-9975.75" stroke="#dfdfdf" stroke-width="20" />
<line x1="-1638.21" y1="-9527.82" x2="-2121.48" y2="-9334.01" stroke="#dfdfdf" stroke-width="20" />
<line x1="736.781" y1="-10489.6" x2="452.323" y2="-9897.56" stroke="#dfdfdf" stroke-width="20" />
<line x1="1238.44" y1="-10707.3" x2="736.781" y2="-10489.6" stroke="#dfdfdf" stroke-width="20" />
<line x1="736.781" y1="-10489.6" x2="680.137" y2="-10978.5" stroke="#dfdfdf" stroke-width="20" />
<line x1="1777.84" y1="-9525.23" x2="1000.34" y2="-9278.54" stroke="#dfdfdf" stroke-width="20" />
<line x1="2299.28" y1="-9388.6" x2="1777.84" y2="-9525.23" stroke="#dfdfdf" stroke-width="20" />
<line x1="2002.52" y1="-10026.4" x2="1777.84" y2="-9525.23" stroke="#dfdfdf" stroke-width="20" />
<line x1="-3451.4" y1="-6462.97" x2="-4208.69" y2="-6248.84" stroke="#dfdfdf" stroke-width="20" />
<line x1="-4208.69" y1="-6248.84" x2="-4557.12" y2="-5819.24" stroke="#dfdfdf" stroke-width="20" />
<line x1="-4208.69" y1="-6248.84" x2="-4744.88" y2="-6405.42" stroke="#dfdfdf" stroke-width="20" />
<line x1="-2926.32" y1="-5856.55" x2="-3512.78" y2="-5210.31" stroke="#dfdfdf" stroke-width="20" />
<line x1="-3512.78" y1="-5210.31" x2="-4045.38" y2="-5060.37" stroke="#dfdfdf" stroke-width="20" />
<line x1="-3512.78" y1="-5210.31" x2="-3559.6" y2="-4673.87" stroke="#dfdfdf" stroke-width="20" />
<line x1="-3449.18" y1="-7217.71" x2="-4189.68" y2="-7488.75" stroke="#dfdfdf" stroke-width="20" />
<line x1="-4189.68" y1="-7488.75" x2="-4460.65" y2="-7943.32" stroke="#dfdfdf" stroke-width="20" />
<line x1="-4189.68" y1="-7488.75" x2="-4704.97" y2="-7344.55" stroke="#dfdfdf" stroke-width="20" />
<line x1="-2920.32" y1="-7749.58" x2="-3305.57" y2="-8433.49" stroke="#dfdfdf" stroke-width="20" />
<line x1="-3255.02" y1="-8922.42" x2="-3305.57" y2="-8433.49" stroke="#dfdfdf" stroke-width="20" />
<line x1="-3305.57" y1="-8433.49" x2="-3819.16" y2="-8624.34" stroke="#dfdfdf" stroke-width="20" />
<line x1="-427.477" y1="-6773.14" x2="-1261.74" y2="-6774.9" stroke="#dfdfdf" stroke-width="20" />
<line x1="-2.19624" y1="-6438.08" x2="-427.477" y2="-6773.14" stroke="#dfdfdf" stroke-width="20" />
<line x1="2.95512" y1="-7093.46" x2="-427.477" y2="-6773.14" stroke="#dfdfdf" stroke-width="20" />
<line x1="-101.64" y1="-3579.24" x2="-889.885" y2="-3579.68" stroke="#dfdfdf" stroke-width="20" />
<line x1="-889.885" y1="-3579.68" x2="-1334.18" y2="-3937.1" stroke="#dfdfdf" stroke-width="20" />
<line x1="-889.885" y1="-3579.68" x2="-1329.46" y2="-3220.69" stroke="#dfdfdf" stroke-width="20" />
<line x1="1051.5" y1="-4563.29" x2="1047.91" y2="-5366.13" stroke="#dfdfdf" stroke-width="20" />
<line x1="1047.91" y1="-5366.13" x2="690.965" y2="-5788.48" stroke="#dfdfdf" stroke-width="20" />
<line x1="1429.48" y1="-5791.22" x2="1047.91" y2="-5366.13" stroke="#dfdfdf" stroke-width="20" />
<line x1="2489.44" y1="-2298.4" x2="1861.45" y2="-2794.74" stroke="#dfdfdf" stroke-width="20" />
<line x1="2577.4" y1="-1814.49" x2="2489.44" y2="-2298.4" stroke="#dfdfdf" stroke-width="20" />
<line x1="3034.48" y1="-2264.55" x2="2489.44" y2="-2298.4" stroke="#dfdfdf" stroke-width="20" />
<line x1="-3283.12" y1="-1113.93" x2="-3920.94" y2="-1652.13" stroke="#dfdfdf" stroke-width="20" />
<line x1="-3920.94" y1="-1652.13" x2="-3990.52" y2="-2143.38" stroke="#dfdfdf" stroke-width="20" />
<line x1="-3920.94" y1="-1652.13" x2="-4478.02" y2="-1605.57" stroke="#dfdfdf" stroke-width="20" />
<line x1="-3292.05" y1="572.14" x2="-3892.22" y2="1114.95" stroke="#dfdfdf" stroke-width="20" />
<line x1="-3892.22" y1="1114.95" x2="-4431.68" y2="1105.05" stroke="#dfdfdf" stroke-width="20" />
<line x1="-3892.22" y1="1114.95" x2="-3997.95" y2="1615.52" stroke="#dfdfdf" stroke-width="20" />
<line x1="2518.94" y1="1539.54" x2="1926.22" y2="2122.95" stroke="#dfdfdf" stroke-width="20" />
<line x1="3036.72" y1="1554.02" x2="2518.94" y2="1539.54" stroke="#dfdfdf" stroke-width="20" />
<line x1="2563.25" y1="1042.01" x2="2518.94" y2="1539.54" stroke="#dfdfdf" stroke-width="20" />
<line x1="2513.67" y1="4169.92" x2="1920.63" y2="3699.64" stroke="#dfdfdf" stroke-width="20" />
<line x1="3069.87" y1="4175.84" x2="2513.67" y2="4169.92" stroke="#dfdfdf" stroke-width="20" />
<line x1="2613.45" y1="4687.04" x2="2513.67" y2="4169.92" stroke="#dfdfdf" stroke-width="20" />
<line x1="23.5314" y1="-8952.14" x2="-412.104" y2="-9869.55" stroke="#dfdfdf" stroke-width="20" />
<line x1="23.5314" y1="-8952.14" x2="-973.969" y2="-9307.61" stroke="#dfdfdf" stroke-width="20" />
<line x1="452.323" y1="-9897.56" x2="23.5314" y2="-8952.14" stroke="#dfdfdf" stroke-width="20" />
<line x1="1000.34" y1="-9278.54" x2="23.5314" y2="-8952.14" stroke="#dfdfdf" stroke-width="20" />
<line x1="-2364.02" y1="-6774.29" x2="-3451.4" y2="-6462.97" stroke="#dfdfdf" stroke-width="20" />
<line x1="-2364.02" y1="-6774.29" x2="-2926.32" y2="-5856.55" stroke="#dfdfdf" stroke-width="20" />
<line x1="-2364.02" y1="-6774.29" x2="-3449.18" y2="-7217.71" stroke="#dfdfdf" stroke-width="20" />
<line x1="-2364.02" y1="-6774.29" x2="-2920.32" y2="-7749.58" stroke="#dfdfdf" stroke-width="20" />
<line x1="-1261.74" y1="-6774.9" x2="-2364.02" y2="-6774.29" stroke="#dfdfdf" stroke-width="20" />
<line x1="1038.47" y1="-3572.02" x2="-101.64" y2="-3579.24" stroke="#dfdfdf" stroke-width="20" />
<line x1="1038.47" y1="-3572.02" x2="1031.94" y2="-2502.86" stroke="#dfdfdf" stroke-width="20" />
<line x1="1840.53" y1="-4340.85" x2="1038.47" y2="-3572.02" stroke="#dfdfdf" stroke-width="20" />
<line x1="1051.5" y1="-4563.29" x2="1038.47" y2="-3572.02" stroke="#dfdfdf" stroke-width="20" />
<line x1="1861.45" y1="-2794.74" x2="1038.47" y2="-3572.02" stroke="#dfdfdf" stroke-width="20" />
<line x1="-2377.77" y1="-281.996" x2="-3283.12" y2="-1113.93" stroke="#dfdfdf" stroke-width="20" />
<line x1="-2377.77" y1="-281.996" x2="-2383.63" y2="865.321" stroke="#dfdfdf" stroke-width="20" />
<line x1="-2377.77" y1="-281.996" x2="-3494.6" y2="-276.366" stroke="#dfdfdf" stroke-width="20" />
<line x1="1419.92" y1="1307.7" x2="1040.14" y2="1835.59" stroke="#dfdfdf" stroke-width="20" />
<line x1="1040.14" y1="1835.59" x2="657.102" y2="1314.13" stroke="#dfdfdf" stroke-width="20" />
<line x1="-2377.77" y1="-281.996" x2="-3292.05" y2="572.14" stroke="#dfdfdf" stroke-width="20" />
<line x1="1926.22" y1="2122.95" x2="1037.78" y2="2935.45" stroke="#dfdfdf" stroke-width="20" />
<line x1="1037.78" y1="2935.45" x2="-41.1166" y2="2935.75" stroke="#dfdfdf" stroke-width="20" />
<line x1="1040.14" y1="1835.59" x2="1037.78" y2="2935.45" stroke="#dfdfdf" stroke-width="20" />
<line x1="1920.63" y1="3699.64" x2="1037.78" y2="2935.45" stroke="#dfdfdf" stroke-width="20" />
<line x1="1037.78" y1="2935.45" x2="1030.96" y2="3933.21" stroke="#dfdfdf" stroke-width="20" />
<line x1="-2380.07" y1="6145.05" x2="-2967.6" y2="6886.7" stroke="#dfdfdf" stroke-width="20" />
<line x1="-2380.07" y1="6145.05" x2="-3562.31" y2="5802.13" stroke="#dfdfdf" stroke-width="20" />
<line x1="-2380.07" y1="6145.05" x2="-3592.72" y2="6442.54" stroke="#dfdfdf" stroke-width="20" />
<line x1="-2379.36" y1="5141.65" x2="-2380.07" y2="6145.05" stroke="#dfdfdf" stroke-width="20" />
<line x1="-1312.13" y1="6147.82" x2="-2380.07" y2="6145.05" stroke="#dfdfdf" stroke-width="20" />
<line x1="-2373.25" y1="7240.07" x2="-2380.07" y2="6145.05" stroke="#dfdfdf" stroke-width="20" />
<line x1="-3283.41" y1="7314.04" x2="-3592.72" y2="6442.54" stroke="#dfdfdf" stroke-width="20" />
<line x1="-2380.07" y1="6145.05" x2="-3061.1" y2="5349.39" stroke="#dfdfdf" stroke-width="20" />
<line x1="2163.42" y1="-3572.6" x2="1038.47" y2="-3572.02" stroke="#dfdfdf" stroke-width="20" />
<line x1="-2375.3" y1="-1310.02" x2="-2377.77" y2="-281.996" stroke="#dfdfdf" stroke-width="20" />
<line x1="-1224.18" y1="-274.588" x2="-2377.77" y2="-281.996" stroke="#dfdfdf" stroke-width="20" />
<line x1="2121.41" y1="2945.74" x2="1037.78" y2="2935.45" stroke="#dfdfdf" stroke-width="20" />
<line x1="-2065.92" y1="-7748.21" x2="-2364.02" y2="-6774.29" stroke="#dfdfdf" stroke-width="20" />
<line x1="-2063.64" y1="-8373.44" x2="-2065.92" y2="-7748.21" stroke="#dfdfdf" stroke-width="20" />
<line x1="-2063.75" y1="-5834.12" x2="-2364.02" y2="-6774.29" stroke="#dfdfdf" stroke-width="20" />
<circle cx="-1261.74" cy="-6774.9" r="125" fill="#009aff"><title>dwID: 1
gbidReward: 10c28420
bRootNode: false</title></circle>
<circle cx="1000.34" cy="-9278.54" r="125" fill="#009aff"><title>dwID: 2
gbidReward: 26217929
bRootNode: false</title></circle>
<circle cx="2.95512" cy="-7093.46" r="125" fill="#009aff"><title>dwID: 4
gbidReward: 4ab8b5f4
bRootNode: false</title></circle>
<circle cx="-973.969" cy="-9307.61" r="125" fill="#009aff"><title>dwID: 6
gbidReward: 109debe9
bRootNode: false</title></circle>
<circle cx="-2121.48" cy="-9334.01" r="125" fill="#009aff"><title>dwID: 8
gbidReward: f68f909d
bRootNode: false</title></circle>
<circle cx="2299.28" cy="-9388.6" r="125" fill="#009aff"><title>dwID: 9
gbidReward: a372045d
bRootNode: false</title></circle>
<circle cx="1051.5" cy="-4563.29" r="125" fill="#009aff"><title>dwID: 10
gbidReward: af39d72e
bRootNode: false</title></circle>
<circle cx="-3451.4" cy="-6462.97" r="125" fill="#009aff"><title>dwID: 11
gbidReward: 8af8f63b
bRootNode: false</title></circle>
<circle cx="-412.104" cy="-9869.55" r="125" fill="#009aff"><title>dwID: 13
gbidReward: 874fa920
bRootNode: false</title></circle>
<circle cx="-4744.88" cy="-6405.42" r="125" fill="#009aff"><title>dwID: 14
gbidReward: 5a5856af
bRootNode: false</title></circle>
<circle cx="-1241.42" cy="-10652" r="125" fill="#009aff"><title>dwID: 17
gbidReward: 666fbaf4
bRootNode: false</title></circle>
<circle cx="1429.48" cy="-5791.22" r="125" fill="#009aff"><title>dwID: 18
gbidReward: d2037daa
bRootNode: false</title></circle>
<circle cx="-4557.12" cy="-5819.24" r="125" fill="#009aff"><title>dwID: 20
gbidReward: 5a5856b0
bRootNode: false</title></circle>
<circle cx="-2926.32" cy="-5856.55" r="125" fill="#009aff"><title>dwID: 22
gbidReward: 246dd9e6
bRootNode: false</title></circle>
<circle cx="-3559.6" cy="-4673.87" r="125" fill="#009aff"><title>dwID: 23
gbidReward: a72a0562
bRootNode: false</title></circle>
<circle cx="-101.64" cy="-3579.24" r="125" fill="#009aff"><title>dwID: 24
gbidReward: 339dbe2e
bRootNode: false</title></circle>
<circle cx="1920.63" cy="3699.64" r="125" fill="#009aff"><title>dwID: 26
gbidReward: 29158140
bRootNode: false</title></circle>
<circle cx="-3449.18" cy="-7217.71" r="125" fill="#009aff"><title>dwID: 27
gbidReward: 96e7def7
bRootNode: false</title></circle>
<circle cx="452.323" cy="-9897.56" r="125" fill="#009aff"><title>dwID: 29
gbidReward: c7cb3c03
bRootNode: false</title></circle>
<circle cx="-4460.65" cy="-7943.32" r="125" fill="#009aff"><title>dwID: 32
gbidReward: 86eca213
bRootNode: false</title></circle>
<circle cx="1861.45" cy="-2794.74" r="125" fill="#009aff"><title>dwID: 35
gbidReward: 1f8bb895
bRootNode: false</title></circle>
<circle cx="-3819.16" cy="-8624.34" r="125" fill="#009aff"><title>dwID: 37
gbidReward: db7e0611
bRootNode: false</title></circle>
<circle cx="2577.4" cy="-1814.49" r="125" fill="#009aff"><title>dwID: 39
gbidReward: 233777c9
bRootNode: false</title></circle>
<circle cx="3069.87" cy="4175.84" r="125" fill="#009aff"><title>dwID: 40
gbidReward: b293e67c
bRootNode: false</title></circle>
<circle cx="-3283.12" cy="-1113.93" r="125" fill="#009aff"><title>dwID: 43
gbidReward: 34d42467
bRootNode: false</title></circle>
<circle cx="1926.22" cy="2122.95" r="125" fill="#009aff"><title>dwID: 46
gbidReward: d00c6252
bRootNode: false</title></circle>
<circle cx="-3997.95" cy="1615.52" r="125" fill="#009aff"><title>dwID: 50
gbidReward: 52f72c31
bRootNode: false</title></circle>
<circle cx="-1329.46" cy="-3220.69" r="125" fill="#009aff"><title>dwID: 56
gbidReward: 51618c43
bRootNode: false</title></circle>
<circle cx="-3562.31" cy="5802.13" r="125" fill="#009aff"><title>dwID: 58
gbidReward: 8d602cde
bRootNode: false</title></circle>
<circle cx="-2373.25" cy="7240.07" r="125" fill="#009aff"><title>dwID: 60
gbidReward: 10c4e25a
bRootNode: false</title></circle>
<circle cx="-2379.36" cy="5141.65" r="125" fill="#009aff"><title>dwID: 61
gbidReward: af3f3144
bRootNode: false</title></circle>
<circle cx="-4478.02" cy="-1605.57" r="125" fill="#009aff"><title>dwID: 63
gbidReward: b13eaf5b
bRootNode: false</title></circle>
<circle cx="-4045.78" cy="5264.36" r="125" fill="#009aff"><title>dwID: 67
gbidReward: 149a432a
bRootNode: false</title></circle>
<circle cx="-2388.76" cy="7947.56" r="125" fill="#009aff"><title>dwID: 68
gbidReward: 972621ee
bRootNode: false</title></circle>
<circle cx="-2386.43" cy="4341.16" r="125" fill="#009aff"><title>dwID: 69
gbidReward: 86a60098
bRootNode: false</title></circle>
<circle cx="23.5314" cy="-8952.14" r="125" fill="#ff5f5f"><title>dwID: 70
gbidReward: ffffffff
bRootNode: true</title></circle>
<circle cx="-1107.67" cy="2939.63" r="125" fill="#009aff"><title>dwID: 77
gbidReward: b92c8518
bRootNode: false</title></circle>
<circle cx="-586.453" cy="2591.13" r="125" fill="#009aff"><title>dwID: 78
gbidReward: 9b9d80f4
bRootNode: false</title></circle>
<circle cx="1419.92" cy="1307.7" r="125" fill="#009aff"><title>dwID: 79
gbidReward: 3e45cf76
bRootNode: false</title></circle>
<circle cx="-1312.13" cy="6147.82" r="125" fill="#009aff"><title>dwID: 80
gbidReward: b92bf8b7
bRootNode: false</title></circle>
<circle cx="1404.24" cy="4415.29" r="125" fill="#009aff"><title>dwID: 81
gbidReward: b92d117a
bRootNode: false</title></circle>
<circle cx="-41.1166" cy="2935.75" r="125" fill="#009aff"><title>dwID: 82
gbidReward: b92d9dda
bRootNode: false</title></circle>
<circle cx="-2063.64" cy="-8373.44" r="125" fill="#009aff"><title>dwID: 83
gbidReward: b92d1179
bRootNode: false</title></circle>
<circle cx="1030.96" cy="3933.21" r="125" fill="#009aff"><title>dwID: 84
gbidReward: b92d9ddc
bRootNode: false</title></circle>
<circle cx="-7.16785" cy="7209.64" r="125" fill="#009aff"><title>dwID: 85
gbidReward: b92e2a3b
bRootNode: false</title></circle>
<circle cx="-4.18351" cy="9574.03" r="125" fill="#009aff"><title>dwID: 86
gbidReward: b92e2a3c
bRootNode: false</title></circle>
<circle cx="663.676" cy="4416.55" r="125" fill="#009aff"><title>dwID: 87
gbidReward: d520f17c
bRootNode: false</title></circle>
<circle cx="657.102" cy="1314.13" r="125" fill="#009aff"><title>dwID: 88
gbidReward: b92c8519
bRootNode: false</title></circle>
<circle cx="-2967.6" cy="6886.7" r="125" fill="#009aff"><title>dwID: 89
gbidReward: 3e442a52
bRootNode: false</title></circle>
<circle cx="1030.69" cy="4920.8" r="125" fill="#009aff"><title>dwID: 90
gbidReward: 3e442a53
bRootNode: false</title></circle>
<circle cx="1031.94" cy="-2502.86" r="125" fill="#009aff"><title>dwID: 91
gbidReward: 9b9d80f7
bRootNode: false</title></circle>
<circle cx="-2063.75" cy="-5834.12" r="125" fill="#009aff"><title>dwID: 92
gbidReward: 3e44b6b4
bRootNode: false</title></circle>
<circle cx="2121.41" cy="2945.74" r="125" fill="#009aff"><title>dwID: 93
gbidReward: 9b9d80fa
bRootNode: false</title></circle>
<circle cx="-3592.72" cy="6442.54" r="125" fill="#009aff"><title>dwID: 94
gbidReward: 3e45cf75
bRootNode: false</title></circle>
<circle cx="-521.155" cy="6150.84" r="125" fill="#009aff"><title>dwID: 95
gbidReward: 9b9d80f9
bRootNode: false</title></circle>
<circle cx="272.667" cy="765.456" r="125" fill="#009aff"><title>dwID: 96
gbidReward: 3e45cf77
bRootNode: false</title></circle>
<circle cx="1044.88" cy="767.028" r="125" fill="#009aff"><title>dwID: 97
gbidReward: d520f17d
bRootNode: false</title></circle>
<circle cx="1320.76" cy="8346.44" r="125" fill="#009aff"><title>dwID: 98
gbidReward: 3e465bd6
bRootNode: false</title></circle>
<circle cx="-1368.29" cy="8343.96" r="125" fill="#009aff"><title>dwID: 99
gbidReward: 3e465bd7
bRootNode: false</title></circle>
<circle cx="-3992.05" cy="6885.69" r="125" fill="#009aff"><title>dwID: 76
gbidReward: 3e44b6b3
bRootNode: false</title></circle>
<circle cx="-3134.6" cy="4342.45" r="125" fill="#009aff"><title>dwID: 197
gbidReward: 86a60099
bRootNode: false</title></circle>
<circle cx="-3136.39" cy="7949.53" r="125" fill="#009aff"><title>dwID: 199
gbidReward: 972621ef
bRootNode: false</title></circle>
<circle cx="-4719.52" cy="5268.89" r="125" fill="#009aff"><title>dwID: 201
gbidReward: 149a432b
bRootNode: false</title></circle>
<circle cx="1.76319" cy="8349.12" r="125" fill="#ff5f5f"><title>dwID: 203
gbidReward: ffffffff
bRootNode: true</title></circle>
<circle cx="-2920.32" cy="-7749.58" r="125" fill="#009aff"><title>dwID: 216
gbidReward: 965e2a54
bRootNode: false</title></circle>
<circle cx="-3292.05" cy="572.14" r="125" fill="#009aff"><title>dwID: 53
gbidReward: 8dbe43dc
bRootNode: false</title></circle>
<circle cx="-1820.02" cy="-9975.75" r="125" fill="#009aff"><title>dwID: 222
gbidReward: f68f909e
bRootNode: false</title></circle>
<circle cx="2002.52" cy="-10026.4" r="125" fill="#009aff"><title>dwID: 223
gbidReward: a372045e
bRootNode: false</title></circle>
<circle cx="1238.44" cy="-10707.3" r="125" fill="#009aff"><title>dwID: 42
gbidReward: 81c7f177
bRootNode: false</title></circle>
<circle cx="680.137" cy="-10978.5" r="125" fill="#009aff"><title>dwID: 224
gbidReward: 81c7f178
bRootNode: false</title></circle>
<circle cx="-719.83" cy="-10977.8" r="125" fill="#009aff"><title>dwID: 226
gbidReward: 666fbaf5
bRootNode: false</title></circle>
<circle cx="-4431.68" cy="1105.05" r="125" fill="#009aff"><title>dwID: 227
gbidReward: 52f72c30
bRootNode: false</title></circle>
<circle cx="-4045.38" cy="-5060.37" r="125" fill="#009aff"><title>dwID: 228
gbidReward: a72a0563
bRootNode: false</title></circle>
<circle cx="-4704.97" cy="-7344.55" r="125" fill="#009aff"><title>dwID: 229
gbidReward: 86eca214
bRootNode: false</title></circle>
<circle cx="-3255.02" cy="-8922.42" r="125" fill="#009aff"><title>dwID: 230
gbidReward: db7e0610
bRootNode: false</title></circle>
<circle cx="690.965" cy="-5788.48" r="125" fill="#009aff"><title>dwID: 233
gbidReward: d2037dab
bRootNode: false</title></circle>
<circle cx="2613.45" cy="4687.04" r="125" fill="#009aff"><title>dwID: 234
gbidReward: b293e67d
bRootNode: false</title></circle>
<circle cx="3034.48" cy="-2264.55" r="125" fill="#009aff"><title>dwID: 235
gbidReward: 233777ca
bRootNode: false</title></circle>
<circle cx="2563.25" cy="1042.01" r="125" fill="#009aff"><title>dwID: 66
gbidReward: f87465ce
bRootNode: false</title></circle>
<circle cx="3036.72" cy="1554.02" r="125" fill="#009aff"><title>dwID: 237
gbidReward: f87465cf
bRootNode: false</title></circle>
<circle cx="-3990.52" cy="-2143.38" r="125" fill="#009aff"><title>dwID: 238
gbidReward: b13eaf5c
bRootNode: false</title></circle>
<circle cx="-1334.18" cy="-3937.1" r="125" fill="#009aff"><title>dwID: 240
gbidReward: 51618c42
bRootNode: false</title></circle>
<circle cx="2163.42" cy="-3572.6" r="125" fill="#009aff"><title>dwID: 314
gbidReward: b3aef4be
bRootNode: false</title></circle>
<circle cx="-2383.63" cy="865.321" r="125" fill="#009aff"><title>dwID: 323
gbidReward: e084ca92
bRootNode: false</title></circle>
<circle cx="-3061.1" cy="5349.39" r="125" fill="#009aff"><title>dwID: 326
gbidReward: 1d3a6887
bRootNode: false</title></circle>
<circle cx="-2.19624" cy="-6438.08" r="125" fill="#009aff"><title>dwID: 7
gbidReward: 4ab8b5f5
bRootNode: false</title></circle>
<circle cx="-586.833" cy="3278.03" r="125" fill="#009aff"><title>dwID: 341
gbidReward: b92bf8b8
bRootNode: false</title></circle>
<circle cx="-3283.41" cy="7314.04" r="125" fill="#009aff"><title>dwID: 342
gbidReward: 9b9d80f5
bRootNode: false</title></circle>
<circle cx="1037.87" cy="-1687.38" r="125" fill="#009aff"><title>dwID: 343
gbidReward: 3e454315
bRootNode: false</title></circle>
<circle cx="1040.14" cy="1835.59" r="125" fill="#009aff"><title>dwID: 344
gbidReward: b92d9ddb
bRootNode: false</title></circle>
<circle cx="-2065.92" cy="-7748.21" r="125" fill="#009aff"><title>dwID: 345
gbidReward: 9b9d80f6
bRootNode: false</title></circle>
<circle cx="-1224.18" cy="-274.588" r="125" fill="#009aff"><title>dwID: 346
gbidReward: 9b9d80f8
bRootNode: false</title></circle>
<circle cx="-2375.3" cy="-1310.02" r="125" fill="#009aff"><title>dwID: 347
gbidReward: 9b9d80fc
bRootNode: false</title></circle>
<circle cx="1840.53" cy="-4340.85" r="125" fill="#009aff"><title>dwID: 349
gbidReward: 9b9d8114
bRootNode: false</title></circle>
<circle cx="-3494.6" cy="-276.366" r="125" fill="#009aff"><title>dwID: 350
gbidReward: 3e454314
bRootNode: false</title></circle>
<circle cx="-2364.02" cy="-6774.29" r="125" fill="#ff5f5f"><title>dwID: 368
gbidReward: ffffffff
bRootNode: true</title></circle>
<circle cx="-2377.77" cy="-281.996" r="125" fill="#ff5f5f"><title>dwID: 370
gbidReward: ffffffff
bRootNode: true</title></circle>
<circle cx="1037.78" cy="2935.45" r="125" fill="#ff5f5f"><title>dwID: 371
gbidReward: ffffffff
bRootNode: true</title></circle>
<circle cx="-2380.07" cy="6145.05" r="125" fill="#ff5f5f"><title>dwID: 372
gbidReward: ffffffff
bRootNode: true</title></circle>
<circle cx="1038.47" cy="-3572.02" r="125" fill="#ff5f5f"><title>dwID: 381
gbidReward: ffffffff
bRootNode: true</title></circle>
<circle cx="-760.572" cy="-10483.8" r="125" fill="#009aff"><title>dwID: 464
gbidReward: 666fbaf6
bRootNode: false</title></circle>
<circle cx="-1638.21" cy="-9527.82" r="125" fill="#009aff"><title>dwID: 465
gbidReward: f68f909f
bRootNode: false</title></circle>
<circle cx="736.781" cy="-10489.6" r="125" fill="#009aff"><title>dwID: 466
gbidReward: 81c7f179
bRootNode: false</title></circle>
<circle cx="1777.84" cy="-9525.23" r="125" fill="#009aff"><title>dwID: 467
gbidReward: a372045f
bRootNode: false</title></circle>
<circle cx="-4208.69" cy="-6248.84" r="125" fill="#009aff"><title>dwID: 468
gbidReward: 5a5856b1
bRootNode: false</title></circle>
<circle cx="-3512.78" cy="-5210.31" r="125" fill="#009aff"><title>dwID: 469
gbidReward: 92ecd8e4
bRootNode: false</title></circle>
<circle cx="-4189.68" cy="-7488.75" r="125" fill="#009aff"><title>dwID: 470
gbidReward: 6b030bb5
bRootNode: false</title></circle>
<circle cx="-3305.57" cy="-8433.49" r="125" fill="#009aff"><title>dwID: 471
gbidReward: 51c0ef52
bRootNode: false</title></circle>
<circle cx="-427.477" cy="-6773.14" r="125" fill="#009aff"><title>dwID: 472
gbidReward: 4ab8b5f6
bRootNode: false</title></circle>
<circle cx="-889.885" cy="-3579.68" r="125" fill="#009aff"><title>dwID: 473
gbidReward: 51618c44
bRootNode: false</title></circle>
<circle cx="1047.91" cy="-5366.13" r="125" fill="#009aff"><title>dwID: 474
gbidReward: 18f55a2c
bRootNode: false</title></circle>
<circle cx="2489.44" cy="-2298.4" r="125" fill="#009aff"><title>dwID: 475
gbidReward: 233777cb
bRootNode: false</title></circle>
<circle cx="-3920.94" cy="-1652.13" r="125" fill="#009aff"><title>dwID: 476
gbidReward: b13eaf5d
bRootNode: false</title></circle>
<circle cx="-3892.22" cy="1114.95" r="125" fill="#009aff"><title>dwID: 477
gbidReward: 52f72c32
bRootNode: false</title></circle>
<circle cx="2518.94" cy="1539.54" r="125" fill="#009aff"><title>dwID: 478
gbidReward: d8346d0
bRootNode: false</title></circle>
<circle cx="2513.67" cy="4169.92" r="125" fill="#009aff"><title>dwID: 479
gbidReward: b92dd3e
bRootNode: false</title></circle>
</svg>