<svg viewBox="-5044.88 -11278.488888888887 8414.75 21152.515555555554" xmlns="http://www.w3.org/2000/svg">
<style>
  svg {
    background-color: black;
  }
</style>
<line x1="-1261.74" y1="-6774.897777777777" x2="-427.477" y2="-6773.137777777777" stroke="#dfdfdf" stroke-width="20" /><line x1="-1261.74" y1="-6774.897777777777" x2="-2364.02" y2="-6774.293333333333" stroke="#dfdfdf" stroke-width="20" /><line x1="1000.34" y1="-9278.542222222222" x2="1777.84" y2="-9525.226666666666" stroke="#dfdfdf" stroke-width="20" /><line x1="1000.34" y1="-9278.542222222222" x2="23.5314" y2="-8952.14222222222" stroke="#dfdfdf" stroke-width="20" /><line x1="2.95512" y1="-7093.457777777778" x2="-427.477" y2="-6773.137777777777" stroke="#dfdfdf" stroke-width="20" /><line x1="-973.969" y1="-9307.608888888888" x2="-1638.21" y2="-9527.822222222221" stroke="#dfdfdf" stroke-width="20" /><line x1="-973.969" y1="-9307.608888888888" x2="23.5314" y2="-8952.14222222222" stroke="#dfdfdf" stroke-width="20" /><line x1="-2121.48" y1="-9334.008888888888" x2="-1638.21" y2="-9527.822222222221" stroke="#dfdfdf" stroke-width="20" /><line x1="2299.28" y1="-9388.604444444443" x2="1777.84" y2="-9525.226666666666" stroke="#dfdfdf" stroke-width="20" /><line x1="1051.5" y1="-4563.288888888888" x2="1047.91" y2="-5366.133333333332" stroke="#dfdfdf" stroke-width="20" /><line x1="1051.5" y1="-4563.288888888888" x2="1038.47" y2="-3572.0177777777776" stroke="#dfdfdf" stroke-width="20" /><line x1="-3451.4" y1="-6462.968888888889" x2="-4208.69" y2="-6248.8355555555545" stroke="#dfdfdf" stroke-width="20" /><line x1="-3451.4" y1="-6462.968888888889" x2="-2364.02" y2="-6774.293333333333" stroke="#dfdfdf" stroke-width="20" /><line x1="-412.104" y1="-9869.546666666665" x2="-760.572" y2="-10483.839999999998" stroke="#dfdfdf" stroke-width="20" /><line x1="-412.104" y1="-9869.546666666665" x2="23.5314" y2="-8952.14222222222" stroke="#dfdfdf" stroke-width="20" /><line x1="-4744.88" y1="-6405.422222222222" x2="-4208.69" y2="-6248.8355555555545" stroke="#dfdfdf" stroke-width="20" /><line x1="-1241.42" y1="-10652.035555555556" x2="-760.572" y2="-10483.839999999998" stroke="#dfdfdf" stroke-width="20" /><line x1="1429.48" y1="-5791.217777777777" x2="1047.91" y2="-5366.133333333332" stroke="#dfdfdf" stroke-width="20" /><line x1="-4557.12" y1="-5819.235555555556" x2="-4208.69" y2="-6248.8355555555545" stroke="#dfdfdf" stroke-width="20" /><line x1="-2926.32" y1="-5856.551111111111" x2="-3512.78" y2="-5210.311111111111" stroke="#dfdfdf" stroke-width="20" /><line x1="-2926.32" y1="-5856.551111111111" x2="-2364.02" y2="-6774.293333333333" stroke="#dfdfdf" stroke-width="20" /><line x1="-3559.6" y1="-4673.866666666667" x2="-3512.78" y2="-5210.311111111111" stroke="#dfdfdf" stroke-width="20" /><line x1="-101.64" y1="-3579.235555555555" x2="-889.885" y2="-3579.68" stroke="#dfdfdf" stroke-width="20" /><line x1="-101.64" y1="-3579.235555555555" x2="1038.47" y2="-3572.0177777777776" stroke="#dfdfdf" stroke-width="20" /><line x1="1920.63" y1="3699.6444444444446" x2="2513.67" y2="4169.92" stroke="#dfdfdf" stroke-width="20" /><line x1="1920.63" y1="3699.6444444444446" x2="1037.78" y2="2935.4488888888886" stroke="#dfdfdf" stroke-width="20" /><line x1="-3449.18" y1="-7217.706666666666" x2="-4189.68" y2="-7488.746666666666" stroke="#dfdfdf" stroke-width="20" /><line x1="-3449.18" y1="-7217.706666666666" x2="-2364.02" y2="-6774.293333333333" stroke="#dfdfdf" stroke-width="20" /><line x1="452.323" y1="-9897.564444444444" x2="736.781" y2="-10489.599999999999" stroke="#dfdfdf" stroke-width="20" /><line x1="452.323" y1="-9897.564444444444" x2="23.5314" y2="-8952.14222222222" stroke="#dfdfdf" stroke-width="20" /><line x1="-4460.65" y1="-7943.3244444444435" x2="-4189.68" y2="-7488.746666666666" stroke="#dfdfdf" stroke-width="20" /><line x1="1861.45" y1="-2794.7377777777774" x2="2489.44" y2="-2298.3999999999996" stroke="#dfdfdf" stroke-width="20" /><line x1="1861.45" y1="-2794.7377777777774" x2="1038.47" y2="-3572.0177777777776" stroke="#dfdfdf" stroke-width="20" /><line x1="-3819.16" y1="-8624.337777777777" x2="-3305.57" y2="-8433.493333333334" stroke="#dfdfdf" stroke-width="20" /><line x1="2577.4" y1="-1814.4888888888888" x2="2489.44" y2="-2298.3999999999996" stroke="#dfdfdf" stroke-width="20" /><line x1="3069.87" y1="4175.839999999999" x2="2513.67" y2="4169.92" stroke="#dfdfdf" stroke-width="20" /><line x1="-3283.12" y1="-1113.9324444444444" x2="-3920.94" y2="-1652.1297777777777" stroke="#dfdfdf" stroke-width="20" /><line x1="-3283.12" y1="-1113.9324444444444" x2="-2377.77" y2="-281.9964444444444" stroke="#dfdfdf" stroke-width="20" /><line x1="1926.22" y1="2122.951111111111" x2="2518.94" y2="1539.536" stroke="#dfdfdf" stroke-width="20" /><line x1="1926.22" y1="2122.951111111111" x2="1037.78" y2="2935.4488888888886" stroke="#dfdfdf" stroke-width="20" /><line x1="-3997.95" y1="1615.5235555555555" x2="-3892.22" y2="1114.9475555555555" stroke="#dfdfdf" stroke-width="20" /><line x1="-1329.46" y1="-3220.693333333333" x2="-889.885" y2="-3579.68" stroke="#dfdfdf" stroke-width="20" /><line x1="-3562.31" y1="5802.133333333332" x2="-4045.78" y2="5264.355555555555" stroke="#dfdfdf" stroke-width="20" /><line x1="-3562.31" y1="5802.133333333332" x2="-2380.07" y2="6145.0488888888885" stroke="#dfdfdf" stroke-width="20" /><line x1="-2373.25" y1="7240.07111111111" x2="-2388.76" y2="7947.555555555555" stroke="#dfdfdf" stroke-width="20" /><line x1="-2373.25" y1="7240.07111111111" x2="-2380.07" y2="6145.0488888888885" stroke="#dfdfdf" stroke-width="20" /><line x1="-2379.36" y1="5141.653333333333" x2="-2386.43" y2="4341.155555555555" stroke="#dfdfdf" stroke-width="20" /><line x1="-2379.36" y1="5141.653333333333" x2="-2380.07" y2="6145.0488888888885" stroke="#dfdfdf" stroke-width="20" /><line x1="-4478.02" y1="-1605.5697777777777" x2="-3920.94" y2="-1652.1297777777777" stroke="#dfdfdf" stroke-width="20" /><line x1="-4045.78" y1="5264.355555555555" x2="-4719.52" y2="5268.888888888889" stroke="#dfdfdf" stroke-width="20" /><line x1="-2388.76" y1="7947.555555555555" x2="-3136.39" y2="7949.528888888888" stroke="#dfdfdf" stroke-width="20" /><line x1="-2386.43" y1="4341.155555555555" x2="-3134.6" y2="4342.453333333333" stroke="#dfdfdf" stroke-width="20" /><line x1="-1107.67" y1="2939.6266666666666" x2="-586.453" y2="2591.128888888889" stroke="#dfdfdf" stroke-width="20" /><line x1="-1107.67" y1="2939.6266666666666" x2="-586.833" y2="3278.0266666666666" stroke="#dfdfdf" stroke-width="20" /><line x1="-586.453" y1="2591.128888888889" x2="-41.1166" y2="2935.7511111111107" stroke="#dfdfdf" stroke-width="20" /><line x1="1419.92" y1="1307.7048888888887" x2="1044.88" y2="767.0275555555555" stroke="#dfdfdf" stroke-width="20" /><line x1="1419.92" y1="1307.7048888888887" x2="1040.14" y2="1835.5911111111109" stroke="#dfdfdf" stroke-width="20" /><line x1="-1312.13" y1="6147.822222222222" x2="-521.155" y2="6150.844444444444" stroke="#dfdfdf" stroke-width="20" /><line x1="-1312.13" y1="6147.822222222222" x2="-2380.07" y2="6145.0488888888885" stroke="#dfdfdf" stroke-width="20" /><line x1="1404.24" y1="4415.288888888888" x2="1030.96" y2="3933.2088888888884" stroke="#dfdfdf" stroke-width="20" /><line x1="1404.24" y1="4415.288888888888" x2="1030.69" y2="4920.799999999999" stroke="#dfdfdf" stroke-width="20" /><line x1="-41.1166" y1="2935.7511111111107" x2="-586.833" y2="3278.0266666666666" stroke="#dfdfdf" stroke-width="20" /><line x1="-41.1166" y1="2935.7511111111107" x2="1037.78" y2="2935.4488888888886" stroke="#dfdfdf" stroke-width="20" /><line x1="-2063.64" y1="-8373.44" x2="-2065.92" y2="-7748.213333333333" stroke="#dfdfdf" stroke-width="20" /><line x1="1030.96" y1="3933.2088888888884" x2="663.676" y2="4416.551111111111" stroke="#dfdfdf" stroke-width="20" /><line x1="1030.96" y1="3933.2088888888884" x2="1037.78" y2="2935.4488888888886" stroke="#dfdfdf" stroke-width="20" /><line x1="-7.16785" y1="7209.635555555556" x2="1.76319" y2="8349.119999999999" stroke="#dfdfdf" stroke-width="20" /><line x1="-4.18351" y1="9574.026666666667" x2="1.76319" y2="8349.119999999999" stroke="#dfdfdf" stroke-width="20" /><line x1="663.676" y1="4416.551111111111" x2="1030.69" y2="4920.799999999999" stroke="#dfdfdf" stroke-width="20" /><line x1="657.102" y1="1314.1333333333334" x2="272.667" y2="765.456" stroke="#dfdfdf" stroke-width="20" /><line x1="657.102" y1="1314.1333333333334" x2="1044.88" y2="767.0275555555555" stroke="#dfdfdf" stroke-width="20" /><line x1="657.102" y1="1314.1333333333334" x2="1040.14" y2="1835.5911111111109" stroke="#dfdfdf" stroke-width="20" /><line x1="-2967.6" y1="6886.702222222222" x2="-3283.41" y2="7314.044444444444" stroke="#dfdfdf" stroke-width="20" /><line x1="-2967.6" y1="6886.702222222222" x2="-2380.07" y2="6145.0488888888885" stroke="#dfdfdf" stroke-width="20" /><line x1="1031.94" y1="-2502.862222222222" x2="1037.87" y2="-1687.376" stroke="#dfdfdf" stroke-width="20" /><line x1="1031.94" y1="-2502.862222222222" x2="1038.47" y2="-3572.0177777777776" stroke="#dfdfdf" stroke-width="20" /><line x1="-2063.75" y1="-5834.115555555555" x2="-2364.02" y2="-6774.293333333333" stroke="#dfdfdf" stroke-width="20" /><line x1="2121.41" y1="2945.742222222222" x2="1037.78" y2="2935.4488888888886" stroke="#dfdfdf" stroke-width="20" /><line x1="-3592.72" y1="6442.542222222221" x2="-3992.05" y2="6885.688888888888" stroke="#dfdfdf" stroke-width="20" /><line x1="-3592.72" y1="6442.542222222221" x2="-2380.07" y2="6145.0488888888885" stroke="#dfdfdf" stroke-width="20" /><line x1="-3592.72" y1="6442.542222222221" x2="-3283.41" y2="7314.044444444444" stroke="#dfdfdf" stroke-width="20" /><line x1="1320.76" y1="8346.435555555556" x2="1.76319" y2="8349.119999999999" stroke="#dfdfdf" stroke-width="20" /><line x1="-1368.29" y1="8343.964444444444" x2="1.76319" y2="8349.119999999999" stroke="#dfdfdf" stroke-width="20" /><line x1="-2920.32" y1="-7749.582222222222" x2="-3305.57" y2="-8433.493333333334" stroke="#dfdfdf" stroke-width="20" /><line x1="-2920.32" y1="-7749.582222222222" x2="-2364.02" y2="-6774.293333333333" stroke="#dfdfdf" stroke-width="20" /><line x1="-3292.05" y1="572.1404444444444" x2="-3892.22" y2="1114.9475555555555" stroke="#dfdfdf" stroke-width="20" /><line x1="-3292.05" y1="572.1404444444444" x2="-2377.77" y2="-281.9964444444444" stroke="#dfdfdf" stroke-width="20" /><line x1="-1820.02" y1="-9975.75111111111" x2="-1638.21" y2="-9527.822222222221" stroke="#dfdfdf" stroke-width="20" /><line x1="2002.52" y1="-10026.4" x2="1777.84" y2="-9525.226666666666" stroke="#dfdfdf" stroke-width="20" /><line x1="1238.44" y1="-10707.324444444444" x2="736.781" y2="-10489.599999999999" stroke="#dfdfdf" stroke-width="20" /><line x1="680.137" y1="-10978.488888888887" x2="736.781" y2="-10489.599999999999" stroke="#dfdfdf" stroke-width="20" /><line x1="-719.83" y1="-10977.813333333334" x2="-760.572" y2="-10483.839999999998" stroke="#dfdfdf" stroke-width="20" /><line x1="-4431.68" y1="1105.054222222222" x2="-3892.22" y2="1114.9475555555555" stroke="#dfdfdf" stroke-width="20" /><line x1="-4045.38" y1="-5060.373333333333" x2="-3512.78" y2="-5210.311111111111" stroke="#dfdfdf" stroke-width="20" /><line x1="-4704.97" y1="-7344.551111111112" x2="-4189.68" y2="-7488.746666666666" stroke="#dfdfdf" stroke-width="20" /><line x1="-3255.02" y1="-8922.417777777777" x2="-3305.57" y2="-8433.493333333334" stroke="#dfdfdf" stroke-width="20" /><line x1="690.965" y1="-5788.48" x2="1047.91" y2="-5366.133333333332" stroke="#dfdfdf" stroke-width="20" /><line x1="2613.45" y1="4687.04" x2="2513.67" y2="4169.92" stroke="#dfdfdf" stroke-width="20" /><line x1="3034.48" y1="-2264.551111111111" x2="2489.44" y2="-2298.3999999999996" stroke="#dfdfdf" stroke-width="20" /><line x1="2563.25" y1="1042.0106666666666" x2="2518.94" y2="1539.536" stroke="#dfdfdf" stroke-width="20" /><line x1="3036.72" y1="1554.0195555555554" x2="2518.94" y2="1539.536" stroke="#dfdfdf" stroke-width="20" /><line x1="-3990.52" y1="-2143.3777777777777" x2="-3920.94" y2="-1652.1297777777777" stroke="#dfdfdf" stroke-width="20" /><line x1="-1334.18" y1="-3937.102222222222" x2="-889.885" y2="-3579.68" stroke="#dfdfdf" stroke-width="20" /><line x1="2163.42" y1="-3572.604444444444" x2="1038.47" y2="-3572.0177777777776" stroke="#dfdfdf" stroke-width="20" /><line x1="-2383.63" y1="865.3208888888888" x2="-2377.77" y2="-281.9964444444444" stroke="#dfdfdf" stroke-width="20" /><line x1="-3061.1" y1="5349.386666666666" x2="-2380.07" y2="6145.0488888888885" stroke="#dfdfdf" stroke-width="20" /><line x1="-2.19624" y1="-6438.08" x2="-427.477" y2="-6773.137777777777" stroke="#dfdfdf" stroke-width="20" /><line x1="1040.14" y1="1835.5911111111109" x2="1037.78" y2="2935.4488888888886" stroke="#dfdfdf" stroke-width="20" /><line x1="-2065.92" y1="-7748.213333333333" x2="-2364.02" y2="-6774.293333333333" stroke="#dfdfdf" stroke-width="20" /><line x1="-1224.18" y1="-274.5884444444444" x2="-2377.77" y2="-281.9964444444444" stroke="#dfdfdf" stroke-width="20" /><line x1="-2375.3" y1="-1310.0177777777776" x2="-2377.77" y2="-281.9964444444444" stroke="#dfdfdf" stroke-width="20" /><line x1="1840.53" y1="-4340.8533333333335" x2="1038.47" y2="-3572.0177777777776" stroke="#dfdfdf" stroke-width="20" /><line x1="-3494.6" y1="-276.3662222222222" x2="-2377.77" y2="-281.9964444444444" stroke="#dfdfdf" stroke-width="20" /><circle cx="-1261.74" cy="-6774.897777777777" r="125" fill="#009aff" /><circle cx="1000.34" cy="-9278.542222222222" r="125" fill="#009aff" /><circle cx="2.95512" cy="-7093.457777777778" r="125" fill="#009aff" /><circle cx="-973.969" cy="-9307.608888888888" r="125" fill="#009aff" /><circle cx="-2121.48" cy="-9334.008888888888" r="125" fill="#009aff" /><circle cx="2299.28" cy="-9388.604444444443" r="125" fill="#009aff" /><circle cx="1051.5" cy="-4563.288888888888" r="125" fill="#009aff" /><circle cx="-3451.4" cy="-6462.968888888889" r="125" fill="#009aff" /><circle cx="-412.104" cy="-9869.546666666665" r="125" fill="#009aff" /><circle cx="-4744.88" cy="-6405.422222222222" r="125" fill="#009aff" /><circle cx="-1241.42" cy="-10652.035555555556" r="125" fill="#009aff" /><circle cx="1429.48" cy="-5791.217777777777" r="125" fill="#009aff" /><circle cx="-4557.12" cy="-5819.235555555556" r="125" fill="#009aff" /><circle cx="-2926.32" cy="-5856.551111111111" r="125" fill="#009aff" /><circle cx="-3559.6" cy="-4673.866666666667" r="125" fill="#009aff" /><circle cx="-101.64" cy="-3579.235555555555" r="125" fill="#009aff" /><circle cx="1920.63" cy="3699.6444444444446" r="125" fill="#009aff" /><circle cx="-3449.18" cy="-7217.706666666666" r="125" fill="#009aff" /><circle cx="452.323" cy="-9897.564444444444" r="125" fill="#009aff" /><circle cx="-4460.65" cy="-7943.3244444444435" r="125" fill="#009aff" /><circle cx="1861.45" cy="-2794.7377777777774" r="125" fill="#009aff" /><circle cx="-3819.16" cy="-8624.337777777777" r="125" fill="#009aff" /><circle cx="2577.4" cy="-1814.4888888888888" r="125" fill="#009aff" /><circle cx="3069.87" cy="4175.839999999999" r="125" fill="#009aff" /><circle cx="-3283.12" cy="-1113.9324444444444" r="125" fill="#009aff" /><circle cx="1926.22" cy="2122.951111111111" r="125" fill="#009aff" /><circle cx="-3997.95" cy="1615.5235555555555" r="125" fill="#009aff" /><circle cx="-1329.46" cy="-3220.693333333333" r="125" fill="#009aff" /><circle cx="-3562.31" cy="5802.133333333332" r="125" fill="#009aff" /><circle cx="-2373.25" cy="7240.07111111111" r="125" fill="#009aff" /><circle cx="-2379.36" cy="5141.653333333333" r="125" fill="#009aff" /><circle cx="-4478.02" cy="-1605.5697777777777" r="125" fill="#009aff" /><circle cx="-4045.78" cy="5264.355555555555" r="125" fill="#009aff" /><circle cx="-2388.76" cy="7947.555555555555" r="125" fill="#009aff" /><circle cx="-2386.43" cy="4341.155555555555" r="125" fill="#009aff" /><circle cx="23.5314" cy="-8952.14222222222" r="125" fill="#ff5f5f" /><circle cx="-1107.67" cy="2939.6266666666666" r="125" fill="#009aff" /><circle cx="-586.453" cy="2591.128888888889" r="125" fill="#009aff" /><circle cx="1419.92" cy="1307.7048888888887" r="125" fill="#009aff" /><circle cx="-1312.13" cy="6147.822222222222" r="125" fill="#009aff" /><circle cx="1404.24" cy="4415.288888888888" r="125" fill="#009aff" /><circle cx="-41.1166" cy="2935.7511111111107" r="125" fill="#009aff" /><circle cx="-2063.64" cy="-8373.44" r="125" fill="#009aff" /><circle cx="1030.96" cy="3933.2088888888884" r="125" fill="#009aff" /><circle cx="-7.16785" cy="7209.635555555556" r="125" fill="#009aff" /><circle cx="-4.18351" cy="9574.026666666667" r="125" fill="#009aff" /><circle cx="663.676" cy="4416.551111111111" r="125" fill="#009aff" /><circle cx="657.102" cy="1314.1333333333334" r="125" fill="#009aff" /><circle cx="-2967.6" cy="6886.702222222222" r="125" fill="#009aff" /><circle cx="1030.69" cy="4920.799999999999" r="125" fill="#009aff" /><circle cx="1031.94" cy="-2502.862222222222" r="125" fill="#009aff" /><circle cx="-2063.75" cy="-5834.115555555555" r="125" fill="#009aff" /><circle cx="2121.41" cy="2945.742222222222" r="125" fill="#009aff" /><circle cx="-3592.72" cy="6442.542222222221" r="125" fill="#009aff" /><circle cx="-521.155" cy="6150.844444444444" r="125" fill="#009aff" /><circle cx="272.667" cy="765.456" r="125" fill="#009aff" /><circle cx="1044.88" cy="767.0275555555555" r="125" fill="#009aff" /><circle cx="1320.76" cy="8346.435555555556" r="125" fill="#009aff" /><circle cx="-1368.29" cy="8343.964444444444" r="125" fill="#009aff" /><circle cx="-3992.05" cy="6885.688888888888" r="125" fill="#009aff" /><circle cx="-3134.6" cy="4342.453333333333" r="125" fill="#009aff" /><circle cx="-3136.39" cy="7949.528888888888" r="125" fill="#009aff" /><circle cx="-4719.52" cy="5268.888888888889" r="125" fill="#009aff" /><circle cx="1.76319" cy="8349.119999999999" r="125" fill="#ff5f5f" /><circle cx="-2920.32" cy="-7749.582222222222" r="125" fill="#009aff" /><circle cx="-3292.05" cy="572.1404444444444" r="125" fill="#009aff" /><circle cx="-1820.02" cy="-9975.75111111111" r="125" fill="#009aff" /><circle cx="2002.52" cy="-10026.4" r="125" fill="#009aff" /><circle cx="1238.44" cy="-10707.324444444444" r="125" fill="#009aff" /><circle cx="680.137" cy="-10978.488888888887" r="125" fill="#009aff" /><circle cx="-719.83" cy="-10977.813333333334" r="125" fill="#009aff" /><circle cx="-4431.68" cy="1105.054222222222" r="125" fill="#009aff" /><circle cx="-4045.38" cy="-5060.373333333333" r="125" fill="#009aff" /><circle cx="-4704.97" cy="-7344.551111111112" r="125" fill="#009aff" /><circle cx="-3255.02" cy="-8922.417777777777" r="125" fill="#009aff" /><circle cx="690.965" cy="-5788.48" r="125" fill="#009aff" /><circle cx="2613.45" cy="4687.04" r="125" fill="#009aff" /><circle cx="3034.48" cy="-2264.551111111111" r="125" fill="#009aff" /><circle cx="2563.25" cy="1042.0106666666666" r="125" fill="#009aff" /><circle cx="3036.72" cy="1554.0195555555554" r="125" fill="#009aff" /><circle cx="-3990.52" cy="-2143.3777777777777" r="125" fill="#009aff" /><circle cx="-1334.18" cy="-3937.102222222222" r="125" fill="#009aff" /><circle cx="2163.42" cy="-3572.604444444444" r="125" fill="#009aff" /><circle cx="-2383.63" cy="865.3208888888888" r="125" fill="#009aff" /><circle cx="-3061.1" cy="5349.386666666666" r="125" fill="#009aff" /><circle cx="-2.19624" cy="-6438.08" r="125" fill="#009aff" /><circle cx="-586.833" cy="3278.0266666666666" r="125" fill="#009aff" /><circle cx="-3283.41" cy="7314.044444444444" r="125" fill="#009aff" /><circle cx="1037.87" cy="-1687.376" r="125" fill="#009aff" /><circle cx="1040.14" cy="1835.5911111111109" r="125" fill="#009aff" /><circle cx="-2065.92" cy="-7748.213333333333" r="125" fill="#009aff" /><circle cx="-1224.18" cy="-274.5884444444444" r="125" fill="#009aff" /><circle cx="-2375.3" cy="-1310.0177777777776" r="125" fill="#009aff" /><circle cx="1840.53" cy="-4340.8533333333335" r="125" fill="#009aff" /><circle cx="-3494.6" cy="-276.3662222222222" r="125" fill="#009aff" /><circle cx="-2364.02" cy="-6774.293333333333" r="125" fill="#ff5f5f" /><circle cx="-2377.77" cy="-281.9964444444444" r="125" fill="#ff5f5f" /><circle cx="1037.78" cy="2935.4488888888886" r="125" fill="#ff5f5f" /><circle cx="-2380.07" cy="6145.0488888888885" r="125" fill="#ff5f5f" /><circle cx="1038.47" cy="-3572.0177777777776" r="125" fill="#ff5f5f" /><circle cx="-760.572" cy="-10483.839999999998" r="125" fill="#009aff" /><circle cx="-1638.21" cy="-9527.822222222221" r="125" fill="#009aff" /><circle cx="736.781" cy="-10489.599999999999" r="125" fill="#009aff" /><circle cx="1777.84" cy="-9525.226666666666" r="125" fill="#009aff" /><circle cx="-4208.69" cy="-6248.8355555555545" r="125" fill="#009aff" /><circle cx="-3512.78" cy="-5210.311111111111" r="125" fill="#009aff" /><circle cx="-4189.68" cy="-7488.746666666666" r="125" fill="#009aff" /><circle cx="-3305.57" cy="-8433.493333333334" r="125" fill="#009aff" /><circle cx="-427.477" cy="-6773.137777777777" r="125" fill="#009aff" /><circle cx="-889.885" cy="-3579.68" r="125" fill="#009aff" /><circle cx="1047.91" cy="-5366.133333333332" r="125" fill="#009aff" /><circle cx="2489.44" cy="-2298.3999999999996" r="125" fill="#009aff" /><circle cx="-3920.94" cy="-1652.1297777777777" r="125" fill="#009aff" /><circle cx="-3892.22" cy="1114.9475555555555" r="125" fill="#009aff" /><circle cx="2518.94" cy="1539.536" r="125" fill="#009aff" /><circle cx="2513.67" cy="4169.92" r="125" fill="#009aff" /></svg>