<svg viewBox="-4957.43 -11307.217777777778 8397.09 21104.106666666667" xmlns="http://www.w3.org/2000/svg">
<style>
  svg {
    background-color: black;
  }
</style>
<line x1="-3145.29" y1="-6135.608888888889" x2="-3145.29" y2="-6135.608888888889" stroke="#dfdfdf" stroke-width="20" /><line x1="-3145.29" y1="-6135.608888888889" x2="-3697.71" y2="-5646.773333333333" stroke="#dfdfdf" stroke-width="20" /><line x1="-3145.29" y1="-6135.608888888889" x2="-2379.42" y2="-6784.053333333333" stroke="#dfdfdf" stroke-width="20" /><line x1="1052.46" y1="-8944.017777777777" x2="1774.85" y2="-8945.635555555555" stroke="#dfdfdf" stroke-width="20" /><line x1="1052.46" y1="-8944.017777777777" x2="18.3008" y2="-8943.075555555555" stroke="#dfdfdf" stroke-width="20" /><line x1="15.3543" y1="-10094.133333333333" x2="25.6891" y2="-10818.08" stroke="#dfdfdf" stroke-width="20" /><line x1="15.3543" y1="-10094.133333333333" x2="18.3008" y2="-8943.075555555555" stroke="#dfdfdf" stroke-width="20" /><line x1="2175.82" y1="-9276.39111111111" x2="1774.85" y2="-8945.635555555555" stroke="#dfdfdf" stroke-width="20" /><line x1="-3751.11" y1="-5140.995555555555" x2="-3697.71" y2="-5646.773333333333" stroke="#dfdfdf" stroke-width="20" /><line x1="-27.7231" y1="-7262.328888888888" x2="-471.884" y2="-6979.591111111111" stroke="#dfdfdf" stroke-width="20" /><line x1="-3582.71" y1="-259.3102222222222" x2="-4406.28" y2="-260.0942222222222" stroke="#dfdfdf" stroke-width="20" /><line x1="-3582.71" y1="-259.3102222222222" x2="-2374.77" y2="-275.43466666666666" stroke="#dfdfdf" stroke-width="20" /><line x1="-2389.42" y1="-7825.386666666665" x2="-2384.33" y2="-8575.413333333334" stroke="#dfdfdf" stroke-width="20" /><line x1="-2389.42" y1="-7825.386666666665" x2="-2379.42" y2="-6784.053333333333" stroke="#dfdfdf" stroke-width="20" /><line x1="2111.48" y1="-3566.702222222222" x2="2903.85" y2="-3566.008888888889" stroke="#dfdfdf" stroke-width="20" /><line x1="2111.48" y1="-3566.702222222222" x2="1025.94" y2="-3562.72" stroke="#dfdfdf" stroke-width="20" /><line x1="-768.424" y1="-9694.773333333333" x2="-1355.66" y2="-10213.528888888888" stroke="#dfdfdf" stroke-width="20" /><line x1="-768.424" y1="-9694.773333333333" x2="18.3008" y2="-8943.075555555555" stroke="#dfdfdf" stroke-width="20" /><line x1="327.022" y1="-11207.217777777778" x2="25.6891" y2="-10818.08" stroke="#dfdfdf" stroke-width="20" /><line x1="3334.73" y1="-3208.7644444444445" x2="2903.85" y2="-3566.008888888889" stroke="#dfdfdf" stroke-width="20" /><line x1="-1302.92" y1="-10709.119999999999" x2="-1355.66" y2="-10213.528888888888" stroke="#dfdfdf" stroke-width="20" /><line x1="-4218.19" y1="-5611.591111111111" x2="-3697.71" y2="-5646.773333333333" stroke="#dfdfdf" stroke-width="20" /><line x1="-2704.49" y1="-8970.577777777777" x2="-2384.33" y2="-8575.413333333334" stroke="#dfdfdf" stroke-width="20" /><line x1="1036.78" y1="-4552.888888888889" x2="1035.18" y2="-5266.008888888889" stroke="#dfdfdf" stroke-width="20" /><line x1="1036.78" y1="-4552.888888888889" x2="1025.94" y2="-3562.72" stroke="#dfdfdf" stroke-width="20" /><line x1="1341.24" y1="-5678.453333333333" x2="1035.18" y2="-5266.008888888889" stroke="#dfdfdf" stroke-width="20" /><line x1="1606.36" y1="3881.6" x2="2025.91" y2="4522.08" stroke="#dfdfdf" stroke-width="20" /><line x1="1606.36" y1="3881.6" x2="1046.16" y2="2939.0222222222224" stroke="#dfdfdf" stroke-width="20" /><line x1="-2369.7" y1="-5752.64" x2="-2372.56" y2="-5034.915555555555" stroke="#dfdfdf" stroke-width="20" /><line x1="-2369.7" y1="-5752.64" x2="-2379.42" y2="-6784.053333333333" stroke="#dfdfdf" stroke-width="20" /><line x1="2046.86" y1="2531.3777777777777" x2="2811.92" y2="2197.031111111111" stroke="#dfdfdf" stroke-width="20" /><line x1="2046.86" y1="2531.3777777777777" x2="1046.16" y2="2939.0222222222224" stroke="#dfdfdf" stroke-width="20" /><line x1="801.165" y1="-9692.835555555555" x2="1348.68" y2="-10177.244444444443" stroke="#dfdfdf" stroke-width="20" /><line x1="801.165" y1="-9692.835555555555" x2="18.3008" y2="-8943.075555555555" stroke="#dfdfdf" stroke-width="20" /><line x1="-1282" y1="-263.4328888888889" x2="-477.623" y2="-264.62933333333336" stroke="#dfdfdf" stroke-width="20" /><line x1="-1282" y1="-263.4328888888889" x2="-2374.77" y2="-275.43466666666666" stroke="#dfdfdf" stroke-width="20" /><line x1="1404.1" y1="-10661.617777777778" x2="1348.68" y2="-10177.244444444443" stroke="#dfdfdf" stroke-width="20" /><line x1="-53.565" y1="-518.6915555555555" x2="-477.623" y2="-264.62933333333336" stroke="#dfdfdf" stroke-width="20" /><line x1="-3198.75" y1="507.75288888888883" x2="-2374.77" y2="-275.43466666666666" stroke="#dfdfdf" stroke-width="20" /><line x1="-3198.75" y1="507.75288888888883" x2="-3747.51" y2="1021.7226666666667" stroke="#dfdfdf" stroke-width="20" /><line x1="725.084" y1="-5674.933333333333" x2="1035.18" y2="-5266.008888888889" stroke="#dfdfdf" stroke-width="20" /><line x1="2007.46" y1="5012.711111111111" x2="2025.91" y2="4522.08" stroke="#dfdfdf" stroke-width="20" /><line x1="-3802.04" y1="1554.8657777777776" x2="-3747.51" y2="1021.7226666666667" stroke="#dfdfdf" stroke-width="20" /><line x1="-2037.12" y1="-8971.306666666665" x2="-2384.33" y2="-8575.413333333334" stroke="#dfdfdf" stroke-width="20" /><line x1="-3167.94" y1="-7522.026666666667" x2="-3726.2" y2="-7991.626666666666" stroke="#dfdfdf" stroke-width="20" /><line x1="-3167.94" y1="-7522.026666666667" x2="-2379.42" y2="-6784.053333333333" stroke="#dfdfdf" stroke-width="20" /><line x1="-59.4094" y1="74.13084444444443" x2="-477.623" y2="-264.62933333333336" stroke="#dfdfdf" stroke-width="20" /><line x1="3327.06" y1="2263.8933333333334" x2="2811.92" y2="2197.031111111111" stroke="#dfdfdf" stroke-width="20" /><line x1="-3782.32" y1="-8438.222222222223" x2="-3726.2" y2="-7991.626666666666" stroke="#dfdfdf" stroke-width="20" /><line x1="1365.98" y1="-1439.176888888889" x2="1046.87" y2="-1796.9599999999998" stroke="#dfdfdf" stroke-width="20" /><line x1="1044.88" y1="-2534.24" x2="1046.87" y2="-1796.9599999999998" stroke="#dfdfdf" stroke-width="20" /><line x1="1044.88" y1="-2534.24" x2="1025.94" y2="-3562.72" stroke="#dfdfdf" stroke-width="20" /><line x1="2377.19" y1="1185.7173333333333" x2="1877.01" y2="1395.1466666666665" stroke="#dfdfdf" stroke-width="20" /><line x1="1489.4" y1="2050.72" x2="1877.01" y2="1395.1466666666665" stroke="#dfdfdf" stroke-width="20" /><line x1="1489.4" y1="2050.72" x2="1046.16" y2="2939.0222222222224" stroke="#dfdfdf" stroke-width="20" /><line x1="-2044.38" y1="-4641.937777777778" x2="-2372.56" y2="-5034.915555555555" stroke="#dfdfdf" stroke-width="20" /><line x1="3339.66" y1="-3889.671111111111" x2="2903.85" y2="-3566.008888888889" stroke="#dfdfdf" stroke-width="20" /><line x1="811.832" y1="-8241.99111111111" x2="1355.65" y2="-7801.6177777777775" stroke="#dfdfdf" stroke-width="20" /><line x1="811.832" y1="-8241.99111111111" x2="18.3008" y2="-8943.075555555555" stroke="#dfdfdf" stroke-width="20" /><line x1="1397.17" y1="-7316.213333333333" x2="1355.65" y2="-7801.6177777777775" stroke="#dfdfdf" stroke-width="20" /><line x1="717.678" y1="-1443.7404444444444" x2="1046.87" y2="-1796.9599999999998" stroke="#dfdfdf" stroke-width="20" /><line x1="-2380.1" y1="7189.9911111111105" x2="-2371.36" y2="7894.3822222222225" stroke="#dfdfdf" stroke-width="20" /><line x1="-2380.1" y1="7189.9911111111105" x2="-2391.26" y2="6156.8355555555545" stroke="#dfdfdf" stroke-width="20" /><line x1="-2387.12" y1="5148.8355555555545" x2="-2379.09" y2="4500.835555555555" stroke="#dfdfdf" stroke-width="20" /><line x1="-2387.12" y1="5148.8355555555545" x2="-2391.26" y2="6156.8355555555545" stroke="#dfdfdf" stroke-width="20" /><line x1="-3477.84" y1="6164.764444444444" x2="-4203.21" y2="6161.475555555555" stroke="#dfdfdf" stroke-width="20" /><line x1="-3477.84" y1="6164.764444444444" x2="-2391.26" y2="6156.8355555555545" stroke="#dfdfdf" stroke-width="20" /><line x1="-2379.09" y1="4500.835555555555" x2="-2372.51" y2="3938.346666666667" stroke="#dfdfdf" stroke-width="20" /><line x1="-4203.21" y1="6161.475555555555" x2="-4782.02" y2="6161.0488888888885" stroke="#dfdfdf" stroke-width="20" /><line x1="-2373.27" y1="-1232.0177777777776" x2="-2374.77" y2="-275.43466666666666" stroke="#dfdfdf" stroke-width="20" /><line x1="-2373.27" y1="-1232.0177777777776" x2="-2365.37" y2="-1979.431111111111" stroke="#dfdfdf" stroke-width="20" /><line x1="-155.686" y1="-3557.884444444444" x2="1025.94" y2="-3562.72" stroke="#dfdfdf" stroke-width="20" /><line x1="-3050.92" y1="4308.96" x2="-3065.32" y2="4975.448888888889" stroke="#dfdfdf" stroke-width="20" /><line x1="-3468.18" y1="5507.928888888889" x2="-2391.26" y2="6156.8355555555545" stroke="#dfdfdf" stroke-width="20" /><line x1="-3466.39" y1="6823.466666666666" x2="-2391.26" y2="6156.8355555555545" stroke="#dfdfdf" stroke-width="20" /><line x1="725.418" y1="4112.871111111111" x2="716.921" y2="4731.004444444444" stroke="#dfdfdf" stroke-width="20" /><line x1="725.418" y1="4112.871111111111" x2="1046.16" y2="2939.0222222222224" stroke="#dfdfdf" stroke-width="20" /><line x1="-3038.59" y1="7969.848888888889" x2="-3042.6" y2="7347.591111111112" stroke="#dfdfdf" stroke-width="20" /><line x1="-3521.95" y1="4302.897777777778" x2="-3065.32" y2="4975.448888888889" stroke="#dfdfdf" stroke-width="20" /><line x1="-1436.49" y1="8327.484444444444" x2="5.78299" y2="8333.599999999999" stroke="#dfdfdf" stroke-width="20" /><line x1="-2371.82" y1="722.736" x2="-2373.24" y2="1436.695111111111" stroke="#dfdfdf" stroke-width="20" /><line x1="-2371.82" y1="722.736" x2="-2374.77" y2="-275.43466666666666" stroke="#dfdfdf" stroke-width="20" /><line x1="-4087.69" y1="-6774.044444444444" x2="-3396.69" y2="-6778.15111111111" stroke="#dfdfdf" stroke-width="20" /><line x1="-3042.6" y1="7347.591111111112" x2="-3532.02" y2="7963.04" stroke="#dfdfdf" stroke-width="20" /><line x1="-3042.6" y1="7347.591111111112" x2="-2391.26" y2="6156.8355555555545" stroke="#dfdfdf" stroke-width="20" /><line x1="2316.72" y1="-2916.5155555555552" x2="1025.94" y2="-3562.72" stroke="#dfdfdf" stroke-width="20" /><line x1="2316.72" y1="-2916.5155555555552" x2="1992.95" y2="-1836.391111111111" stroke="#dfdfdf" stroke-width="20" /><line x1="-3396.69" y1="-6778.15111111111" x2="-2379.42" y2="-6784.053333333333" stroke="#dfdfdf" stroke-width="20" /><line x1="-3065.32" y1="4975.448888888889" x2="-2391.26" y2="6156.8355555555545" stroke="#dfdfdf" stroke-width="20" /><line x1="2317.18" y1="-4962.026666666666" x2="1759.28" y2="-4357.866666666667" stroke="#dfdfdf" stroke-width="20" /><line x1="2042.48" y1="3259.7688888888883" x2="2599.31" y2="3560.8888888888887" stroke="#dfdfdf" stroke-width="20" /><line x1="2042.48" y1="3259.7688888888883" x2="2599.59" y2="2956.32" stroke="#dfdfdf" stroke-width="20" /><line x1="2042.48" y1="3259.7688888888883" x2="1046.16" y2="2939.0222222222224" stroke="#dfdfdf" stroke-width="20" /><line x1="714.912" y1="1773.552" x2="718.294" y2="1185.9733333333334" stroke="#dfdfdf" stroke-width="20" /><line x1="714.912" y1="1773.552" x2="1046.16" y2="2939.0222222222224" stroke="#dfdfdf" stroke-width="20" /><line x1="-1123.36" y1="9226.826666666666" x2="5.78299" y2="8333.599999999999" stroke="#dfdfdf" stroke-width="20" /><line x1="-1230.84" y1="-6988.32" x2="-471.884" y2="-6979.591111111111" stroke="#dfdfdf" stroke-width="20" /><line x1="-1230.84" y1="-6988.32" x2="-2379.42" y2="-6784.053333333333" stroke="#dfdfdf" stroke-width="20" /><line x1="-4318.28" y1="1018.4693333333333" x2="-3747.51" y2="1021.7226666666667" stroke="#dfdfdf" stroke-width="20" /><line x1="5.78299" y1="8333.599999999999" x2="992.071" y2="9213.102222222222" stroke="#dfdfdf" stroke-width="20" /><line x1="5.78299" y1="8333.599999999999" x2="1565.12" y2="8324.408888888887" stroke="#dfdfdf" stroke-width="20" /><line x1="5.78299" y1="8333.599999999999" x2="12.2869" y2="9696.888888888889" stroke="#dfdfdf" stroke-width="20" /><line x1="1896.99" y1="-10219.128888888888" x2="1348.68" y2="-10177.244444444443" stroke="#dfdfdf" stroke-width="20" /><line x1="1864.05" y1="-7804.871111111111" x2="1355.65" y2="-7801.6177777777775" stroke="#dfdfdf" stroke-width="20" /><line x1="-1892.15" y1="-10277.155555555555" x2="-1355.66" y2="-10213.528888888888" stroke="#dfdfdf" stroke-width="20" /><line x1="2182.38" y1="-8656.213333333333" x2="1774.85" y2="-8945.635555555555" stroke="#dfdfdf" stroke-width="20" /><line x1="-321.941" y1="-11198.186666666665" x2="25.6891" y2="-10818.08" stroke="#dfdfdf" stroke-width="20" /><line x1="-33.46" y1="-6659.857777777777" x2="-471.884" y2="-6979.591111111111" stroke="#dfdfdf" stroke-width="20" /><line x1="-4229.42" y1="-7982.435555555555" x2="-3726.2" y2="-7991.626666666666" stroke="#dfdfdf" stroke-width="20" /><line x1="-4846.35" y1="59.943999999999996" x2="-4406.28" y2="-260.0942222222222" stroke="#dfdfdf" stroke-width="20" /><line x1="-4857.43" y1="-515.0026666666666" x2="-4406.28" y2="-260.0942222222222" stroke="#dfdfdf" stroke-width="20" /><line x1="-2682.28" y1="-4649.635555555556" x2="-2372.56" y2="-5034.915555555555" stroke="#dfdfdf" stroke-width="20" /><line x1="-2371.36" y1="7894.3822222222225" x2="-2361.28" y2="8454.08" stroke="#dfdfdf" stroke-width="20" /><line x1="2984.3" y1="1736.8693333333333" x2="2811.92" y2="2197.031111111111" stroke="#dfdfdf" stroke-width="20" /><line x1="2525.67" y1="4614.862222222222" x2="2025.91" y2="4522.08" stroke="#dfdfdf" stroke-width="20" /><line x1="1832.85" y1="907.8648888888888" x2="1877.01" y2="1395.1466666666665" stroke="#dfdfdf" stroke-width="20" /><line x1="1992.95" y1="-1836.391111111111" x2="1659.51" y2="-2536.3555555555554" stroke="#dfdfdf" stroke-width="20" /><line x1="-183.219" y1="2950.844444444444" x2="1046.16" y2="2939.0222222222224" stroke="#dfdfdf" stroke-width="20" /><line x1="1759.28" y1="-4357.866666666667" x2="1025.94" y2="-3562.72" stroke="#dfdfdf" stroke-width="20" /><line x1="-1224.04" y1="-6482.986666666666" x2="-2379.42" y2="-6784.053333333333" stroke="#dfdfdf" stroke-width="20" /><line x1="-3156.19" y1="-1020.8106666666666" x2="-2374.77" y2="-275.43466666666666" stroke="#dfdfdf" stroke-width="20" /><line x1="-3156.19" y1="-1020.8106666666666" x2="-3737.11" y2="-1485.9217777777778" stroke="#dfdfdf" stroke-width="20" /><line x1="-4277.15" y1="-1496.151111111111" x2="-3737.11" y2="-1485.9217777777778" stroke="#dfdfdf" stroke-width="20" /><line x1="-3788" y1="-2004.6933333333334" x2="-3737.11" y2="-1485.9217777777778" stroke="#dfdfdf" stroke-width="20" /><line x1="1025.94" y1="-3562.72" x2="1659.51" y2="-2536.3555555555554" stroke="#dfdfdf" stroke-width="20" /><circle cx="-3145.29" cy="-6135.608888888889" r="125" fill="#009aff" /><circle cx="1052.46" cy="-8944.017777777777" r="125" fill="#009aff" /><circle cx="15.3543" cy="-10094.133333333333" r="125" fill="#009aff" /><circle cx="2175.82" cy="-9276.39111111111" r="125" fill="#009aff" /><circle cx="-3751.11" cy="-5140.995555555555" r="125" fill="#009aff" /><circle cx="-27.7231" cy="-7262.328888888888" r="125" fill="#009aff" /><circle cx="-3582.71" cy="-259.3102222222222" r="125" fill="#009aff" /><circle cx="-2389.42" cy="-7825.386666666665" r="125" fill="#009aff" /><circle cx="2111.48" cy="-3566.702222222222" r="125" fill="#009aff" /><circle cx="-768.424" cy="-9694.773333333333" r="125" fill="#009aff" /><circle cx="327.022" cy="-11207.217777777778" r="125" fill="#009aff" /><circle cx="3334.73" cy="-3208.7644444444445" r="125" fill="#009aff" /><circle cx="-1302.92" cy="-10709.119999999999" r="125" fill="#009aff" /><circle cx="-4218.19" cy="-5611.591111111111" r="125" fill="#009aff" /><circle cx="-2704.49" cy="-8970.577777777777" r="125" fill="#009aff" /><circle cx="1036.78" cy="-4552.888888888889" r="125" fill="#009aff" /><circle cx="1341.24" cy="-5678.453333333333" r="125" fill="#009aff" /><circle cx="1606.36" cy="3881.6" r="125" fill="#009aff" /><circle cx="-2369.7" cy="-5752.64" r="125" fill="#009aff" /><circle cx="2046.86" cy="2531.3777777777777" r="125" fill="#009aff" /><circle cx="801.165" cy="-9692.835555555555" r="125" fill="#009aff" /><circle cx="-1282" cy="-263.4328888888889" r="125" fill="#009aff" /><circle cx="1404.1" cy="-10661.617777777778" r="125" fill="#009aff" /><circle cx="-53.565" cy="-518.6915555555555" r="125" fill="#009aff" /><circle cx="-3198.75" cy="507.75288888888883" r="125" fill="#009aff" /><circle cx="725.084" cy="-5674.933333333333" r="125" fill="#009aff" /><circle cx="2007.46" cy="5012.711111111111" r="125" fill="#009aff" /><circle cx="-3802.04" cy="1554.8657777777776" r="125" fill="#009aff" /><circle cx="-2037.12" cy="-8971.306666666665" r="125" fill="#009aff" /><circle cx="-3167.94" cy="-7522.026666666667" r="125" fill="#009aff" /><circle cx="-59.4094" cy="74.13084444444443" r="125" fill="#009aff" /><circle cx="3327.06" cy="2263.8933333333334" r="125" fill="#009aff" /><circle cx="-3782.32" cy="-8438.222222222223" r="125" fill="#009aff" /><circle cx="1365.98" cy="-1439.176888888889" r="125" fill="#009aff" /><circle cx="1044.88" cy="-2534.24" r="125" fill="#009aff" /><circle cx="2377.19" cy="1185.7173333333333" r="125" fill="#009aff" /><circle cx="1489.4" cy="2050.72" r="125" fill="#009aff" /><circle cx="-2044.38" cy="-4641.937777777778" r="125" fill="#009aff" /><circle cx="3339.66" cy="-3889.671111111111" r="125" fill="#009aff" /><circle cx="811.832" cy="-8241.99111111111" r="125" fill="#009aff" /><circle cx="1397.17" cy="-7316.213333333333" r="125" fill="#009aff" /><circle cx="717.678" cy="-1443.7404444444444" r="125" fill="#009aff" /><circle cx="-2380.1" cy="7189.9911111111105" r="125" fill="#009aff" /><circle cx="-2387.12" cy="5148.8355555555545" r="125" fill="#009aff" /><circle cx="-3477.84" cy="6164.764444444444" r="125" fill="#009aff" /><circle cx="-2379.09" cy="4500.835555555555" r="125" fill="#009aff" /><circle cx="-4203.21" cy="6161.475555555555" r="125" fill="#009aff" /><circle cx="-2372.51" cy="3938.346666666667" r="125" fill="#009aff" /><circle cx="-4782.02" cy="6161.0488888888885" r="125" fill="#009aff" /><circle cx="-2373.27" cy="-1232.0177777777776" r="125" fill="#009aff" /><circle cx="-155.686" cy="-3557.884444444444" r="125" fill="#009aff" /><circle cx="-3050.92" cy="4308.96" r="125" fill="#009aff" /><circle cx="-3468.18" cy="5507.928888888889" r="125" fill="#009aff" /><circle cx="-3466.39" cy="6823.466666666666" r="125" fill="#009aff" /><circle cx="-2365.37" cy="-1979.431111111111" r="125" fill="#009aff" /><circle cx="725.418" cy="4112.871111111111" r="125" fill="#009aff" /><circle cx="-3038.59" cy="7969.848888888889" r="125" fill="#009aff" /><circle cx="-3521.95" cy="4302.897777777778" r="125" fill="#009aff" /><circle cx="-1436.49" cy="8327.484444444444" r="125" fill="#009aff" /><circle cx="-2371.82" cy="722.736" r="125" fill="#009aff" /><circle cx="-2373.24" cy="1436.695111111111" r="125" fill="#009aff" /><circle cx="-4087.69" cy="-6774.044444444444" r="125" fill="#009aff" /><circle cx="-3042.6" cy="7347.591111111112" r="125" fill="#009aff" /><circle cx="2316.72" cy="-2916.5155555555552" r="125" fill="#009aff" /><circle cx="-3396.69" cy="-6778.15111111111" r="125" fill="#009aff" /><circle cx="-3065.32" cy="4975.448888888889" r="125" fill="#009aff" /><circle cx="2317.18" cy="-4962.026666666666" r="125" fill="#009aff" /><circle cx="2042.48" cy="3259.7688888888883" r="125" fill="#009aff" /><circle cx="714.912" cy="1773.552" r="125" fill="#009aff" /><circle cx="-1123.36" cy="9226.826666666666" r="125" fill="#009aff" /><circle cx="-1230.84" cy="-6988.32" r="125" fill="#009aff" /><circle cx="-4318.28" cy="1018.4693333333333" r="125" fill="#009aff" /><circle cx="5.78299" cy="8333.599999999999" r="125" fill="#ff5f5f" /><circle cx="1896.99" cy="-10219.128888888888" r="125" fill="#009aff" /><circle cx="1864.05" cy="-7804.871111111111" r="125" fill="#009aff" /><circle cx="-1892.15" cy="-10277.155555555555" r="125" fill="#009aff" /><circle cx="2182.38" cy="-8656.213333333333" r="125" fill="#009aff" /><circle cx="-321.941" cy="-11198.186666666665" r="125" fill="#009aff" /><circle cx="-33.46" cy="-6659.857777777777" r="125" fill="#009aff" /><circle cx="-4229.42" cy="-7982.435555555555" r="125" fill="#009aff" /><circle cx="-4846.35" cy="59.943999999999996" r="125" fill="#009aff" /><circle cx="-4857.43" cy="-515.0026666666666" r="125" fill="#009aff" /><circle cx="-2682.28" cy="-4649.635555555556" r="125" fill="#009aff" /><circle cx="-2371.36" cy="7894.3822222222225" r="125" fill="#009aff" /><circle cx="-2361.28" cy="8454.08" r="125" fill="#009aff" /><circle cx="2984.3" cy="1736.8693333333333" r="125" fill="#009aff" /><circle cx="2525.67" cy="4614.862222222222" r="125" fill="#009aff" /><circle cx="1832.85" cy="907.8648888888888" r="125" fill="#009aff" /><circle cx="992.071" cy="9213.102222222222" r="125" fill="#009aff" /><circle cx="1565.12" cy="8324.408888888887" r="125" fill="#009aff" /><circle cx="718.294" cy="1185.9733333333334" r="125" fill="#009aff" /><circle cx="716.921" cy="4731.004444444444" r="125" fill="#009aff" /><circle cx="1992.95" cy="-1836.391111111111" r="125" fill="#009aff" /><circle cx="2599.59" cy="2956.32" r="125" fill="#009aff" /><circle cx="2599.31" cy="3560.8888888888887" r="125" fill="#009aff" /><circle cx="-183.219" cy="2950.844444444444" r="125" fill="#009aff" /><circle cx="1759.28" cy="-4357.866666666667" r="125" fill="#009aff" /><circle cx="-3532.02" cy="7963.04" r="125" fill="#009aff" /><circle cx="-1224.04" cy="-6482.986666666666" r="125" fill="#009aff" /><circle cx="-3156.19" cy="-1020.8106666666666" r="125" fill="#009aff" /><circle cx="-4277.15" cy="-1496.151111111111" r="125" fill="#009aff" /><circle cx="-3788" cy="-2004.6933333333334" r="125" fill="#009aff" /><circle cx="1046.16" cy="2939.0222222222224" r="125" fill="#ff5f5f" /><circle cx="1025.94" cy="-3562.72" r="125" fill="#ff5f5f" /><circle cx="-2379.42" cy="-6784.053333333333" r="125" fill="#ff5f5f" /><circle cx="18.3008" cy="-8943.075555555555" r="125" fill="#ff5f5f" /><circle cx="-2391.26" cy="6156.8355555555545" r="125" fill="#ff5f5f" /><circle cx="-2374.77" cy="-275.43466666666666" r="125" fill="#ff5f5f" /><circle cx="25.6891" cy="-10818.08" r="125" fill="#009aff" /><circle cx="-1355.66" cy="-10213.528888888888" r="125" fill="#009aff" /><circle cx="1348.68" cy="-10177.244444444443" r="125" fill="#009aff" /><circle cx="1774.85" cy="-8945.635555555555" r="125" fill="#009aff" /><circle cx="1355.65" cy="-7801.6177777777775" r="125" fill="#009aff" /><circle cx="-3726.2" cy="-7991.626666666666" r="125" fill="#009aff" /><circle cx="-3697.71" cy="-5646.773333333333" r="125" fill="#009aff" /><circle cx="-2372.56" cy="-5034.915555555555" r="125" fill="#009aff" /><circle cx="-471.884" cy="-6979.591111111111" r="125" fill="#009aff" /><circle cx="-2384.33" cy="-8575.413333333334" r="125" fill="#009aff" /><circle cx="1035.18" cy="-5266.008888888889" r="125" fill="#009aff" /><circle cx="1046.87" cy="-1796.9599999999998" r="125" fill="#009aff" /><circle cx="2903.85" cy="-3566.008888888889" r="125" fill="#009aff" /><circle cx="-477.623" cy="-264.62933333333336" r="125" fill="#009aff" /><circle cx="-4406.28" cy="-260.0942222222222" r="125" fill="#009aff" /><circle cx="-3747.51" cy="1021.7226666666667" r="125" fill="#009aff" /><circle cx="-3737.11" cy="-1485.9217777777778" r="125" fill="#009aff" /><circle cx="2811.92" cy="2197.031111111111" r="125" fill="#009aff" /><circle cx="1877.01" cy="1395.1466666666665" r="125" fill="#009aff" /><circle cx="2025.91" cy="4522.08" r="125" fill="#009aff" /><circle cx="12.2869" cy="9696.888888888889" r="125" fill="#009aff" /><circle cx="1659.51" cy="-2536.3555555555554" r="125" fill="#009aff" /></svg>