<svg viewBox="-5157.43 -11507.2 8797.09 21504.1" xmlns="http://www.w3.org/2000/svg">
<style>svg { background-color: black; }</style>
<line x1="-2379.09" y1="4500.84" x2="-2387.12" y2="5148.84" stroke="#dfdfdf" stroke-width="20" />
<line x1="-3477.84" y1="6164.76" x2="-4203.21" y2="6161.48" stroke="#dfdfdf" stroke-width="20" />
<line x1="-2372.51" y1="3938.35" x2="-2379.09" y2="4500.84" stroke="#dfdfdf" stroke-width="20" />
<line x1="-4203.21" y1="6161.48" x2="-4782.02" y2="6161.05" stroke="#dfdfdf" stroke-width="20" />
<line x1="-3145.29" y1="-6135.61" x2="-3145.29" y2="-6135.61" stroke="#dfdfdf" stroke-width="20" />
<line x1="-2371.36" y1="7894.38" x2="-2380.1" y2="7189.99" stroke="#dfdfdf" stroke-width="20" />
<line x1="-2361.28" y1="8454.08" x2="-2371.36" y2="7894.38" stroke="#dfdfdf" stroke-width="20" />
<line x1="2599.31" y1="3560.89" x2="2042.48" y2="3259.77" stroke="#dfdfdf" stroke-width="20" />
<line x1="718.294" y1="1185.97" x2="714.912" y2="1773.55" stroke="#dfdfdf" stroke-width="20" />
<line x1="-3042.6" y1="7347.59" x2="-3532.02" y2="7963.04" stroke="#dfdfdf" stroke-width="20" />
<line x1="-3038.59" y1="7969.85" x2="-3042.6" y2="7347.59" stroke="#dfdfdf" stroke-width="20" />
<line x1="2599.59" y1="2956.32" x2="2042.48" y2="3259.77" stroke="#dfdfdf" stroke-width="20" />
<line x1="725.418" y1="4112.87" x2="716.921" y2="4731" stroke="#dfdfdf" stroke-width="20" />
<line x1="327.022" y1="-11207.2" x2="25.6891" y2="-10818.1" stroke="#dfdfdf" stroke-width="20" />
<line x1="25.6891" y1="-10818.1" x2="15.3543" y2="-10094.1" stroke="#dfdfdf" stroke-width="20" />
<line x1="25.6891" y1="-10818.1" x2="-321.941" y2="-11198.2" stroke="#dfdfdf" stroke-width="20" />
<line x1="-768.424" y1="-9694.77" x2="-1355.66" y2="-10213.5" stroke="#dfdfdf" stroke-width="20" />
<line x1="-1302.92" y1="-10709.1" x2="-1355.66" y2="-10213.5" stroke="#dfdfdf" stroke-width="20" />
<line x1="-1355.66" y1="-10213.5" x2="-1892.15" y2="-10277.2" stroke="#dfdfdf" stroke-width="20" />
<line x1="1348.68" y1="-10177.2" x2="801.165" y2="-9692.84" stroke="#dfdfdf" stroke-width="20" />
<line x1="1896.99" y1="-10219.1" x2="1348.68" y2="-10177.2" stroke="#dfdfdf" stroke-width="20" />
<line x1="1404.1" y1="-10661.6" x2="1348.68" y2="-10177.2" stroke="#dfdfdf" stroke-width="20" />
<line x1="1774.85" y1="-8945.64" x2="1052.46" y2="-8944.02" stroke="#dfdfdf" stroke-width="20" />
<line x1="2175.82" y1="-9276.39" x2="1774.85" y2="-8945.64" stroke="#dfdfdf" stroke-width="20" />
<line x1="2182.38" y1="-8656.21" x2="1774.85" y2="-8945.64" stroke="#dfdfdf" stroke-width="20" />
<line x1="1355.65" y1="-7801.62" x2="811.832" y2="-8241.99" stroke="#dfdfdf" stroke-width="20" />
<line x1="1397.17" y1="-7316.21" x2="1355.65" y2="-7801.62" stroke="#dfdfdf" stroke-width="20" />
<line x1="1864.05" y1="-7804.87" x2="1355.65" y2="-7801.62" stroke="#dfdfdf" stroke-width="20" />
<line x1="-3167.94" y1="-7522.03" x2="-3726.2" y2="-7991.63" stroke="#dfdfdf" stroke-width="20" />
<line x1="-3726.2" y1="-7991.63" x2="-4229.42" y2="-7982.44" stroke="#dfdfdf" stroke-width="20" />
<line x1="-3726.2" y1="-7991.63" x2="-3782.32" y2="-8438.22" stroke="#dfdfdf" stroke-width="20" />
<line x1="-3145.29" y1="-6135.61" x2="-3697.71" y2="-5646.77" stroke="#dfdfdf" stroke-width="20" />
<line x1="-3697.71" y1="-5646.77" x2="-4218.19" y2="-5611.59" stroke="#dfdfdf" stroke-width="20" />
<line x1="-3697.71" y1="-5646.77" x2="-3751.11" y2="-5141" stroke="#dfdfdf" stroke-width="20" />
<line x1="-2369.7" y1="-5752.64" x2="-2372.56" y2="-5034.92" stroke="#dfdfdf" stroke-width="20" />
<line x1="-2372.56" y1="-5034.92" x2="-2682.28" y2="-4649.64" stroke="#dfdfdf" stroke-width="20" />
<line x1="-2044.38" y1="-4641.94" x2="-2372.56" y2="-5034.92" stroke="#dfdfdf" stroke-width="20" />
<line x1="-471.884" y1="-6979.59" x2="-1230.84" y2="-6988.32" stroke="#dfdfdf" stroke-width="20" />
<line x1="-33.46" y1="-6659.86" x2="-471.884" y2="-6979.59" stroke="#dfdfdf" stroke-width="20" />
<line x1="-27.7231" y1="-7262.33" x2="-471.884" y2="-6979.59" stroke="#dfdfdf" stroke-width="20" />
<line x1="-2384.33" y1="-8575.41" x2="-2389.42" y2="-7825.39" stroke="#dfdfdf" stroke-width="20" />
<line x1="-2037.12" y1="-8971.31" x2="-2384.33" y2="-8575.41" stroke="#dfdfdf" stroke-width="20" />
<line x1="-2384.33" y1="-8575.41" x2="-2704.49" y2="-8970.58" stroke="#dfdfdf" stroke-width="20" />
<line x1="1036.78" y1="-4552.89" x2="1035.18" y2="-5266.01" stroke="#dfdfdf" stroke-width="20" />
<line x1="1035.18" y1="-5266.01" x2="725.084" y2="-5674.93" stroke="#dfdfdf" stroke-width="20" />
<line x1="1341.24" y1="-5678.45" x2="1035.18" y2="-5266.01" stroke="#dfdfdf" stroke-width="20" />
<line x1="1046.87" y1="-1796.96" x2="1044.88" y2="-2534.24" stroke="#dfdfdf" stroke-width="20" />
<line x1="1046.87" y1="-1796.96" x2="717.678" y2="-1443.74" stroke="#dfdfdf" stroke-width="20" />
<line x1="1365.98" y1="-1439.18" x2="1046.87" y2="-1796.96" stroke="#dfdfdf" stroke-width="20" />
<line x1="2903.85" y1="-3566.01" x2="2111.48" y2="-3566.7" stroke="#dfdfdf" stroke-width="20" />
<line x1="3339.66" y1="-3889.67" x2="2903.85" y2="-3566.01" stroke="#dfdfdf" stroke-width="20" />
<line x1="3334.73" y1="-3208.76" x2="2903.85" y2="-3566.01" stroke="#dfdfdf" stroke-width="20" />
<line x1="-3582.71" y1="-259.31" x2="-4406.28" y2="-260.094" stroke="#dfdfdf" stroke-width="20" />
<line x1="-4406.28" y1="-260.094" x2="-4846.35" y2="59.944" stroke="#dfdfdf" stroke-width="20" />
<line x1="-4406.28" y1="-260.094" x2="-4857.43" y2="-515.003" stroke="#dfdfdf" stroke-width="20" />
<line x1="2811.92" y1="2197.03" x2="2046.86" y2="2531.38" stroke="#dfdfdf" stroke-width="20" />
<line x1="3327.06" y1="2263.89" x2="2811.92" y2="2197.03" stroke="#dfdfdf" stroke-width="20" />
<line x1="2984.3" y1="1736.87" x2="2811.92" y2="2197.03" stroke="#dfdfdf" stroke-width="20" />
<line x1="1877.01" y1="1395.15" x2="1489.4" y2="2050.72" stroke="#dfdfdf" stroke-width="20" />
<line x1="2377.19" y1="1185.72" x2="1877.01" y2="1395.15" stroke="#dfdfdf" stroke-width="20" />
<line x1="1877.01" y1="1395.15" x2="1832.85" y2="907.865" stroke="#dfdfdf" stroke-width="20" />
<line x1="2025.91" y1="4522.08" x2="1606.36" y2="3881.6" stroke="#dfdfdf" stroke-width="20" />
<line x1="2025.91" y1="4522.08" x2="2007.46" y2="5012.71" stroke="#dfdfdf" stroke-width="20" />
<line x1="2525.67" y1="4614.86" x2="2025.91" y2="4522.08" stroke="#dfdfdf" stroke-width="20" />
<line x1="18.3008" y1="-8943.08" x2="15.3543" y2="-10094.1" stroke="#dfdfdf" stroke-width="20" />
<line x1="18.3008" y1="-8943.08" x2="-768.424" y2="-9694.77" stroke="#dfdfdf" stroke-width="20" />
<line x1="801.165" y1="-9692.84" x2="18.3008" y2="-8943.08" stroke="#dfdfdf" stroke-width="20" />
<line x1="1052.46" y1="-8944.02" x2="18.3008" y2="-8943.08" stroke="#dfdfdf" stroke-width="20" />
<line x1="-2379.42" y1="-6784.05" x2="-3167.94" y2="-7522.03" stroke="#dfdfdf" stroke-width="20" />
<line x1="-2379.42" y1="-6784.05" x2="-3145.29" y2="-6135.61" stroke="#dfdfdf" stroke-width="20" />
<line x1="-2369.7" y1="-5752.64" x2="-2379.42" y2="-6784.05" stroke="#dfdfdf" stroke-width="20" />
<line x1="-1230.84" y1="-6988.32" x2="-2379.42" y2="-6784.05" stroke="#dfdfdf" stroke-width="20" />
<line x1="-2379.42" y1="-6784.05" x2="-2389.42" y2="-7825.39" stroke="#dfdfdf" stroke-width="20" />
<line x1="1036.78" y1="-4552.89" x2="1025.94" y2="-3562.72" stroke="#dfdfdf" stroke-width="20" />
<line x1="1044.88" y1="-2534.24" x2="1025.94" y2="-3562.72" stroke="#dfdfdf" stroke-width="20" />
<line x1="1025.94" y1="-3562.72" x2="-155.686" y2="-3557.88" stroke="#dfdfdf" stroke-width="20" />
<line x1="2316.72" y1="-2916.52" x2="1025.94" y2="-3562.72" stroke="#dfdfdf" stroke-width="20" />
<line x1="2111.48" y1="-3566.7" x2="1025.94" y2="-3562.72" stroke="#dfdfdf" stroke-width="20" />
<line x1="1759.28" y1="-4357.87" x2="1025.94" y2="-3562.72" stroke="#dfdfdf" stroke-width="20" />
<line x1="-2374.77" y1="-275.435" x2="-3582.71" y2="-259.31" stroke="#dfdfdf" stroke-width="20" />
<line x1="5.78299" y1="8333.6" x2="-1436.49" y2="8327.48" stroke="#dfdfdf" stroke-width="20" />
<line x1="5.78299" y1="8333.6" x2="-1123.36" y2="9226.83" stroke="#dfdfdf" stroke-width="20" />
<line x1="992.071" y1="9213.1" x2="5.78299" y2="8333.6" stroke="#dfdfdf" stroke-width="20" />
<line x1="1565.12" y1="8324.41" x2="5.78299" y2="8333.6" stroke="#dfdfdf" stroke-width="20" />
<line x1="2042.48" y1="3259.77" x2="1046.16" y2="2939.02" stroke="#dfdfdf" stroke-width="20" />
<line x1="2046.86" y1="2531.38" x2="1046.16" y2="2939.02" stroke="#dfdfdf" stroke-width="20" />
<line x1="1046.16" y1="2939.02" x2="714.912" y2="1773.55" stroke="#dfdfdf" stroke-width="20" />
<line x1="1489.4" y1="2050.72" x2="1046.16" y2="2939.02" stroke="#dfdfdf" stroke-width="20" />
<line x1="1606.36" y1="3881.6" x2="1046.16" y2="2939.02" stroke="#dfdfdf" stroke-width="20" />
<line x1="1046.16" y1="2939.02" x2="725.418" y2="4112.87" stroke="#dfdfdf" stroke-width="20" />
<line x1="-2391.26" y1="6156.84" x2="-3065.32" y2="4975.45" stroke="#dfdfdf" stroke-width="20" />
<line x1="-2387.12" y1="5148.84" x2="-2391.26" y2="6156.84" stroke="#dfdfdf" stroke-width="20" />
<line x1="-2391.26" y1="6156.84" x2="-3466.39" y2="6823.47" stroke="#dfdfdf" stroke-width="20" />
<line x1="-2391.26" y1="6156.84" x2="-3477.84" y2="6164.76" stroke="#dfdfdf" stroke-width="20" />
<line x1="-2391.26" y1="6156.84" x2="-3468.18" y2="5507.93" stroke="#dfdfdf" stroke-width="20" />
<line x1="-2380.1" y1="7189.99" x2="-2391.26" y2="6156.84" stroke="#dfdfdf" stroke-width="20" />
<line x1="-2391.26" y1="6156.84" x2="-3042.6" y2="7347.59" stroke="#dfdfdf" stroke-width="20" />
<line x1="811.832" y1="-8241.99" x2="18.3008" y2="-8943.08" stroke="#dfdfdf" stroke-width="20" />
<line x1="12.2869" y1="9696.89" x2="5.78299" y2="8333.6" stroke="#dfdfdf" stroke-width="20" />
<line x1="-3050.92" y1="4308.96" x2="-3065.32" y2="4975.45" stroke="#dfdfdf" stroke-width="20" />
<line x1="-2371.82" y1="722.736" x2="-2373.24" y2="1436.7" stroke="#dfdfdf" stroke-width="20" />
<line x1="-2379.42" y1="-6784.05" x2="-3396.69" y2="-6778.15" stroke="#dfdfdf" stroke-width="20" />
<line x1="-3396.69" y1="-6778.15" x2="-4087.69" y2="-6774.04" stroke="#dfdfdf" stroke-width="20" />
<line x1="2317.18" y1="-4962.03" x2="1759.28" y2="-4357.87" stroke="#dfdfdf" stroke-width="20" />
<line x1="-1224.04" y1="-6482.99" x2="-2379.42" y2="-6784.05" stroke="#dfdfdf" stroke-width="20" />
<line x1="1046.16" y1="2939.02" x2="-183.219" y2="2950.84" stroke="#dfdfdf" stroke-width="20" />
<line x1="-477.623" y1="-264.629" x2="-1282" y2="-263.433" stroke="#dfdfdf" stroke-width="20" />
<line x1="-53.565" y1="-518.692" x2="-477.623" y2="-264.629" stroke="#dfdfdf" stroke-width="20" />
<line x1="-59.4094" y1="74.1308" x2="-477.623" y2="-264.629" stroke="#dfdfdf" stroke-width="20" />
<line x1="-2374.77" y1="-275.435" x2="-3156.19" y2="-1020.81" stroke="#dfdfdf" stroke-width="20" />
<line x1="-3156.19" y1="-1020.81" x2="-3737.11" y2="-1485.92" stroke="#dfdfdf" stroke-width="20" />
<line x1="-3737.11" y1="-1485.92" x2="-3788" y2="-2004.69" stroke="#dfdfdf" stroke-width="20" />
<line x1="-3737.11" y1="-1485.92" x2="-4277.15" y2="-1496.15" stroke="#dfdfdf" stroke-width="20" />
<line x1="-2374.77" y1="-275.435" x2="-3198.75" y2="507.753" stroke="#dfdfdf" stroke-width="20" />
<line x1="-3198.75" y1="507.753" x2="-3747.51" y2="1021.72" stroke="#dfdfdf" stroke-width="20" />
<line x1="-3747.51" y1="1021.72" x2="-4318.28" y2="1018.47" stroke="#dfdfdf" stroke-width="20" />
<line x1="-3747.51" y1="1021.72" x2="-3802.04" y2="1554.87" stroke="#dfdfdf" stroke-width="20" />
<line x1="-1282" y1="-263.433" x2="-2374.77" y2="-275.435" stroke="#dfdfdf" stroke-width="20" />
<line x1="-2371.82" y1="722.736" x2="-2374.77" y2="-275.435" stroke="#dfdfdf" stroke-width="20" />
<line x1="1659.51" y1="-2536.36" x2="1025.94" y2="-3562.72" stroke="#dfdfdf" stroke-width="20" />
<line x1="1992.95" y1="-1836.39" x2="1659.51" y2="-2536.36" stroke="#dfdfdf" stroke-width="20" />
<line x1="2316.72" y1="-2916.52" x2="1992.95" y2="-1836.39" stroke="#dfdfdf" stroke-width="20" />
<line x1="-2373.27" y1="-1232.02" x2="-2374.77" y2="-275.435" stroke="#dfdfdf" stroke-width="20" />
<line x1="-2365.37" y1="-1979.43" x2="-2373.27" y2="-1232.02" stroke="#dfdfdf" stroke-width="20" />
<line x1="-3065.32" y1="4975.45" x2="-3521.95" y2="4302.9" stroke="#dfdfdf" stroke-width="20" />
<circle cx="-3145.29" cy="-6135.61" r="125" fill="#009aff"><title>dwID: 1
gbidReward: b3d7fbd0
bRootNode: false</title></circle>
<circle cx="1052.46" cy="-8944.02" r="125" fill="#009aff"><title>dwID: 2
gbidReward: 7e46e3df
bRootNode: false</title></circle>
<circle cx="15.3543" cy="-10094.1" r="125" fill="#009aff"><title>dwID: 5
gbidReward: ba8e5ba2
bRootNode: false</title></circle>
<circle cx="2175.82" cy="-9276.39" r="125" fill="#009aff"><title>dwID: 6
gbidReward: c6971633
bRootNode: false</title></circle>
<circle cx="-3751.11" cy="-5141" r="125" fill="#009aff"><title>dwID: 8
gbidReward: c16174ed
bRootNode: false</title></circle>
<circle cx="-27.7231" cy="-7262.33" r="125" fill="#009aff"><title>dwID: 9
gbidReward: 5445cb6
bRootNode: false</title></circle>
<circle cx="-3582.71" cy="-259.31" r="125" fill="#009aff"><title>dwID: 10
gbidReward: f86a4d72
bRootNode: false</title></circle>
<circle cx="-2389.42" cy="-7825.39" r="125" fill="#009aff"><title>dwID: 11
gbidReward: e10f3020
bRootNode: false</title></circle>
<circle cx="2111.48" cy="-3566.7" r="125" fill="#009aff"><title>dwID: 12
gbidReward: e165bc94
bRootNode: false</title></circle>
<circle cx="-768.424" cy="-9694.77" r="125" fill="#009aff"><title>dwID: 13
gbidReward: f510c3af
bRootNode: false</title></circle>
<circle cx="327.022" cy="-11207.2" r="125" fill="#009aff"><title>dwID: 14
gbidReward: ffaae496
bRootNode: false</title></circle>
<circle cx="3334.73" cy="-3208.76" r="125" fill="#009aff"><title>dwID: 16
gbidReward: a7a6cf30
bRootNode: false</title></circle>
<circle cx="-1302.92" cy="-10709.1" r="125" fill="#009aff"><title>dwID: 17
gbidReward: 41f235ab
bRootNode: false</title></circle>
<circle cx="-4218.19" cy="-5611.59" r="125" fill="#009aff"><title>dwID: 20
gbidReward: c16174ec
bRootNode: false</title></circle>
<circle cx="-2704.49" cy="-8970.58" r="125" fill="#009aff"><title>dwID: 21
gbidReward: 3fd78cd4
bRootNode: false</title></circle>
<circle cx="1036.78" cy="-4552.89" r="125" fill="#009aff"><title>dwID: 23
gbidReward: 44f269ee
bRootNode: false</title></circle>
<circle cx="1341.24" cy="-5678.45" r="125" fill="#009aff"><title>dwID: 24
gbidReward: 2765df62
bRootNode: false</title></circle>
<circle cx="1606.36" cy="3881.6" r="125" fill="#009aff"><title>dwID: 25
gbidReward: d3c03920
bRootNode: false</title></circle>
<circle cx="-2369.7" cy="-5752.64" r="125" fill="#009aff"><title>dwID: 26
gbidReward: 6ed9ca6b
bRootNode: false</title></circle>
<circle cx="2046.86" cy="2531.38" r="125" fill="#009aff"><title>dwID: 27
gbidReward: d57b3bf6
bRootNode: false</title></circle>
<circle cx="801.165" cy="-9692.84" r="125" fill="#009aff"><title>dwID: 28
gbidReward: e7c22e42
bRootNode: false</title></circle>
<circle cx="-1282" cy="-263.433" r="125" fill="#009aff"><title>dwID: 29
gbidReward: ac683183
bRootNode: false</title></circle>
<circle cx="1404.1" cy="-10661.6" r="125" fill="#009aff"><title>dwID: 32
gbidReward: 50b3636
bRootNode: false</title></circle>
<circle cx="-53.565" cy="-518.692" r="125" fill="#009aff"><title>dwID: 33
gbidReward: c42bfad8
bRootNode: false</title></circle>
<circle cx="-3198.75" cy="507.753" r="125" fill="#009aff"><title>dwID: 34
gbidReward: 4c4faabb
bRootNode: false</title></circle>
<circle cx="725.084" cy="-5674.93" r="125" fill="#009aff"><title>dwID: 35
gbidReward: 2765df63
bRootNode: false</title></circle>
<circle cx="2007.46" cy="5012.71" r="125" fill="#009aff"><title>dwID: 36
gbidReward: c37e52d4
bRootNode: false</title></circle>
<circle cx="-3802.04" cy="1554.87" r="125" fill="#009aff"><title>dwID: 37
gbidReward: f12b890f
bRootNode: false</title></circle>
<circle cx="-2037.12" cy="-8971.31" r="125" fill="#009aff"><title>dwID: 38
gbidReward: 3fd78cd5
bRootNode: false</title></circle>
<circle cx="-3167.94" cy="-7522.03" r="125" fill="#009aff"><title>dwID: 40
gbidReward: 4d047810
bRootNode: false</title></circle>
<circle cx="-59.4094" cy="74.1308" r="125" fill="#009aff"><title>dwID: 41
gbidReward: c42bfad9
bRootNode: false</title></circle>
<circle cx="3327.06" cy="2263.89" r="125" fill="#009aff"><title>dwID: 42
gbidReward: 71990aea
bRootNode: false</title></circle>
<circle cx="-3782.32" cy="-8438.22" r="125" fill="#009aff"><title>dwID: 43
gbidReward: 12058c44
bRootNode: false</title></circle>
<circle cx="1365.98" cy="-1439.18" r="125" fill="#009aff"><title>dwID: 44
gbidReward: 76326728
bRootNode: false</title></circle>
<circle cx="1044.88" cy="-2534.24" r="125" fill="#009aff"><title>dwID: 45
gbidReward: fb39378c
bRootNode: false</title></circle>
<circle cx="2377.19" cy="1185.72" r="125" fill="#009aff"><title>dwID: 46
gbidReward: b816e478
bRootNode: false</title></circle>
<circle cx="1489.4" cy="2050.72" r="125" fill="#009aff"><title>dwID: 47
gbidReward: e286d044
bRootNode: false</title></circle>
<circle cx="-2044.38" cy="-4641.94" r="125" fill="#009aff"><title>dwID: 49
gbidReward: c219fb3f
bRootNode: false</title></circle>
<circle cx="3339.66" cy="-3889.67" r="125" fill="#009aff"><title>dwID: 50
gbidReward: a7a6cf31
bRootNode: false</title></circle>
<circle cx="811.832" cy="-8241.99" r="125" fill="#009aff"><title>dwID: 51
gbidReward: 2184276d
bRootNode: false</title></circle>
<circle cx="1397.17" cy="-7316.21" r="125" fill="#009aff"><title>dwID: 54
gbidReward: 5779eea9
bRootNode: false</title></circle>
<circle cx="717.678" cy="-1443.74" r="125" fill="#009aff"><title>dwID: 55
gbidReward: 76326729
bRootNode: false</title></circle>
<circle cx="-2380.1" cy="7189.99" r="125" fill="#009aff"><title>dwID: 58
gbidReward: db3155a9
bRootNode: false</title></circle>
<circle cx="-2387.12" cy="5148.84" r="125" fill="#009aff"><title>dwID: 59
gbidReward: e219e743
bRootNode: false</title></circle>
<circle cx="-3477.84" cy="6164.76" r="125" fill="#009aff"><title>dwID: 60
gbidReward: e42e46c9
bRootNode: false</title></circle>
<circle cx="-2379.09" cy="4500.84" r="125" fill="#009aff"><title>dwID: 62
gbidReward: 65ba5843
bRootNode: false</title></circle>
<circle cx="-4203.21" cy="6161.48" r="125" fill="#009aff"><title>dwID: 63
gbidReward: ee66035d
bRootNode: false</title></circle>
<circle cx="-2372.51" cy="3938.35" r="125" fill="#009aff"><title>dwID: 67
gbidReward: d0640b15
bRootNode: false</title></circle>
<circle cx="-4782.02" cy="6161.05" r="125" fill="#009aff"><title>dwID: 68
gbidReward: bf84baca
bRootNode: false</title></circle>
<circle cx="-2373.27" cy="-1232.02" r="125" fill="#009aff"><title>dwID: 76
gbidReward: 1158cf5c
bRootNode: false</title></circle>
<circle cx="-155.686" cy="-3557.88" r="125" fill="#009aff"><title>dwID: 77
gbidReward: d97604f
bRootNode: false</title></circle>
<circle cx="-3050.92" cy="4308.96" r="125" fill="#009aff"><title>dwID: 78
gbidReward: 11595bbd
bRootNode: false</title></circle>
<circle cx="-3468.18" cy="5507.93" r="125" fill="#009aff"><title>dwID: 79
gbidReward: 8d24ff69
bRootNode: false</title></circle>
<circle cx="-3466.39" cy="6823.47" r="125" fill="#009aff"><title>dwID: 80
gbidReward: d987913
bRootNode: false</title></circle>
<circle cx="-2365.37" cy="-1979.43" r="125" fill="#009aff"><title>dwID: 81
gbidReward: d96d3ef
bRootNode: false</title></circle>
<circle cx="725.418" cy="4112.87" r="125" fill="#009aff"><title>dwID: 82
gbidReward: 115a747f
bRootNode: false</title></circle>
<circle cx="-3038.59" cy="7969.85" r="125" fill="#009aff"><title>dwID: 83
gbidReward: 8d24ff70
bRootNode: false</title></circle>
<circle cx="-3521.95" cy="4302.9" r="125" fill="#009aff"><title>dwID: 84
gbidReward: 8d24ff6f
bRootNode: false</title></circle>
<circle cx="-1436.49" cy="8327.48" r="125" fill="#009aff"><title>dwID: 86
gbidReward: 115b00e1
bRootNode: false</title></circle>
<circle cx="-2371.82" cy="722.736" r="125" fill="#009aff"><title>dwID: 87
gbidReward: 1159e81e
bRootNode: false</title></circle>
<circle cx="-2373.24" cy="1436.7" r="125" fill="#009aff"><title>dwID: 88
gbidReward: 115a7480
bRootNode: false</title></circle>
<circle cx="-4087.69" cy="-6774.04" r="125" fill="#009aff"><title>dwID: 89
gbidReward: d976051
bRootNode: false</title></circle>
<circle cx="-3042.6" cy="7347.59" r="125" fill="#009aff"><title>dwID: 90
gbidReward: 8d24ff71
bRootNode: false</title></circle>
<circle cx="2316.72" cy="-2916.52" r="125" fill="#009aff"><title>dwID: 91
gbidReward: d97ecb3
bRootNode: false</title></circle>
<circle cx="-3396.69" cy="-6778.15" r="125" fill="#009aff"><title>dwID: 92
gbidReward: 1158cf5d
bRootNode: false</title></circle>
<circle cx="-3065.32" cy="4975.45" r="125" fill="#009aff"><title>dwID: 93
gbidReward: 8d24ff89
bRootNode: false</title></circle>
<circle cx="2317.18" cy="-4962.03" r="125" fill="#009aff"><title>dwID: 94
gbidReward: d97ecb2
bRootNode: false</title></circle>
<circle cx="2042.48" cy="3259.77" r="125" fill="#009aff"><title>dwID: 95
gbidReward: 11595bbe
bRootNode: false</title></circle>
<circle cx="714.912" cy="1773.55" r="125" fill="#009aff"><title>dwID: 96
gbidReward: 8d24ff6a
bRootNode: false</title></circle>
<circle cx="-1123.36" cy="9226.83" r="125" fill="#009aff"><title>dwID: 97
gbidReward: d990572
bRootNode: false</title></circle>
<circle cx="-1230.84" cy="-6988.32" r="125" fill="#009aff"><title>dwID: 3
gbidReward: faa5be42
bRootNode: false</title></circle>
<circle cx="-4318.28" cy="1018.47" r="125" fill="#009aff"><title>dwID: 158
gbidReward: f12b8910
bRootNode: false</title></circle>
<circle cx="5.78299" cy="8333.6" r="125" fill="#ff5f5f"><title>dwID: 183
gbidReward: ffffffff
bRootNode: true</title></circle>
<circle cx="1896.99" cy="-10219.1" r="125" fill="#009aff"><title>dwID: 187
gbidReward: 50b3637
bRootNode: false</title></circle>
<circle cx="1864.05" cy="-7804.87" r="125" fill="#009aff"><title>dwID: 189
gbidReward: 5779eeaa
bRootNode: false</title></circle>
<circle cx="-1892.15" cy="-10277.2" r="125" fill="#009aff"><title>dwID: 190
gbidReward: 41f235ac
bRootNode: false</title></circle>
<circle cx="2182.38" cy="-8656.21" r="125" fill="#009aff"><title>dwID: 192
gbidReward: c6971634
bRootNode: false</title></circle>
<circle cx="-321.941" cy="-11198.2" r="125" fill="#009aff"><title>dwID: 193
gbidReward: ffaae497
bRootNode: false</title></circle>
<circle cx="-33.46" cy="-6659.86" r="125" fill="#009aff"><title>dwID: 195
gbidReward: 5445cb7
bRootNode: false</title></circle>
<circle cx="-4229.42" cy="-7982.44" r="125" fill="#009aff"><title>dwID: 197
gbidReward: 12058c45
bRootNode: false</title></circle>
<circle cx="-4846.35" cy="59.944" r="125" fill="#009aff"><title>dwID: 199
gbidReward: 1f4b57e6
bRootNode: false</title></circle>
<circle cx="-4857.43" cy="-515.003" r="125" fill="#009aff"><title>dwID: 200
gbidReward: 1f4b57e7
bRootNode: false</title></circle>
<circle cx="-2682.28" cy="-4649.64" r="125" fill="#009aff"><title>dwID: 201
gbidReward: c219fb40
bRootNode: false</title></circle>
<circle cx="-2371.36" cy="7894.38" r="125" fill="#009aff"><title>dwID: 61
gbidReward: 550cb23d
bRootNode: false</title></circle>
<circle cx="-2361.28" cy="8454.08" r="125" fill="#009aff"><title>dwID: 66
gbidReward: 550cb23e
bRootNode: false</title></circle>
<circle cx="2984.3" cy="1736.87" r="125" fill="#009aff"><title>dwID: 204
gbidReward: 71990aeb
bRootNode: false</title></circle>
<circle cx="2525.67" cy="4614.86" r="125" fill="#009aff"><title>dwID: 205
gbidReward: c37e52d5
bRootNode: false</title></circle>
<circle cx="1832.85" cy="907.865" r="125" fill="#009aff"><title>dwID: 206
gbidReward: b816e479
bRootNode: false</title></circle>
<circle cx="992.071" cy="9213.1" r="125" fill="#009aff"><title>dwID: 210
gbidReward: d990574
bRootNode: false</title></circle>
<circle cx="1565.12" cy="8324.41" r="125" fill="#009aff"><title>dwID: 211
gbidReward: 115b00e0
bRootNode: false</title></circle>
<circle cx="718.294" cy="1185.97" r="125" fill="#009aff"><title>dwID: 230
gbidReward: 1159e81f
bRootNode: false</title></circle>
<circle cx="716.921" cy="4731" r="125" fill="#009aff"><title>dwID: 231
gbidReward: 8d24ff6b
bRootNode: false</title></circle>
<circle cx="1992.95" cy="-1836.39" r="125" fill="#009aff"><title>dwID: 232
gbidReward: 8d24ff6c
bRootNode: false</title></circle>
<circle cx="2599.59" cy="2956.32" r="125" fill="#009aff"><title>dwID: 233
gbidReward: 8d24ff6d
bRootNode: false</title></circle>
<circle cx="2599.31" cy="3560.89" r="125" fill="#009aff"><title>dwID: 234
gbidReward: d987911
bRootNode: false</title></circle>
<circle cx="-183.219" cy="2950.84" r="125" fill="#009aff"><title>dwID: 235
gbidReward: 115a7481
bRootNode: false</title></circle>
<circle cx="1759.28" cy="-4357.87" r="125" fill="#009aff"><title>dwID: 236
gbidReward: d976050
bRootNode: false</title></circle>
<circle cx="-3532.02" cy="7963.04" r="125" fill="#009aff"><title>dwID: 237
gbidReward: d97ecb1
bRootNode: false</title></circle>
<circle cx="-1224.04" cy="-6482.99" r="125" fill="#009aff"><title>dwID: 238
gbidReward: d96d3ee
bRootNode: false</title></circle>
<circle cx="-3156.19" cy="-1020.81" r="125" fill="#009aff"><title>dwID: 245
gbidReward: 290adc61
bRootNode: false</title></circle>
<circle cx="-4277.15" cy="-1496.15" r="125" fill="#009aff"><title>dwID: 246
gbidReward: 47f35f1d
bRootNode: false</title></circle>
<circle cx="-3788" cy="-2004.69" r="125" fill="#009aff"><title>dwID: 247
gbidReward: 47f35f1e
bRootNode: false</title></circle>
<circle cx="1046.16" cy="2939.02" r="125" fill="#ff5f5f"><title>dwID: 248
gbidReward: ffffffff
bRootNode: true</title></circle>
<circle cx="1025.94" cy="-3562.72" r="125" fill="#ff5f5f"><title>dwID: 249
gbidReward: ffffffff
bRootNode: true</title></circle>
<circle cx="-2379.42" cy="-6784.05" r="125" fill="#ff5f5f"><title>dwID: 250
gbidReward: ffffffff
bRootNode: true</title></circle>
<circle cx="18.3008" cy="-8943.08" r="125" fill="#ff5f5f"><title>dwID: 251
gbidReward: ffffffff
bRootNode: true</title></circle>
<circle cx="-2391.26" cy="6156.84" r="125" fill="#ff5f5f"><title>dwID: 253
gbidReward: ffffffff
bRootNode: true</title></circle>
<circle cx="-2374.77" cy="-275.435" r="125" fill="#ff5f5f"><title>dwID: 254
gbidReward: ffffffff
bRootNode: true</title></circle>
<circle cx="25.6891" cy="-10818.1" r="125" fill="#009aff"><title>dwID: 358
gbidReward: ffaae498
bRootNode: false</title></circle>
<circle cx="-1355.66" cy="-10213.5" r="125" fill="#009aff"><title>dwID: 359
gbidReward: 86bb124d
bRootNode: false</title></circle>
<circle cx="1348.68" cy="-10177.2" r="125" fill="#009aff"><title>dwID: 360
gbidReward: 50b3638
bRootNode: false</title></circle>
<circle cx="1774.85" cy="-8945.64" r="125" fill="#009aff"><title>dwID: 361
gbidReward: c6971635
bRootNode: false</title></circle>
<circle cx="1355.65" cy="-7801.62" r="125" fill="#009aff"><title>dwID: 362
gbidReward: 4d39eb0b
bRootNode: false</title></circle>
<circle cx="-3726.2" cy="-7991.63" r="125" fill="#009aff"><title>dwID: 363
gbidReward: 12058c46
bRootNode: false</title></circle>
<circle cx="-3697.71" cy="-5646.77" r="125" fill="#009aff"><title>dwID: 364
gbidReward: f41239ae
bRootNode: false</title></circle>
<circle cx="-2372.56" cy="-5034.92" r="125" fill="#009aff"><title>dwID: 365
gbidReward: c219fb41
bRootNode: false</title></circle>
<circle cx="-471.884" cy="-6979.59" r="125" fill="#009aff"><title>dwID: 366
gbidReward: 5445cb8
bRootNode: false</title></circle>
<circle cx="-2384.33" cy="-8575.41" r="125" fill="#009aff"><title>dwID: 367
gbidReward: 3fd78cd6
bRootNode: false</title></circle>
<circle cx="1035.18" cy="-5266.01" r="125" fill="#009aff"><title>dwID: 368
gbidReward: 2765df64
bRootNode: false</title></circle>
<circle cx="1046.87" cy="-1796.96" r="125" fill="#009aff"><title>dwID: 369
gbidReward: 4301736a
bRootNode: false</title></circle>
<circle cx="2903.85" cy="-3566.01" r="125" fill="#009aff"><title>dwID: 370
gbidReward: a302dc72
bRootNode: false</title></circle>
<circle cx="-477.623" cy="-264.629" r="125" fill="#009aff"><title>dwID: 371
gbidReward: c42bfad7
bRootNode: false</title></circle>
<circle cx="-4406.28" cy="-260.094" r="125" fill="#009aff"><title>dwID: 372
gbidReward: 1f4b57e8
bRootNode: false</title></circle>
<circle cx="-3747.51" cy="1021.72" r="125" fill="#009aff"><title>dwID: 373
gbidReward: f12b8911
bRootNode: false</title></circle>
<circle cx="-3737.11" cy="-1485.92" r="125" fill="#009aff"><title>dwID: 374
gbidReward: 67da5e28
bRootNode: false</title></circle>
<circle cx="2811.92" cy="2197.03" r="125" fill="#009aff"><title>dwID: 375
gbidReward: 71990aec
bRootNode: false</title></circle>
<circle cx="1877.01" cy="1395.15" r="125" fill="#009aff"><title>dwID: 376
gbidReward: b816e47a
bRootNode: false</title></circle>
<circle cx="2025.91" cy="4522.08" r="125" fill="#009aff"><title>dwID: 377
gbidReward: c37e52d6
bRootNode: false</title></circle>
<circle cx="12.2869" cy="9696.89" r="125" fill="#009aff"><title>dwID: 384
gbidReward: 512061
bRootNode: false</title></circle>
<circle cx="1659.51" cy="-2536.36" r="125" fill="#009aff"><title>dwID: 229
gbidReward: 8d24ff6e
bRootNode: false</title></circle>
</svg>