<svg viewBox="-5120.83 -11197.2 8801.74 21240.1" xmlns="http://www.w3.org/2000/svg">
<style>svg { background-color: black; }</style>
<line x1="1050.26" y1="-3568.85" x2="1047.98" y2="-4558.33" stroke="#dfdfdf" stroke-width="20" />
<line x1="1066" y1="-2514.01" x2="1050.26" y2="-3568.85" stroke="#dfdfdf" stroke-width="20" />
<line x1="1893.99" y1="-2854.26" x2="1050.26" y2="-3568.85" stroke="#dfdfdf" stroke-width="20" />
<line x1="-2099.66" y1="-5639.31" x2="-2367.65" y2="-6787" stroke="#dfdfdf" stroke-width="20" />
<line x1="-2361.47" y1="-1268.98" x2="-2375.31" y2="-267.504" stroke="#dfdfdf" stroke-width="20" />
<line x1="-2375.31" y1="-267.504" x2="-3442.23" y2="-268.78" stroke="#dfdfdf" stroke-width="20" />
<line x1="2235.96" y1="2138.99" x2="1032.9" y2="2922.9" stroke="#dfdfdf" stroke-width="20" />
<line x1="1634.18" y1="1715.45" x2="1032.9" y2="2922.9" stroke="#dfdfdf" stroke-width="20" />
<line x1="-2367.65" y1="-6787" x2="-3646.17" y2="-7120.37" stroke="#dfdfdf" stroke-width="20" />
<line x1="-2375.31" y1="-267.504" x2="-3201.7" y2="518.181" stroke="#dfdfdf" stroke-width="20" />
<line x1="1895.01" y1="-4287.13" x2="1050.26" y2="-3568.85" stroke="#dfdfdf" stroke-width="20" />
<line x1="1582.52" y1="4146.29" x2="1032.9" y2="2922.9" stroke="#dfdfdf" stroke-width="20" />
<line x1="-2384.39" y1="6154.04" x2="-3437.83" y2="5900.76" stroke="#dfdfdf" stroke-width="20" />
<line x1="-3437.83" y1="5900.76" x2="-4117.5" y2="5501.12" stroke="#dfdfdf" stroke-width="20" />
<line x1="-3079.99" y1="7148.92" x2="-3521.93" y2="7694.51" stroke="#dfdfdf" stroke-width="20" />
<line x1="-2384.39" y1="6154.04" x2="-3079.99" y2="7148.92" stroke="#dfdfdf" stroke-width="20" />
<line x1="-4117.5" y1="5501.12" x2="-4711.62" y2="5502.74" stroke="#dfdfdf" stroke-width="20" />
<line x1="-3139.08" y1="5177.81" x2="-3568.95" y2="4622.45" stroke="#dfdfdf" stroke-width="20" />
<line x1="-2384.39" y1="6154.04" x2="-3139.08" y2="5177.81" stroke="#dfdfdf" stroke-width="20" />
<line x1="-3521.93" y1="7694.51" x2="-3527.49" y2="8274.45" stroke="#dfdfdf" stroke-width="20" />
<line x1="-3565.88" y1="4088.12" x2="-3568.95" y2="4622.45" stroke="#dfdfdf" stroke-width="20" />
<line x1="-2392.33" y1="5167.98" x2="-2775.17" y2="4655.63" stroke="#dfdfdf" stroke-width="20" />
<line x1="-2384.39" y1="6154.04" x2="-2392.33" y2="5167.98" stroke="#dfdfdf" stroke-width="20" />
<line x1="-2023.57" y1="4654.28" x2="-2392.33" y2="5167.98" stroke="#dfdfdf" stroke-width="20" />
<line x1="-2375.31" y1="-267.504" x2="-2379.01" y2="803.927" stroke="#dfdfdf" stroke-width="20" />
<line x1="-2394.83" y1="4085.94" x2="-2775.17" y2="4655.63" stroke="#dfdfdf" stroke-width="20" />
<line x1="-2023.57" y1="4654.28" x2="-2394.83" y2="4085.94" stroke="#dfdfdf" stroke-width="20" />
<line x1="7.67307" y1="8359.86" x2="-1258.72" y2="9082.56" stroke="#dfdfdf" stroke-width="20" />
<line x1="7.67307" y1="8359.86" x2="-1266.19" y2="8351.95" stroke="#dfdfdf" stroke-width="20" />
<line x1="1050.26" y1="-3568.85" x2="-180.048" y2="-3564.11" stroke="#dfdfdf" stroke-width="20" />
<line x1="-4120.61" y1="6164.07" x2="-4708.66" y2="6518.15" stroke="#dfdfdf" stroke-width="20" />
<line x1="-4112.15" y1="6882.84" x2="-4708.66" y2="6518.15" stroke="#dfdfdf" stroke-width="20" />
<line x1="2221.55" y1="2925.32" x2="1032.9" y2="2922.9" stroke="#dfdfdf" stroke-width="20" />
<line x1="2802.24" y1="3220.25" x2="2221.55" y2="2925.32" stroke="#dfdfdf" stroke-width="20" />
<line x1="2798.89" y1="2653.69" x2="2221.55" y2="2925.32" stroke="#dfdfdf" stroke-width="20" />
<line x1="-3451.62" y1="6505.74" x2="-4112.15" y2="6882.84" stroke="#dfdfdf" stroke-width="20" />
<line x1="-3451.62" y1="6505.74" x2="-4120.61" y2="6164.07" stroke="#dfdfdf" stroke-width="20" />
<line x1="1275.3" y1="8348.66" x2="7.67307" y2="8359.86" stroke="#dfdfdf" stroke-width="20" />
<line x1="1282.46" y1="9080.23" x2="7.67307" y2="8359.86" stroke="#dfdfdf" stroke-width="20" />
<line x1="-1980.83" y1="7702.81" x2="-2380.33" y2="7175.84" stroke="#dfdfdf" stroke-width="20" />
<line x1="-2380.33" y1="7175.84" x2="-2767.3" y2="7707.11" stroke="#dfdfdf" stroke-width="20" />
<line x1="-2380.33" y1="7175.84" x2="-2384.39" y2="6154.04" stroke="#dfdfdf" stroke-width="20" />
<line x1="1041.84" y1="4731.95" x2="766.04" y2="4242.2" stroke="#dfdfdf" stroke-width="20" />
<line x1="-2377.07" y1="8304.98" x2="-2767.3" y2="7707.11" stroke="#dfdfdf" stroke-width="20" />
<line x1="766.04" y1="4242.2" x2="471.024" y2="4732.68" stroke="#dfdfdf" stroke-width="20" />
<line x1="1032.9" y1="2922.9" x2="766.04" y2="4242.2" stroke="#dfdfdf" stroke-width="20" />
<line x1="7.67307" y1="8359.86" x2="-367.367" y2="9740.68" stroke="#dfdfdf" stroke-width="20" />
<line x1="379.197" y1="9742.99" x2="7.67307" y2="8359.86" stroke="#dfdfdf" stroke-width="20" />
<line x1="-2365.96" y1="-7870.21" x2="-2367.65" y2="-6787" stroke="#dfdfdf" stroke-width="20" />
<line x1="-2375.31" y1="-267.504" x2="-3273.74" y2="-1120.84" stroke="#dfdfdf" stroke-width="20" />
<line x1="-2384.39" y1="6154.04" x2="-3451.62" y2="6505.74" stroke="#dfdfdf" stroke-width="20" />
<line x1="1032.9" y1="2922.9" x2="749.925" y2="1673.08" stroke="#dfdfdf" stroke-width="20" />
<line x1="2217.77" y1="3720.41" x2="1032.9" y2="2922.9" stroke="#dfdfdf" stroke-width="20" />
<line x1="22.8076" y1="-8953.6" x2="-368.42" y2="-9831.95" stroke="#dfdfdf" stroke-width="20" />
<line x1="22.8076" y1="-8953.6" x2="-955.267" y2="-9242.42" stroke="#dfdfdf" stroke-width="20" />
<line x1="998.371" y1="-9239" x2="22.8076" y2="-8953.6" stroke="#dfdfdf" stroke-width="20" />
<line x1="427.839" y1="-9846.68" x2="22.8076" y2="-8953.6" stroke="#dfdfdf" stroke-width="20" />
<line x1="-2367.65" y1="-6787" x2="-3095.23" y2="-7681.3" stroke="#dfdfdf" stroke-width="20" />
<line x1="-2367.65" y1="-6787" x2="-2778.5" y2="-5635.18" stroke="#dfdfdf" stroke-width="20" />
<line x1="-2367.65" y1="-6787" x2="-3647.42" y2="-6477.62" stroke="#dfdfdf" stroke-width="20" />
<line x1="1038.35" y1="1117.64" x2="749.925" y2="1673.08" stroke="#dfdfdf" stroke-width="20" />
<line x1="749.925" y1="1673.08" x2="479.479" y2="1120.4" stroke="#dfdfdf" stroke-width="20" />
<line x1="-702.584" y1="-542.425" x2="-1310.15" y2="-267.294" stroke="#dfdfdf" stroke-width="20" />
<line x1="-1980.83" y1="7702.81" x2="-2377.07" y2="8304.98" stroke="#dfdfdf" stroke-width="20" />
<line x1="690.328" y1="-10458" x2="427.839" y2="-9846.68" stroke="#dfdfdf" stroke-width="20" />
<line x1="1195.86" y1="-10581" x2="690.328" y2="-10458" stroke="#dfdfdf" stroke-width="20" />
<line x1="690.328" y1="-10458" x2="520.835" y2="-10897.2" stroke="#dfdfdf" stroke-width="20" />
<line x1="-368.42" y1="-9831.95" x2="-650.503" y2="-10452" stroke="#dfdfdf" stroke-width="20" />
<line x1="-650.503" y1="-10452" x2="-1161.23" y2="-10573.8" stroke="#dfdfdf" stroke-width="20" />
<line x1="-505.171" y1="-10894.2" x2="-650.503" y2="-10452" stroke="#dfdfdf" stroke-width="20" />
<line x1="-955.267" y1="-9242.42" x2="-1502.78" y2="-9682.21" stroke="#dfdfdf" stroke-width="20" />
<line x1="-1502.78" y1="-9682.21" x2="-1542.98" y2="-10170.5" stroke="#dfdfdf" stroke-width="20" />
<line x1="-1502.78" y1="-9682.21" x2="-2034.77" y2="-9691.4" stroke="#dfdfdf" stroke-width="20" />
<line x1="1553.65" y1="-9696.25" x2="998.371" y2="-9239" stroke="#dfdfdf" stroke-width="20" />
<line x1="2103.06" y1="-9696.71" x2="1553.65" y2="-9696.25" stroke="#dfdfdf" stroke-width="20" />
<line x1="1553.65" y1="-9696.25" x2="1541.23" y2="-10202.6" stroke="#dfdfdf" stroke-width="20" />
<line x1="-4298.56" y1="-7327.22" x2="-4805.82" y2="-7234.38" stroke="#dfdfdf" stroke-width="20" />
<line x1="-4298.56" y1="-7327.22" x2="-4500.76" y2="-7797.92" stroke="#dfdfdf" stroke-width="20" />
<line x1="-3647.42" y1="-6477.62" x2="-4310.1" y2="-6284.55" stroke="#dfdfdf" stroke-width="20" />
<line x1="-4310.1" y1="-6284.55" x2="-4820.83" y2="-6376.04" stroke="#dfdfdf" stroke-width="20" />
<line x1="-4310.1" y1="-6284.55" x2="-4539.04" y2="-5860.32" stroke="#dfdfdf" stroke-width="20" />
<line x1="-2778.5" y1="-5635.18" x2="-3081.94" y2="-4989.05" stroke="#dfdfdf" stroke-width="20" />
<line x1="-3081.94" y1="-4989.05" x2="-3527.44" y2="-4825.23" stroke="#dfdfdf" stroke-width="20" />
<line x1="-2965.37" y1="-4530.56" x2="-3081.94" y2="-4989.05" stroke="#dfdfdf" stroke-width="20" />
<line x1="-1971.19" y1="-4927.24" x2="-2099.66" y2="-5639.31" stroke="#dfdfdf" stroke-width="20" />
<line x1="-1971.19" y1="-4927.24" x2="-2182.4" y2="-4524.52" stroke="#dfdfdf" stroke-width="20" />
<line x1="-1597.81" y1="-4654.31" x2="-1971.19" y2="-4927.24" stroke="#dfdfdf" stroke-width="20" />
<line x1="-2365.96" y1="-7870.21" x2="-2368.81" y2="-8567.64" stroke="#dfdfdf" stroke-width="20" />
<line x1="-2368.81" y1="-8567.64" x2="-2642.81" y2="-8950.12" stroke="#dfdfdf" stroke-width="20" />
<line x1="-2078.11" y1="-8946.35" x2="-2368.81" y2="-8567.64" stroke="#dfdfdf" stroke-width="20" />
<line x1="-3095.23" y1="-7681.3" x2="-3561.99" y2="-8249.49" stroke="#dfdfdf" stroke-width="20" />
<line x1="-3561.99" y1="-8249.49" x2="-4069.86" y2="-8294.6" stroke="#dfdfdf" stroke-width="20" />
<line x1="-3561.99" y1="-8249.49" x2="-3565.75" y2="-8710.65" stroke="#dfdfdf" stroke-width="20" />
<line x1="1047.98" y1="-4558.33" x2="1040.48" y2="-5312.11" stroke="#dfdfdf" stroke-width="20" />
<line x1="1040.48" y1="-5312.11" x2="735.383" y2="-5722.7" stroke="#dfdfdf" stroke-width="20" />
<line x1="1352.88" y1="-5731" x2="1040.48" y2="-5312.11" stroke="#dfdfdf" stroke-width="20" />
<line x1="1069.36" y1="-1766.01" x2="1066" y2="-2514.01" stroke="#dfdfdf" stroke-width="20" />
<line x1="1069.36" y1="-1766.01" x2="761.374" y2="-1350.6" stroke="#dfdfdf" stroke-width="20" />
<line x1="1381.92" y1="-1348.46" x2="1069.36" y2="-1766.01" stroke="#dfdfdf" stroke-width="20" />
<line x1="2466.01" y1="-2410.79" x2="1893.99" y2="-2854.26" stroke="#dfdfdf" stroke-width="20" />
<line x1="2625.47" y1="-1933.92" x2="2466.01" y2="-2410.79" stroke="#dfdfdf" stroke-width="20" />
<line x1="3009.02" y1="-2436.23" x2="2466.01" y2="-2410.79" stroke="#dfdfdf" stroke-width="20" />
<line x1="2464.93" y1="-4799.8" x2="1895.01" y2="-4287.13" stroke="#dfdfdf" stroke-width="20" />
<line x1="2536.21" y1="-5296.5" x2="2464.93" y2="-4799.8" stroke="#dfdfdf" stroke-width="20" />
<line x1="2985.72" y1="-4817.4" x2="2464.93" y2="-4799.8" stroke="#dfdfdf" stroke-width="20" />
<line x1="-3442.23" y1="-268.78" x2="-4172.66" y2="-269.077" stroke="#dfdfdf" stroke-width="20" />
<line x1="-4172.66" y1="-269.077" x2="-4554.14" y2="36.9516" stroke="#dfdfdf" stroke-width="20" />
<line x1="-4172.66" y1="-269.077" x2="-4536.2" y2="-586.469" stroke="#dfdfdf" stroke-width="20" />
<line x1="-2361.47" y1="-1268.98" x2="-2362.07" y2="-1998.04" stroke="#dfdfdf" stroke-width="20" />
<line x1="-2058.55" y1="-2387.66" x2="-2362.07" y2="-1998.04" stroke="#dfdfdf" stroke-width="20" />
<line x1="-2362.07" y1="-1998.04" x2="-2666.23" y2="-2381.53" stroke="#dfdfdf" stroke-width="20" />
<line x1="-3201.7" y1="518.181" x2="-3746.63" y2="1039.74" stroke="#dfdfdf" stroke-width="20" />
<line x1="-3746.63" y1="1039.74" x2="-4239.15" y2="1077.92" stroke="#dfdfdf" stroke-width="20" />
<line x1="-3746.63" y1="1039.74" x2="-3841.19" y2="1495.87" stroke="#dfdfdf" stroke-width="20" />
<line x1="1928.07" y1="1054.81" x2="1634.18" y2="1715.45" stroke="#dfdfdf" stroke-width="20" />
<line x1="1928.07" y1="1054.81" x2="1838.09" y2="597.01" stroke="#dfdfdf" stroke-width="20" />
<line x1="2382.93" y1="842.9" x2="1928.07" y2="1054.81" stroke="#dfdfdf" stroke-width="20" />
<line x1="1896.65" y1="4830.33" x2="1582.52" y2="4146.29" stroke="#dfdfdf" stroke-width="20" />
<line x1="1896.65" y1="4830.33" x2="1831.13" y2="5275.34" stroke="#dfdfdf" stroke-width="20" />
<line x1="2345.72" y1="5007.98" x2="1896.65" y2="4830.33" stroke="#dfdfdf" stroke-width="20" />
<line x1="2844.81" y1="4160.04" x2="2217.77" y2="3720.41" stroke="#dfdfdf" stroke-width="20" />
<line x1="3029.38" y1="4629.53" x2="2844.81" y2="4160.04" stroke="#dfdfdf" stroke-width="20" />
<line x1="3373.73" y1="4143.09" x2="2844.81" y2="4160.04" stroke="#dfdfdf" stroke-width="20" />
<line x1="2863.01" y1="1723.34" x2="2235.96" y2="2138.99" stroke="#dfdfdf" stroke-width="20" />
<line x1="3380.91" y1="1754.63" x2="2863.01" y2="1723.34" stroke="#dfdfdf" stroke-width="20" />
<line x1="3015.24" y1="1277.38" x2="2863.01" y2="1723.34" stroke="#dfdfdf" stroke-width="20" />
<line x1="-3646.17" y1="-7120.37" x2="-4298.56" y2="-7327.22" stroke="#dfdfdf" stroke-width="20" />
<line x1="-2367.65" y1="-6787" x2="-3408.76" y2="-5889.83" stroke="#dfdfdf" stroke-width="20" />
<line x1="-3408.76" y1="-5889.83" x2="-4080.42" y2="-5342.12" stroke="#dfdfdf" stroke-width="20" />
<line x1="-1122.21" y1="-6779.64" x2="-2367.65" y2="-6787" stroke="#dfdfdf" stroke-width="20" />
<line x1="2311.47" y1="-3566.86" x2="1050.26" y2="-3568.85" stroke="#dfdfdf" stroke-width="20" />
<line x1="-1310.15" y1="-267.294" x2="-2375.31" y2="-267.504" stroke="#dfdfdf" stroke-width="20" />
<line x1="-705.647" y1="18.3831" x2="-1310.15" y2="-267.294" stroke="#dfdfdf" stroke-width="20" />
<circle cx="1047.98" cy="-4558.33" r="125" fill="#009aff"><title>dwID: 603
gbidReward: 76e9af7f
bRootNode: false</title></circle>
<circle cx="1066" cy="-2514.01" r="125" fill="#009aff"><title>dwID: 604
gbidReward: a6a79e23
bRootNode: false</title></circle>
<circle cx="1893.99" cy="-2854.26" r="125" fill="#009aff"><title>dwID: 605
gbidReward: a2eb7073
bRootNode: false</title></circle>
<circle cx="-2099.66" cy="-5639.31" r="125" fill="#009aff"><title>dwID: 606
gbidReward: 8b476eb3
bRootNode: false</title></circle>
<circle cx="-2361.47" cy="-1268.98" r="125" fill="#009aff"><title>dwID: 607
gbidReward: a9943dd9
bRootNode: false</title></circle>
<circle cx="-3442.23" cy="-268.78" r="125" fill="#009aff"><title>dwID: 608
gbidReward: 23b4fdd
bRootNode: false</title></circle>
<circle cx="2235.96" cy="2138.99" r="125" fill="#009aff"><title>dwID: 609
gbidReward: e6646b0d
bRootNode: false</title></circle>
<circle cx="1634.18" cy="1715.45" r="125" fill="#009aff"><title>dwID: 610
gbidReward: ed07f883
bRootNode: false</title></circle>
<circle cx="-3646.17" cy="-7120.37" r="125" fill="#009aff"><title>dwID: 611
gbidReward: b5ec4a78
bRootNode: false</title></circle>
<circle cx="-3201.7" cy="518.181" r="125" fill="#009aff"><title>dwID: 612
gbidReward: 435472e0
bRootNode: false</title></circle>
<circle cx="1895.01" cy="-4287.13" r="125" fill="#009aff"><title>dwID: 613
gbidReward: 744f7e30
bRootNode: false</title></circle>
<circle cx="1582.52" cy="4146.29" r="125" fill="#009aff"><title>dwID: 614
gbidReward: dda9a7c0
bRootNode: false</title></circle>
<circle cx="-3437.83" cy="5900.76" r="125" fill="#009aff"><title>dwID: 615
gbidReward: 9309fcf2
bRootNode: false</title></circle>
<circle cx="-3079.99" cy="7148.92" r="125" fill="#009aff"><title>dwID: 616
gbidReward: 87d37cf5
bRootNode: false</title></circle>
<circle cx="-4117.5" cy="5501.12" r="125" fill="#009aff"><title>dwID: 617
gbidReward: 810166be
bRootNode: false</title></circle>
<circle cx="-3139.08" cy="5177.81" r="125" fill="#009aff"><title>dwID: 618
gbidReward: 474de4e0
bRootNode: false</title></circle>
<circle cx="-3527.49" cy="8274.45" r="125" fill="#009aff"><title>dwID: 619
gbidReward: 89d77dbe
bRootNode: false</title></circle>
<circle cx="-4711.62" cy="5502.74" r="125" fill="#009aff"><title>dwID: 620
gbidReward: 810166bf
bRootNode: false</title></circle>
<circle cx="-3568.95" cy="4622.45" r="125" fill="#009aff"><title>dwID: 621
gbidReward: 31ae89ec
bRootNode: false</title></circle>
<circle cx="-3521.93" cy="7694.51" r="125" fill="#009aff"><title>dwID: 622
gbidReward: 8e06dbf8
bRootNode: false</title></circle>
<circle cx="-3565.88" cy="4088.12" r="125" fill="#009aff"><title>dwID: 623
gbidReward: 31ae89ed
bRootNode: false</title></circle>
<circle cx="-2392.33" cy="5167.98" r="125" fill="#009aff"><title>dwID: 624
gbidReward: 41d9a2d1
bRootNode: false</title></circle>
<circle cx="-2379.01" cy="803.927" r="125" fill="#009aff"><title>dwID: 625
gbidReward: db1d490d
bRootNode: false</title></circle>
<circle cx="-2775.17" cy="4655.63" r="125" fill="#009aff"><title>dwID: 626
gbidReward: db1d490c
bRootNode: false</title></circle>
<circle cx="-2023.57" cy="4654.28" r="125" fill="#009aff"><title>dwID: 627
gbidReward: 41d9a2d2
bRootNode: false</title></circle>
<circle cx="-1258.72" cy="9082.56" r="125" fill="#009aff"><title>dwID: 628
gbidReward: 41da2f31
bRootNode: false</title></circle>
<circle cx="-1266.19" cy="8351.95" r="125" fill="#009aff"><title>dwID: 629
gbidReward: 41da2f32
bRootNode: false</title></circle>
<circle cx="-4080.42" cy="-5342.12" r="125" fill="#009aff"><title>dwID: 630
gbidReward: fe51b967
bRootNode: false</title></circle>
<circle cx="-180.048" cy="-3564.11" r="125" fill="#009aff"><title>dwID: 631
gbidReward: fe51b966
bRootNode: false</title></circle>
<circle cx="2311.47" cy="-3566.86" r="125" fill="#009aff"><title>dwID: 632
gbidReward: fe51b965
bRootNode: false</title></circle>
<circle cx="-4708.66" cy="6518.15" r="125" fill="#009aff"><title>dwID: 633
gbidReward: 6993ea34
bRootNode: false</title></circle>
<circle cx="2221.55" cy="2925.32" r="125" fill="#009aff"><title>dwID: 634
gbidReward: 69935dd4
bRootNode: false</title></circle>
<circle cx="-4112.15" cy="6882.84" r="125" fill="#009aff"><title>dwID: 635
gbidReward: 6993ea35
bRootNode: false</title></circle>
<circle cx="-4120.61" cy="6164.07" r="125" fill="#009aff"><title>dwID: 636
gbidReward: 69935dd3
bRootNode: false</title></circle>
<circle cx="1275.3" cy="8348.66" r="125" fill="#009aff"><title>dwID: 637
gbidReward: 69947695
bRootNode: false</title></circle>
<circle cx="1282.46" cy="9080.23" r="125" fill="#009aff"><title>dwID: 638
gbidReward: 69947696
bRootNode: false</title></circle>
<circle cx="-2380.33" cy="7175.84" r="125" fill="#009aff"><title>dwID: 639
gbidReward: bb0c23f1
bRootNode: false</title></circle>
<circle cx="1041.84" cy="4731.95" r="125" fill="#009aff"><title>dwID: 640
gbidReward: db1d4914
bRootNode: false</title></circle>
<circle cx="-2767.3" cy="7707.11" r="125" fill="#009aff"><title>dwID: 641
gbidReward: db1d492c
bRootNode: false</title></circle>
<circle cx="766.04" cy="4242.2" r="125" fill="#009aff"><title>dwID: 642
gbidReward: bb0c23f2
bRootNode: false</title></circle>
<circle cx="-367.367" cy="9740.68" r="125" fill="#009aff"><title>dwID: 643
gbidReward: bb0d3cb3
bRootNode: false</title></circle>
<circle cx="379.197" cy="9742.99" r="125" fill="#009aff"><title>dwID: 644
gbidReward: bb0d3cb4
bRootNode: false</title></circle>
<circle cx="-2365.96" cy="-7870.2" r="125" fill="#009aff"><title>dwID: 645
gbidReward: 924c7623
bRootNode: false</title></circle>
<circle cx="-2375.31" cy="-267.504" r="125" fill="#ff5f5f"><title>dwID: 646
gbidReward: ffffffff
bRootNode: true</title></circle>
<circle cx="-2384.39" cy="6154.04" r="125" fill="#ff5f5f"><title>dwID: 647
gbidReward: ffffffff
bRootNode: true</title></circle>
<circle cx="1032.9" cy="2922.9" r="125" fill="#ff5f5f"><title>dwID: 648
gbidReward: ffffffff
bRootNode: true</title></circle>
<circle cx="-2394.83" cy="4085.94" r="125" fill="#009aff"><title>dwID: 649
gbidReward: db1d4910
bRootNode: false</title></circle>
<circle cx="22.8076" cy="-8953.6" r="125" fill="#ff5f5f"><title>dwID: 650
gbidReward: ffffffff
bRootNode: true</title></circle>
<circle cx="-3273.74" cy="-1120.84" r="125" fill="#009aff"><title>dwID: 651
gbidReward: db1d490e
bRootNode: false</title></circle>
<circle cx="-955.267" cy="-9242.42" r="125" fill="#009aff"><title>dwID: 652
gbidReward: aa564f42
bRootNode: false</title></circle>
<circle cx="471.024" cy="4732.68" r="125" fill="#009aff"><title>dwID: 653
gbidReward: bb0cb052
bRootNode: false</title></circle>
<circle cx="427.839" cy="-9846.68" r="125" fill="#009aff"><title>dwID: 654
gbidReward: ca961298
bRootNode: false</title></circle>
<circle cx="998.371" cy="-9239" r="125" fill="#009aff"><title>dwID: 655
gbidReward: 3459fedf
bRootNode: false</title></circle>
<circle cx="-3408.76" cy="-5889.83" r="125" fill="#009aff"><title>dwID: 656
gbidReward: fe512d05
bRootNode: false</title></circle>
<circle cx="-3095.23" cy="-7681.3" r="125" fill="#009aff"><title>dwID: 657
gbidReward: ca95d702
bRootNode: false</title></circle>
<circle cx="-2778.5" cy="-5635.18" r="125" fill="#009aff"><title>dwID: 658
gbidReward: 24b230a8
bRootNode: false</title></circle>
<circle cx="-705.647" cy="18.3831" r="125" fill="#009aff"><title>dwID: 659
gbidReward: db1d4912
bRootNode: false</title></circle>
<circle cx="2802.24" cy="3220.25" r="125" fill="#009aff"><title>dwID: 660
gbidReward: db1d4913
bRootNode: false</title></circle>
<circle cx="-3647.42" cy="-6477.62" r="125" fill="#009aff"><title>dwID: 661
gbidReward: 299adbf7
bRootNode: false</title></circle>
<circle cx="-368.42" cy="-9831.95" r="125" fill="#009aff"><title>dwID: 662
gbidReward: a6a10860
bRootNode: false</title></circle>
<circle cx="7.67307" cy="8359.86" r="125" fill="#ff5f5f"><title>dwID: 663
gbidReward: ffffffff
bRootNode: true</title></circle>
<circle cx="2217.77" cy="3720.41" r="125" fill="#009aff"><title>dwID: 664
gbidReward: caa15af7
bRootNode: false</title></circle>
<circle cx="1541.23" cy="-10202.6" r="125" fill="#009aff"><title>dwID: 665
gbidReward: 64aae37b
bRootNode: false</title></circle>
<circle cx="1838.09" cy="597.01" r="125" fill="#009aff"><title>dwID: 666
gbidReward: 24be201f
bRootNode: false</title></circle>
<circle cx="-2965.37" cy="-4530.56" r="125" fill="#009aff"><title>dwID: 667
gbidReward: e86ce0e4
bRootNode: false</title></circle>
<circle cx="-1597.81" cy="-4654.31" r="125" fill="#009aff"><title>dwID: 668
gbidReward: ca58f1fc
bRootNode: false</title></circle>
<circle cx="-3565.75" cy="-8710.65" r="125" fill="#009aff"><title>dwID: 669
gbidReward: bc03bd7e
bRootNode: false</title></circle>
<circle cx="520.835" cy="-10897.2" r="125" fill="#009aff"><title>dwID: 670
gbidReward: 89a761d4
bRootNode: false</title></circle>
<circle cx="3373.73" cy="4143.09" r="125" fill="#009aff"><title>dwID: 671
gbidReward: 3ecf8513
bRootNode: false</title></circle>
<circle cx="735.383" cy="-5722.7" r="125" fill="#009aff"><title>dwID: 672
gbidReward: d7e3d21b
bRootNode: false</title></circle>
<circle cx="-1161.23" cy="-10573.8" r="125" fill="#009aff"><title>dwID: 673
gbidReward: c7f4d31c
bRootNode: false</title></circle>
<circle cx="761.374" cy="-1350.6" r="125" fill="#009aff"><title>dwID: 674
gbidReward: 693f943f
bRootNode: false</title></circle>
<circle cx="-4805.82" cy="-7234.38" r="125" fill="#009aff"><title>dwID: 675
gbidReward: 5607f034
bRootNode: false</title></circle>
<circle cx="-2666.23" cy="-2381.53" r="125" fill="#009aff"><title>dwID: 676
gbidReward: 379436b5
bRootNode: false</title></circle>
<circle cx="3009.02" cy="-2436.23" r="125" fill="#009aff"><title>dwID: 677
gbidReward: dd5f860f
bRootNode: false</title></circle>
<circle cx="-4554.14" cy="36.9516" r="125" fill="#009aff"><title>dwID: 678
gbidReward: b837d739
bRootNode: false</title></circle>
<circle cx="-4539.04" cy="-5860.32" r="125" fill="#009aff"><title>dwID: 679
gbidReward: cae7a093
bRootNode: false</title></circle>
<circle cx="-2642.81" cy="-8950.12" r="125" fill="#009aff"><title>dwID: 680
gbidReward: c56436bf
bRootNode: false</title></circle>
<circle cx="-1542.98" cy="-10170.5" r="125" fill="#009aff"><title>dwID: 681
gbidReward: 8e8eee3e
bRootNode: false</title></circle>
<circle cx="-4239.15" cy="1077.92" r="125" fill="#009aff"><title>dwID: 682
gbidReward: 3909221c
bRootNode: false</title></circle>
<circle cx="3380.91" cy="1754.63" r="125" fill="#009aff"><title>dwID: 683
gbidReward: 1d808e9
bRootNode: false</title></circle>
<circle cx="2536.21" cy="-5296.5" r="125" fill="#009aff"><title>dwID: 684
gbidReward: 46f586c
bRootNode: false</title></circle>
<circle cx="2985.72" cy="-4817.4" r="125" fill="#009aff"><title>dwID: 685
gbidReward: 46f586d
bRootNode: false</title></circle>
<circle cx="3015.24" cy="1277.38" r="125" fill="#009aff"><title>dwID: 686
gbidReward: 1d808ea
bRootNode: false</title></circle>
<circle cx="-3841.19" cy="1495.87" r="125" fill="#009aff"><title>dwID: 687
gbidReward: 3909221d
bRootNode: false</title></circle>
<circle cx="-2034.77" cy="-9691.4" r="125" fill="#009aff"><title>dwID: 688
gbidReward: 8e8eee3f
bRootNode: false</title></circle>
<circle cx="-4069.86" cy="-8294.6" r="125" fill="#009aff"><title>dwID: 689
gbidReward: bc03bd7f
bRootNode: false</title></circle>
<circle cx="-2078.11" cy="-8946.35" r="125" fill="#009aff"><title>dwID: 690
gbidReward: c56436c0
bRootNode: false</title></circle>
<circle cx="-4820.83" cy="-6376.04" r="125" fill="#009aff"><title>dwID: 691
gbidReward: cae7a094
bRootNode: false</title></circle>
<circle cx="-4536.2" cy="-586.469" r="125" fill="#009aff"><title>dwID: 692
gbidReward: b837d73a
bRootNode: false</title></circle>
<circle cx="2625.47" cy="-1933.92" r="125" fill="#009aff"><title>dwID: 693
gbidReward: dd5f8610
bRootNode: false</title></circle>
<circle cx="-2058.55" cy="-2387.66" r="125" fill="#009aff"><title>dwID: 694
gbidReward: 379436b6
bRootNode: false</title></circle>
<circle cx="-4500.76" cy="-7797.92" r="125" fill="#009aff"><title>dwID: 695
gbidReward: 5607f035
bRootNode: false</title></circle>
<circle cx="1381.92" cy="-1348.46" r="125" fill="#009aff"><title>dwID: 696
gbidReward: 693f9440
bRootNode: false</title></circle>
<circle cx="-505.171" cy="-10894.2" r="125" fill="#009aff"><title>dwID: 697
gbidReward: c7f4d31d
bRootNode: false</title></circle>
<circle cx="1352.88" cy="-5731" r="125" fill="#009aff"><title>dwID: 698
gbidReward: d7e3d21c
bRootNode: false</title></circle>
<circle cx="3029.38" cy="4629.53" r="125" fill="#009aff"><title>dwID: 699
gbidReward: 3ecf8514
bRootNode: false</title></circle>
<circle cx="1195.86" cy="-10581" r="125" fill="#009aff"><title>dwID: 700
gbidReward: 89a761d5
bRootNode: false</title></circle>
<circle cx="-2182.4" cy="-4524.52" r="125" fill="#009aff"><title>dwID: 701
gbidReward: ca58f1fd
bRootNode: false</title></circle>
<circle cx="-3527.44" cy="-4825.23" r="125" fill="#009aff"><title>dwID: 702
gbidReward: e86ce0e5
bRootNode: false</title></circle>
<circle cx="2382.93" cy="842.9" r="125" fill="#009aff"><title>dwID: 703
gbidReward: 24be2020
bRootNode: false</title></circle>
<circle cx="2103.06" cy="-9696.71" r="125" fill="#009aff"><title>dwID: 704
gbidReward: 64aae37c
bRootNode: false</title></circle>
<circle cx="2345.72" cy="5007.98" r="125" fill="#009aff"><title>dwID: 705
gbidReward: 8dc9c87c
bRootNode: false</title></circle>
<circle cx="1831.13" cy="5275.34" r="125" fill="#009aff"><title>dwID: 706
gbidReward: 8dc9c87d
bRootNode: false</title></circle>
<circle cx="1038.35" cy="1117.64" r="125" fill="#009aff"><title>dwID: 707
gbidReward: 41d91670
bRootNode: false</title></circle>
<circle cx="479.479" cy="1120.4" r="125" fill="#009aff"><title>dwID: 708
gbidReward: 41d9a2d0
bRootNode: false</title></circle>
<circle cx="-702.584" cy="-542.425" r="125" fill="#009aff"><title>dwID: 709
gbidReward: db1d4911
bRootNode: false</title></circle>
<circle cx="749.925" cy="1673.08" r="125" fill="#009aff"><title>dwID: 710
gbidReward: 41d9166f
bRootNode: false</title></circle>
<circle cx="-3451.62" cy="6505.74" r="125" fill="#009aff"><title>dwID: 711
gbidReward: db1d490f
bRootNode: false</title></circle>
<circle cx="-2377.07" cy="8304.98" r="125" fill="#009aff"><title>dwID: 712
gbidReward: bb0cb053
bRootNode: false</title></circle>
<circle cx="-1980.83" cy="7702.81" r="125" fill="#009aff"><title>dwID: 713
gbidReward: bb0cb054
bRootNode: false</title></circle>
<circle cx="2798.89" cy="2653.69" r="125" fill="#009aff"><title>dwID: 714
gbidReward: 6993ea36
bRootNode: false</title></circle>
<circle cx="-1122.21" cy="-6779.64" r="125" fill="#009aff"><title>dwID: 715
gbidReward: fe512d04
bRootNode: false</title></circle>
<circle cx="-1310.15" cy="-267.294" r="125" fill="#009aff"><title>dwID: 716
gbidReward: fe512d06
bRootNode: false</title></circle>
<circle cx="1050.26" cy="-3568.85" r="125" fill="#ff5f5f"><title>dwID: 717
gbidReward: ffffffff
bRootNode: true</title></circle>
<circle cx="-2367.65" cy="-6787" r="125" fill="#ff5f5f"><title>dwID: 718
gbidReward: ffffffff
bRootNode: true</title></circle>
<circle cx="690.328" cy="-10458" r="125" fill="#009aff"><title>dwID: 724
gbidReward: c515c396
bRootNode: false</title></circle>
<circle cx="-650.503" cy="-10452" r="125" fill="#009aff"><title>dwID: 725
gbidReward: cd115dde
bRootNode: false</title></circle>
<circle cx="-1502.78" cy="-9682.2" r="125" fill="#009aff"><title>dwID: 726
gbidReward: 66eedd40
bRootNode: false</title></circle>
<circle cx="1553.65" cy="-9696.25" r="125" fill="#009aff"><title>dwID: 727
gbidReward: 897a1d
bRootNode: false</title></circle>
<circle cx="-4298.56" cy="-7327.22" r="125" fill="#009aff"><title>dwID: 728
gbidReward: 1d881df6
bRootNode: false</title></circle>
<circle cx="-4310.1" cy="-6284.55" r="125" fill="#009aff"><title>dwID: 729
gbidReward: 2e5dda35
bRootNode: false</title></circle>
<circle cx="-3081.94" cy="-4989.05" r="125" fill="#009aff"><title>dwID: 730
gbidReward: fc8b24a6
bRootNode: false</title></circle>
<circle cx="-1971.19" cy="-4927.24" r="125" fill="#009aff"><title>dwID: 731
gbidReward: 1bf958be
bRootNode: false</title></circle>
<circle cx="-2368.81" cy="-8567.64" r="125" fill="#009aff"><title>dwID: 732
gbidReward: 786d35e1
bRootNode: false</title></circle>
<circle cx="-3561.99" cy="-8249.49" r="125" fill="#009aff"><title>dwID: 733
gbidReward: 42fd9480
bRootNode: false</title></circle>
<circle cx="1040.48" cy="-5312.11" r="125" fill="#009aff"><title>dwID: 734
gbidReward: dae03cbd
bRootNode: false</title></circle>
<circle cx="1069.36" cy="-1766.01" r="125" fill="#009aff"><title>dwID: 735
gbidReward: 97b44361
bRootNode: false</title></circle>
<circle cx="2466.01" cy="-2410.79" r="125" fill="#009aff"><title>dwID: 736
gbidReward: 8fd26f31
bRootNode: false</title></circle>
<circle cx="2464.93" cy="-4799.8" r="125" fill="#009aff"><title>dwID: 737
gbidReward: 98dc8d2e
bRootNode: false</title></circle>
<circle cx="-4172.66" cy="-269.077" r="125" fill="#009aff"><title>dwID: 738
gbidReward: c5b4e59b
bRootNode: false</title></circle>
<circle cx="-2362.07" cy="-1998.04" r="125" fill="#009aff"><title>dwID: 739
gbidReward: 309d3497
bRootNode: false</title></circle>
<circle cx="-3746.63" cy="1039.74" r="125" fill="#009aff"><title>dwID: 740
gbidReward: 60af8cde
bRootNode: false</title></circle>
<circle cx="1928.07" cy="1054.81" r="125" fill="#009aff"><title>dwID: 741
gbidReward: c3044b41
bRootNode: false</title></circle>
<circle cx="1896.65" cy="4830.33" r="125" fill="#009aff"><title>dwID: 742
gbidReward: 4d84ff3e
bRootNode: false</title></circle>
<circle cx="2844.81" cy="4160.04" r="125" fill="#009aff"><title>dwID: 743
gbidReward: 1f424eb5
bRootNode: false</title></circle>
<circle cx="2863.01" cy="1723.34" r="125" fill="#009aff"><title>dwID: 745
gbidReward: 435b4d4b
bRootNode: false</title></circle>
</svg>