<svg viewBox="-4920.83 -10997.155555555555 8401.74 20840.14222222222" xmlns="http://www.w3.org/2000/svg">
<style>
  svg {
    background-color: black;
  }
</style>
<line x1="1047.98" y1="-4558.328888888888" x2="1050.26" y2="-3568.853333333333" stroke="#dfdfdf" stroke-width="20" /><line x1="1047.98" y1="-4558.328888888888" x2="1040.48" y2="-5312.106666666667" stroke="#dfdfdf" stroke-width="20" /><line x1="1066" y1="-2514.008888888889" x2="1050.26" y2="-3568.853333333333" stroke="#dfdfdf" stroke-width="20" /><line x1="1066" y1="-2514.008888888889" x2="1069.36" y2="-1766.007111111111" stroke="#dfdfdf" stroke-width="20" /><line x1="1893.99" y1="-2854.2577777777774" x2="1050.26" y2="-3568.853333333333" stroke="#dfdfdf" stroke-width="20" /><line x1="1893.99" y1="-2854.2577777777774" x2="2466.01" y2="-2410.7911111111107" stroke="#dfdfdf" stroke-width="20" /><line x1="-2099.66" y1="-5639.306666666666" x2="-2367.65" y2="-6787.004444444444" stroke="#dfdfdf" stroke-width="20" /><line x1="-2099.66" y1="-5639.306666666666" x2="-1971.19" y2="-4927.235555555556" stroke="#dfdfdf" stroke-width="20" /><line x1="-2361.47" y1="-1268.9813333333334" x2="-2375.31" y2="-267.504" stroke="#dfdfdf" stroke-width="20" /><line x1="-2361.47" y1="-1268.9813333333334" x2="-2362.07" y2="-1998.0444444444445" stroke="#dfdfdf" stroke-width="20" /><line x1="-3442.23" y1="-268.7804444444444" x2="-2375.31" y2="-267.504" stroke="#dfdfdf" stroke-width="20" /><line x1="-3442.23" y1="-268.7804444444444" x2="-4172.66" y2="-269.0773333333333" stroke="#dfdfdf" stroke-width="20" /><line x1="2235.96" y1="2138.9866666666667" x2="1032.9" y2="2922.8977777777777" stroke="#dfdfdf" stroke-width="20" /><line x1="2235.96" y1="2138.9866666666667" x2="2863.01" y2="1723.342222222222" stroke="#dfdfdf" stroke-width="20" /><line x1="1634.18" y1="1715.4471111111109" x2="1032.9" y2="2922.8977777777777" stroke="#dfdfdf" stroke-width="20" /><line x1="1634.18" y1="1715.4471111111109" x2="1928.07" y2="1054.8106666666667" stroke="#dfdfdf" stroke-width="20" /><line x1="-3646.17" y1="-7120.373333333333" x2="-2367.65" y2="-6787.004444444444" stroke="#dfdfdf" stroke-width="20" /><line x1="-3646.17" y1="-7120.373333333333" x2="-4298.56" y2="-7327.217777777778" stroke="#dfdfdf" stroke-width="20" /><line x1="-3201.7" y1="518.1813333333332" x2="-2375.31" y2="-267.504" stroke="#dfdfdf" stroke-width="20" /><line x1="-3201.7" y1="518.1813333333332" x2="-3746.63" y2="1039.744" stroke="#dfdfdf" stroke-width="20" /><line x1="1895.01" y1="-4287.128888888889" x2="1050.26" y2="-3568.853333333333" stroke="#dfdfdf" stroke-width="20" /><line x1="1895.01" y1="-4287.128888888889" x2="2464.93" y2="-4799.804444444444" stroke="#dfdfdf" stroke-width="20" /><line x1="1582.52" y1="4146.293333333333" x2="1032.9" y2="2922.8977777777777" stroke="#dfdfdf" stroke-width="20" /><line x1="1582.52" y1="4146.293333333333" x2="1896.65" y2="4830.328888888888" stroke="#dfdfdf" stroke-width="20" /><line x1="-3437.83" y1="5900.764444444444" x2="-2384.39" y2="6154.044444444445" stroke="#dfdfdf" stroke-width="20" /><line x1="-3437.83" y1="5900.764444444444" x2="-4117.5" y2="5501.12" stroke="#dfdfdf" stroke-width="20" /><line x1="-3079.99" y1="7148.924444444444" x2="-3521.93" y2="7694.506666666666" stroke="#dfdfdf" stroke-width="20" /><line x1="-3079.99" y1="7148.924444444444" x2="-2384.39" y2="6154.044444444445" stroke="#dfdfdf" stroke-width="20" /><line x1="-4117.5" y1="5501.12" x2="-4711.62" y2="5502.737777777777" stroke="#dfdfdf" stroke-width="20" /><line x1="-3139.08" y1="5177.813333333333" x2="-3568.95" y2="4622.453333333333" stroke="#dfdfdf" stroke-width="20" /><line x1="-3139.08" y1="5177.813333333333" x2="-2384.39" y2="6154.044444444445" stroke="#dfdfdf" stroke-width="20" /><line x1="-3527.49" y1="8274.453333333333" x2="-3521.93" y2="7694.506666666666" stroke="#dfdfdf" stroke-width="20" /><line x1="-3568.95" y1="4622.453333333333" x2="-3565.88" y2="4088.1244444444446" stroke="#dfdfdf" stroke-width="20" /><line x1="-2392.33" y1="5167.982222222222" x2="-2775.17" y2="4655.626666666666" stroke="#dfdfdf" stroke-width="20" /><line x1="-2392.33" y1="5167.982222222222" x2="-2384.39" y2="6154.044444444445" stroke="#dfdfdf" stroke-width="20" /><line x1="-2392.33" y1="5167.982222222222" x2="-2023.57" y2="4654.275555555556" stroke="#dfdfdf" stroke-width="20" /><line x1="-2379.01" y1="803.9271111111111" x2="-2375.31" y2="-267.504" stroke="#dfdfdf" stroke-width="20" /><line x1="-2775.17" y1="4655.626666666666" x2="-2394.83" y2="4085.9377777777777" stroke="#dfdfdf" stroke-width="20" /><line x1="-2023.57" y1="4654.275555555556" x2="-2394.83" y2="4085.9377777777777" stroke="#dfdfdf" stroke-width="20" /><line x1="-1258.72" y1="9082.56" x2="7.67307" y2="8359.857777777777" stroke="#dfdfdf" stroke-width="20" /><line x1="-1266.19" y1="8351.946666666667" x2="7.67307" y2="8359.857777777777" stroke="#dfdfdf" stroke-width="20" /><line x1="-4080.42" y1="-5342.115555555555" x2="-3408.76" y2="-5889.831111111112" stroke="#dfdfdf" stroke-width="20" /><line x1="-180.048" y1="-3564.1066666666666" x2="1050.26" y2="-3568.853333333333" stroke="#dfdfdf" stroke-width="20" /><line x1="2311.47" y1="-3566.862222222222" x2="1050.26" y2="-3568.853333333333" stroke="#dfdfdf" stroke-width="20" /><line x1="-4708.66" y1="6518.15111111111" x2="-4120.61" y2="6164.07111111111" stroke="#dfdfdf" stroke-width="20" /><line x1="-4708.66" y1="6518.15111111111" x2="-4112.15" y2="6882.844444444444" stroke="#dfdfdf" stroke-width="20" /><line x1="2221.55" y1="2925.3155555555554" x2="1032.9" y2="2922.8977777777777" stroke="#dfdfdf" stroke-width="20" /><line x1="2221.55" y1="2925.3155555555554" x2="2802.24" y2="3220.248888888889" stroke="#dfdfdf" stroke-width="20" /><line x1="2221.55" y1="2925.3155555555554" x2="2798.89" y2="2653.688888888889" stroke="#dfdfdf" stroke-width="20" /><line x1="-4112.15" y1="6882.844444444444" x2="-3451.62" y2="6505.742222222222" stroke="#dfdfdf" stroke-width="20" /><line x1="-4120.61" y1="6164.07111111111" x2="-3451.62" y2="6505.742222222222" stroke="#dfdfdf" stroke-width="20" /><line x1="1275.3" y1="8348.657777777777" x2="7.67307" y2="8359.857777777777" stroke="#dfdfdf" stroke-width="20" /><line x1="1282.46" y1="9080.23111111111" x2="7.67307" y2="8359.857777777777" stroke="#dfdfdf" stroke-width="20" /><line x1="-2380.33" y1="7175.839999999999" x2="-1980.83" y2="7702.808888888889" stroke="#dfdfdf" stroke-width="20" /><line x1="-2380.33" y1="7175.839999999999" x2="-2767.3" y2="7707.11111111111" stroke="#dfdfdf" stroke-width="20" /><line x1="-2380.33" y1="7175.839999999999" x2="-2384.39" y2="6154.044444444445" stroke="#dfdfdf" stroke-width="20" /><line x1="1041.84" y1="4731.946666666666" x2="766.04" y2="4242.204444444444" stroke="#dfdfdf" stroke-width="20" /><line x1="-2767.3" y1="7707.11111111111" x2="-2377.07" y2="8304.977777777778" stroke="#dfdfdf" stroke-width="20" /><line x1="766.04" y1="4242.204444444444" x2="471.024" y2="4732.675555555556" stroke="#dfdfdf" stroke-width="20" /><line x1="766.04" y1="4242.204444444444" x2="1032.9" y2="2922.8977777777777" stroke="#dfdfdf" stroke-width="20" /><line x1="-367.367" y1="9740.675555555556" x2="7.67307" y2="8359.857777777777" stroke="#dfdfdf" stroke-width="20" /><line x1="379.197" y1="9742.986666666666" x2="7.67307" y2="8359.857777777777" stroke="#dfdfdf" stroke-width="20" /><line x1="-2365.96" y1="-7870.204444444444" x2="-2367.65" y2="-6787.004444444444" stroke="#dfdfdf" stroke-width="20" /><line x1="-2365.96" y1="-7870.204444444444" x2="-2368.81" y2="-8567.644444444444" stroke="#dfdfdf" stroke-width="20" /><line x1="-2375.31" y1="-267.504" x2="-3273.74" y2="-1120.8408888888887" stroke="#dfdfdf" stroke-width="20" /><line x1="-2375.31" y1="-267.504" x2="-1310.15" y2="-267.29422222222223" stroke="#dfdfdf" stroke-width="20" /><line x1="-2384.39" y1="6154.044444444445" x2="-3451.62" y2="6505.742222222222" stroke="#dfdfdf" stroke-width="20" /><line x1="1032.9" y1="2922.8977777777777" x2="749.925" y2="1673.0755555555554" stroke="#dfdfdf" stroke-width="20" /><line x1="1032.9" y1="2922.8977777777777" x2="2217.77" y2="3720.4088888888887" stroke="#dfdfdf" stroke-width="20" /><line x1="22.8076" y1="-8953.599999999999" x2="-368.42" y2="-9831.946666666667" stroke="#dfdfdf" stroke-width="20" /><line x1="22.8076" y1="-8953.599999999999" x2="-955.267" y2="-9242.417777777777" stroke="#dfdfdf" stroke-width="20" /><line x1="22.8076" y1="-8953.599999999999" x2="998.371" y2="-9239.004444444443" stroke="#dfdfdf" stroke-width="20" /><line x1="22.8076" y1="-8953.599999999999" x2="427.839" y2="-9846.684444444445" stroke="#dfdfdf" stroke-width="20" /><line x1="-955.267" y1="-9242.417777777777" x2="-1502.78" y2="-9682.204444444444" stroke="#dfdfdf" stroke-width="20" /><line x1="427.839" y1="-9846.684444444445" x2="690.328" y2="-10457.99111111111" stroke="#dfdfdf" stroke-width="20" /><line x1="998.371" y1="-9239.004444444443" x2="1553.65" y2="-9696.24888888889" stroke="#dfdfdf" stroke-width="20" /><line x1="-3408.76" y1="-5889.831111111112" x2="-2367.65" y2="-6787.004444444444" stroke="#dfdfdf" stroke-width="20" /><line x1="-3095.23" y1="-7681.297777777777" x2="-2367.65" y2="-6787.004444444444" stroke="#dfdfdf" stroke-width="20" /><line x1="-3095.23" y1="-7681.297777777777" x2="-3561.99" y2="-8249.493333333334" stroke="#dfdfdf" stroke-width="20" /><line x1="-2778.5" y1="-5635.182222222222" x2="-2367.65" y2="-6787.004444444444" stroke="#dfdfdf" stroke-width="20" /><line x1="-2778.5" y1="-5635.182222222222" x2="-3081.94" y2="-4989.0488888888885" stroke="#dfdfdf" stroke-width="20" /><line x1="-705.647" y1="18.38311111111111" x2="-1310.15" y2="-267.29422222222223" stroke="#dfdfdf" stroke-width="20" /><line x1="-3647.42" y1="-6477.6177777777775" x2="-2367.65" y2="-6787.004444444444" stroke="#dfdfdf" stroke-width="20" /><line x1="-3647.42" y1="-6477.6177777777775" x2="-4310.1" y2="-6284.551111111111" stroke="#dfdfdf" stroke-width="20" /><line x1="-368.42" y1="-9831.946666666667" x2="-650.503" y2="-10451.964444444444" stroke="#dfdfdf" stroke-width="20" /><line x1="2217.77" y1="3720.4088888888887" x2="2844.81" y2="4160.035555555555" stroke="#dfdfdf" stroke-width="20" /><line x1="1541.23" y1="-10202.595555555556" x2="1553.65" y2="-9696.24888888889" stroke="#dfdfdf" stroke-width="20" /><line x1="1838.09" y1="597.0097777777777" x2="1928.07" y2="1054.8106666666667" stroke="#dfdfdf" stroke-width="20" /><line x1="-2965.37" y1="-4530.5599999999995" x2="-3081.94" y2="-4989.0488888888885" stroke="#dfdfdf" stroke-width="20" /><line x1="-1597.81" y1="-4654.311111111111" x2="-1971.19" y2="-4927.235555555556" stroke="#dfdfdf" stroke-width="20" /><line x1="-3565.75" y1="-8710.648888888889" x2="-3561.99" y2="-8249.493333333334" stroke="#dfdfdf" stroke-width="20" /><line x1="520.835" y1="-10897.155555555555" x2="690.328" y2="-10457.99111111111" stroke="#dfdfdf" stroke-width="20" /><line x1="3373.73" y1="4143.093333333332" x2="2844.81" y2="4160.035555555555" stroke="#dfdfdf" stroke-width="20" /><line x1="735.383" y1="-5722.702222222222" x2="1040.48" y2="-5312.106666666667" stroke="#dfdfdf" stroke-width="20" /><line x1="-1161.23" y1="-10573.777777777777" x2="-650.503" y2="-10451.964444444444" stroke="#dfdfdf" stroke-width="20" /><line x1="761.374" y1="-1350.6044444444444" x2="1069.36" y2="-1766.007111111111" stroke="#dfdfdf" stroke-width="20" /><line x1="-4805.82" y1="-7234.3822222222225" x2="-4298.56" y2="-7327.217777777778" stroke="#dfdfdf" stroke-width="20" /><line x1="-2666.23" y1="-2381.5288888888886" x2="-2362.07" y2="-1998.0444444444445" stroke="#dfdfdf" stroke-width="20" /><line x1="3009.02" y1="-2436.231111111111" x2="2466.01" y2="-2410.7911111111107" stroke="#dfdfdf" stroke-width="20" /><line x1="-4554.14" y1="36.95164444444444" x2="-4172.66" y2="-269.0773333333333" stroke="#dfdfdf" stroke-width="20" /><line x1="-4539.04" y1="-5860.32" x2="-4310.1" y2="-6284.551111111111" stroke="#dfdfdf" stroke-width="20" /><line x1="-2642.81" y1="-8950.115555555554" x2="-2368.81" y2="-8567.644444444444" stroke="#dfdfdf" stroke-width="20" /><line x1="-1542.98" y1="-10170.471111111112" x2="-1502.78" y2="-9682.204444444444" stroke="#dfdfdf" stroke-width="20" /><line x1="-4239.15" y1="1077.9235555555556" x2="-3746.63" y2="1039.744" stroke="#dfdfdf" stroke-width="20" /><line x1="3380.91" y1="1754.6275555555553" x2="2863.01" y2="1723.342222222222" stroke="#dfdfdf" stroke-width="20" /><line x1="2536.21" y1="-5296.497777777778" x2="2464.93" y2="-4799.804444444444" stroke="#dfdfdf" stroke-width="20" /><line x1="2985.72" y1="-4817.404444444444" x2="2464.93" y2="-4799.804444444444" stroke="#dfdfdf" stroke-width="20" /><line x1="3015.24" y1="1277.376" x2="2863.01" y2="1723.342222222222" stroke="#dfdfdf" stroke-width="20" /><line x1="-3841.19" y1="1495.8719999999998" x2="-3746.63" y2="1039.744" stroke="#dfdfdf" stroke-width="20" /><line x1="-2034.77" y1="-9691.395555555555" x2="-1502.78" y2="-9682.204444444444" stroke="#dfdfdf" stroke-width="20" /><line x1="-4069.86" y1="-8294.595555555556" x2="-3561.99" y2="-8249.493333333334" stroke="#dfdfdf" stroke-width="20" /><line x1="-2078.11" y1="-8946.346666666666" x2="-2368.81" y2="-8567.644444444444" stroke="#dfdfdf" stroke-width="20" /><line x1="-4820.83" y1="-6376.035555555555" x2="-4310.1" y2="-6284.551111111111" stroke="#dfdfdf" stroke-width="20" /><line x1="-4536.2" y1="-586.4693333333333" x2="-4172.66" y2="-269.0773333333333" stroke="#dfdfdf" stroke-width="20" /><line x1="2625.47" y1="-1933.9199999999998" x2="2466.01" y2="-2410.7911111111107" stroke="#dfdfdf" stroke-width="20" /><line x1="-2058.55" y1="-2387.6622222222218" x2="-2362.07" y2="-1998.0444444444445" stroke="#dfdfdf" stroke-width="20" /><line x1="-4500.76" y1="-7797.919999999999" x2="-4298.56" y2="-7327.217777777778" stroke="#dfdfdf" stroke-width="20" /><line x1="1381.92" y1="-1348.455111111111" x2="1069.36" y2="-1766.007111111111" stroke="#dfdfdf" stroke-width="20" /><line x1="-505.171" y1="-10894.22222222222" x2="-650.503" y2="-10451.964444444444" stroke="#dfdfdf" stroke-width="20" /><line x1="1352.88" y1="-5731.004444444444" x2="1040.48" y2="-5312.106666666667" stroke="#dfdfdf" stroke-width="20" /><line x1="3029.38" y1="4629.528888888889" x2="2844.81" y2="4160.035555555555" stroke="#dfdfdf" stroke-width="20" /><line x1="1195.86" y1="-10581.048888888889" x2="690.328" y2="-10457.99111111111" stroke="#dfdfdf" stroke-width="20" /><line x1="-2182.4" y1="-4524.515555555556" x2="-1971.19" y2="-4927.235555555556" stroke="#dfdfdf" stroke-width="20" /><line x1="-3527.44" y1="-4825.2266666666665" x2="-3081.94" y2="-4989.0488888888885" stroke="#dfdfdf" stroke-width="20" /><line x1="2382.93" y1="842.8995555555555" x2="1928.07" y2="1054.8106666666667" stroke="#dfdfdf" stroke-width="20" /><line x1="2103.06" y1="-9696.71111111111" x2="1553.65" y2="-9696.24888888889" stroke="#dfdfdf" stroke-width="20" /><line x1="2345.72" y1="5007.982222222222" x2="1896.65" y2="4830.328888888888" stroke="#dfdfdf" stroke-width="20" /><line x1="1831.13" y1="5275.3422222222225" x2="1896.65" y2="4830.328888888888" stroke="#dfdfdf" stroke-width="20" /><line x1="1038.35" y1="1117.6355555555554" x2="749.925" y2="1673.0755555555554" stroke="#dfdfdf" stroke-width="20" /><line x1="479.479" y1="1120.3982222222223" x2="749.925" y2="1673.0755555555554" stroke="#dfdfdf" stroke-width="20" /><line x1="-702.584" y1="-542.4248888888889" x2="-1310.15" y2="-267.29422222222223" stroke="#dfdfdf" stroke-width="20" /><line x1="-2377.07" y1="8304.977777777778" x2="-1980.83" y2="7702.808888888889" stroke="#dfdfdf" stroke-width="20" /><line x1="-1122.21" y1="-6779.644444444444" x2="-2367.65" y2="-6787.004444444444" stroke="#dfdfdf" stroke-width="20" /><circle cx="1047.98" cy="-4558.328888888888" r="125" fill="#009aff" /><circle cx="1066" cy="-2514.008888888889" r="125" fill="#009aff" /><circle cx="1893.99" cy="-2854.2577777777774" r="125" fill="#009aff" /><circle cx="-2099.66" cy="-5639.306666666666" r="125" fill="#009aff" /><circle cx="-2361.47" cy="-1268.9813333333334" r="125" fill="#009aff" /><circle cx="-3442.23" cy="-268.7804444444444" r="125" fill="#009aff" /><circle cx="2235.96" cy="2138.9866666666667" r="125" fill="#009aff" /><circle cx="1634.18" cy="1715.4471111111109" r="125" fill="#009aff" /><circle cx="-3646.17" cy="-7120.373333333333" r="125" fill="#009aff" /><circle cx="-3201.7" cy="518.1813333333332" r="125" fill="#009aff" /><circle cx="1895.01" cy="-4287.128888888889" r="125" fill="#009aff" /><circle cx="1582.52" cy="4146.293333333333" r="125" fill="#009aff" /><circle cx="-3437.83" cy="5900.764444444444" r="125" fill="#009aff" /><circle cx="-3079.99" cy="7148.924444444444" r="125" fill="#009aff" /><circle cx="-4117.5" cy="5501.12" r="125" fill="#009aff" /><circle cx="-3139.08" cy="5177.813333333333" r="125" fill="#009aff" /><circle cx="-3527.49" cy="8274.453333333333" r="125" fill="#009aff" /><circle cx="-4711.62" cy="5502.737777777777" r="125" fill="#009aff" /><circle cx="-3568.95" cy="4622.453333333333" r="125" fill="#009aff" /><circle cx="-3521.93" cy="7694.506666666666" r="125" fill="#009aff" /><circle cx="-3565.88" cy="4088.1244444444446" r="125" fill="#009aff" /><circle cx="-2392.33" cy="5167.982222222222" r="125" fill="#009aff" /><circle cx="-2379.01" cy="803.9271111111111" r="125" fill="#009aff" /><circle cx="-2775.17" cy="4655.626666666666" r="125" fill="#009aff" /><circle cx="-2023.57" cy="4654.275555555556" r="125" fill="#009aff" /><circle cx="-1258.72" cy="9082.56" r="125" fill="#009aff" /><circle cx="-1266.19" cy="8351.946666666667" r="125" fill="#009aff" /><circle cx="-4080.42" cy="-5342.115555555555" r="125" fill="#009aff" /><circle cx="-180.048" cy="-3564.1066666666666" r="125" fill="#009aff" /><circle cx="2311.47" cy="-3566.862222222222" r="125" fill="#009aff" /><circle cx="-4708.66" cy="6518.15111111111" r="125" fill="#009aff" /><circle cx="2221.55" cy="2925.3155555555554" r="125" fill="#009aff" /><circle cx="-4112.15" cy="6882.844444444444" r="125" fill="#009aff" /><circle cx="-4120.61" cy="6164.07111111111" r="125" fill="#009aff" /><circle cx="1275.3" cy="8348.657777777777" r="125" fill="#009aff" /><circle cx="1282.46" cy="9080.23111111111" r="125" fill="#009aff" /><circle cx="-2380.33" cy="7175.839999999999" r="125" fill="#009aff" /><circle cx="1041.84" cy="4731.946666666666" r="125" fill="#009aff" /><circle cx="-2767.3" cy="7707.11111111111" r="125" fill="#009aff" /><circle cx="766.04" cy="4242.204444444444" r="125" fill="#009aff" /><circle cx="-367.367" cy="9740.675555555556" r="125" fill="#009aff" /><circle cx="379.197" cy="9742.986666666666" r="125" fill="#009aff" /><circle cx="-2365.96" cy="-7870.204444444444" r="125" fill="#009aff" /><circle cx="-2375.31" cy="-267.504" r="125" fill="#ff5f5f" /><circle cx="-2384.39" cy="6154.044444444445" r="125" fill="#ff5f5f" /><circle cx="1032.9" cy="2922.8977777777777" r="125" fill="#ff5f5f" /><circle cx="-2394.83" cy="4085.9377777777777" r="125" fill="#009aff" /><circle cx="22.8076" cy="-8953.599999999999" r="125" fill="#ff5f5f" /><circle cx="-3273.74" cy="-1120.8408888888887" r="125" fill="#009aff" /><circle cx="-955.267" cy="-9242.417777777777" r="125" fill="#009aff" /><circle cx="471.024" cy="4732.675555555556" r="125" fill="#009aff" /><circle cx="427.839" cy="-9846.684444444445" r="125" fill="#009aff" /><circle cx="998.371" cy="-9239.004444444443" r="125" fill="#009aff" /><circle cx="-3408.76" cy="-5889.831111111112" r="125" fill="#009aff" /><circle cx="-3095.23" cy="-7681.297777777777" r="125" fill="#009aff" /><circle cx="-2778.5" cy="-5635.182222222222" r="125" fill="#009aff" /><circle cx="-705.647" cy="18.38311111111111" r="125" fill="#009aff" /><circle cx="2802.24" cy="3220.248888888889" r="125" fill="#009aff" /><circle cx="-3647.42" cy="-6477.6177777777775" r="125" fill="#009aff" /><circle cx="-368.42" cy="-9831.946666666667" r="125" fill="#009aff" /><circle cx="7.67307" cy="8359.857777777777" r="125" fill="#ff5f5f" /><circle cx="2217.77" cy="3720.4088888888887" r="125" fill="#009aff" /><circle cx="1541.23" cy="-10202.595555555556" r="125" fill="#009aff" /><circle cx="1838.09" cy="597.0097777777777" r="125" fill="#009aff" /><circle cx="-2965.37" cy="-4530.5599999999995" r="125" fill="#009aff" /><circle cx="-1597.81" cy="-4654.311111111111" r="125" fill="#009aff" /><circle cx="-3565.75" cy="-8710.648888888889" r="125" fill="#009aff" /><circle cx="520.835" cy="-10897.155555555555" r="125" fill="#009aff" /><circle cx="3373.73" cy="4143.093333333332" r="125" fill="#009aff" /><circle cx="735.383" cy="-5722.702222222222" r="125" fill="#009aff" /><circle cx="-1161.23" cy="-10573.777777777777" r="125" fill="#009aff" /><circle cx="761.374" cy="-1350.6044444444444" r="125" fill="#009aff" /><circle cx="-4805.82" cy="-7234.3822222222225" r="125" fill="#009aff" /><circle cx="-2666.23" cy="-2381.5288888888886" r="125" fill="#009aff" /><circle cx="3009.02" cy="-2436.231111111111" r="125" fill="#009aff" /><circle cx="-4554.14" cy="36.95164444444444" r="125" fill="#009aff" /><circle cx="-4539.04" cy="-5860.32" r="125" fill="#009aff" /><circle cx="-2642.81" cy="-8950.115555555554" r="125" fill="#009aff" /><circle cx="-1542.98" cy="-10170.471111111112" r="125" fill="#009aff" /><circle cx="-4239.15" cy="1077.9235555555556" r="125" fill="#009aff" /><circle cx="3380.91" cy="1754.6275555555553" r="125" fill="#009aff" /><circle cx="2536.21" cy="-5296.497777777778" r="125" fill="#009aff" /><circle cx="2985.72" cy="-4817.404444444444" r="125" fill="#009aff" /><circle cx="3015.24" cy="1277.376" r="125" fill="#009aff" /><circle cx="-3841.19" cy="1495.8719999999998" r="125" fill="#009aff" /><circle cx="-2034.77" cy="-9691.395555555555" r="125" fill="#009aff" /><circle cx="-4069.86" cy="-8294.595555555556" r="125" fill="#009aff" /><circle cx="-2078.11" cy="-8946.346666666666" r="125" fill="#009aff" /><circle cx="-4820.83" cy="-6376.035555555555" r="125" fill="#009aff" /><circle cx="-4536.2" cy="-586.4693333333333" r="125" fill="#009aff" /><circle cx="2625.47" cy="-1933.9199999999998" r="125" fill="#009aff" /><circle cx="-2058.55" cy="-2387.6622222222218" r="125" fill="#009aff" /><circle cx="-4500.76" cy="-7797.919999999999" r="125" fill="#009aff" /><circle cx="1381.92" cy="-1348.455111111111" r="125" fill="#009aff" /><circle cx="-505.171" cy="-10894.22222222222" r="125" fill="#009aff" /><circle cx="1352.88" cy="-5731.004444444444" r="125" fill="#009aff" /><circle cx="3029.38" cy="4629.528888888889" r="125" fill="#009aff" /><circle cx="1195.86" cy="-10581.048888888889" r="125" fill="#009aff" /><circle cx="-2182.4" cy="-4524.515555555556" r="125" fill="#009aff" /><circle cx="-3527.44" cy="-4825.2266666666665" r="125" fill="#009aff" /><circle cx="2382.93" cy="842.8995555555555" r="125" fill="#009aff" /><circle cx="2103.06" cy="-9696.71111111111" r="125" fill="#009aff" /><circle cx="2345.72" cy="5007.982222222222" r="125" fill="#009aff" /><circle cx="1831.13" cy="5275.3422222222225" r="125" fill="#009aff" /><circle cx="1038.35" cy="1117.6355555555554" r="125" fill="#009aff" /><circle cx="479.479" cy="1120.3982222222223" r="125" fill="#009aff" /><circle cx="-702.584" cy="-542.4248888888889" r="125" fill="#009aff" /><circle cx="749.925" cy="1673.0755555555554" r="125" fill="#009aff" /><circle cx="-3451.62" cy="6505.742222222222" r="125" fill="#009aff" /><circle cx="-2377.07" cy="8304.977777777778" r="125" fill="#009aff" /><circle cx="-1980.83" cy="7702.808888888889" r="125" fill="#009aff" /><circle cx="2798.89" cy="2653.688888888889" r="125" fill="#009aff" /><circle cx="-1122.21" cy="-6779.644444444444" r="125" fill="#009aff" /><circle cx="-1310.15" cy="-267.29422222222223" r="125" fill="#009aff" /><circle cx="1050.26" cy="-3568.853333333333" r="125" fill="#ff5f5f" /><circle cx="-2367.65" cy="-6787.004444444444" r="125" fill="#ff5f5f" /><circle cx="690.328" cy="-10457.99111111111" r="125" fill="#009aff" /><circle cx="-650.503" cy="-10451.964444444444" r="125" fill="#009aff" /><circle cx="-1502.78" cy="-9682.204444444444" r="125" fill="#009aff" /><circle cx="1553.65" cy="-9696.24888888889" r="125" fill="#009aff" /><circle cx="-4298.56" cy="-7327.217777777778" r="125" fill="#009aff" /><circle cx="-4310.1" cy="-6284.551111111111" r="125" fill="#009aff" /><circle cx="-3081.94" cy="-4989.0488888888885" r="125" fill="#009aff" /><circle cx="-1971.19" cy="-4927.235555555556" r="125" fill="#009aff" /><circle cx="-2368.81" cy="-8567.644444444444" r="125" fill="#009aff" /><circle cx="-3561.99" cy="-8249.493333333334" r="125" fill="#009aff" /><circle cx="1040.48" cy="-5312.106666666667" r="125" fill="#009aff" /><circle cx="1069.36" cy="-1766.007111111111" r="125" fill="#009aff" /><circle cx="2466.01" cy="-2410.7911111111107" r="125" fill="#009aff" /><circle cx="2464.93" cy="-4799.804444444444" r="125" fill="#009aff" /><circle cx="-4172.66" cy="-269.0773333333333" r="125" fill="#009aff" /><circle cx="-2362.07" cy="-1998.0444444444445" r="125" fill="#009aff" /><circle cx="-3746.63" cy="1039.744" r="125" fill="#009aff" /><circle cx="1928.07" cy="1054.8106666666667" r="125" fill="#009aff" /><circle cx="1896.65" cy="4830.328888888888" r="125" fill="#009aff" /><circle cx="2844.81" cy="4160.035555555555" r="125" fill="#009aff" /><circle cx="2863.01" cy="1723.342222222222" r="125" fill="#009aff" /></svg>